<mxfile host="app.diagrams.net" modified="2022-05-02T18:03:27.373Z" agent="5.0 (Windows NT 10.0; Win64; x64) AppleWebKit/537.36 (KHTML, like Gecko) Chrome/101.0.4951.41 Safari/537.36" etag="eV09TkzQQ67wblw6m5RA" version="17.5.0" type="github">
  <diagram id="7_6iegEIO3rrpMJA14b-" name="Page-1">
    <mxGraphModel dx="3504" dy="2340" grid="1" gridSize="10" guides="1" tooltips="1" connect="1" arrows="1" fold="1" page="1" pageScale="1" pageWidth="827" pageHeight="1169" math="0" shadow="0">
      <root>
        <mxCell id="0" />
        <mxCell id="1" parent="0" />
        <mxCell id="YUUHOxovo0fUq2Ih26qH-1" value="&lt;b&gt;GERÊNCIA DE PROJETOS&lt;/b&gt;" style="rounded=1;whiteSpace=wrap;html=1;" vertex="1" parent="1">
          <mxGeometry x="280" y="-230" width="200" height="120" as="geometry" />
        </mxCell>
        <mxCell id="YUUHOxovo0fUq2Ih26qH-4" style="edgeStyle=orthogonalEdgeStyle;rounded=0;orthogonalLoop=1;jettySize=auto;html=1;exitX=1;exitY=0.5;exitDx=0;exitDy=0;" edge="1" parent="1" source="YUUHOxovo0fUq2Ih26qH-2" target="YUUHOxovo0fUq2Ih26qH-3">
          <mxGeometry relative="1" as="geometry" />
        </mxCell>
        <mxCell id="YUUHOxovo0fUq2Ih26qH-5" value="&amp;nbsp;Consistia num&amp;nbsp;" style="edgeLabel;html=1;align=center;verticalAlign=middle;resizable=0;points=[];" vertex="1" connectable="0" parent="YUUHOxovo0fUq2Ih26qH-4">
          <mxGeometry x="-0.1528" relative="1" as="geometry">
            <mxPoint as="offset" />
          </mxGeometry>
        </mxCell>
        <mxCell id="YUUHOxovo0fUq2Ih26qH-10" style="edgeStyle=orthogonalEdgeStyle;rounded=0;orthogonalLoop=1;jettySize=auto;html=1;exitX=0;exitY=0.5;exitDx=0;exitDy=0;" edge="1" parent="1" source="YUUHOxovo0fUq2Ih26qH-2" target="YUUHOxovo0fUq2Ih26qH-9">
          <mxGeometry relative="1" as="geometry" />
        </mxCell>
        <mxCell id="YUUHOxovo0fUq2Ih26qH-11" value="&amp;nbsp;Foi o&amp;nbsp;" style="edgeLabel;html=1;align=center;verticalAlign=middle;resizable=0;points=[];" vertex="1" connectable="0" parent="YUUHOxovo0fUq2Ih26qH-10">
          <mxGeometry x="-0.0549" relative="1" as="geometry">
            <mxPoint x="24" as="offset" />
          </mxGeometry>
        </mxCell>
        <mxCell id="YUUHOxovo0fUq2Ih26qH-33" value="&amp;nbsp;Foi um&amp;nbsp;" style="edgeStyle=orthogonalEdgeStyle;curved=0;rounded=1;sketch=0;orthogonalLoop=1;jettySize=auto;html=1;exitX=0.5;exitY=0;exitDx=0;exitDy=0;entryX=0.5;entryY=1;entryDx=0;entryDy=0;" edge="1" parent="1" source="YUUHOxovo0fUq2Ih26qH-2" target="YUUHOxovo0fUq2Ih26qH-12">
          <mxGeometry relative="1" as="geometry" />
        </mxCell>
        <mxCell id="YUUHOxovo0fUq2Ih26qH-2" value="Polaris" style="rounded=1;whiteSpace=wrap;html=1;" vertex="1" parent="1">
          <mxGeometry x="320" y="400" width="120" height="60" as="geometry" />
        </mxCell>
        <mxCell id="YUUHOxovo0fUq2Ih26qH-7" style="edgeStyle=orthogonalEdgeStyle;rounded=0;orthogonalLoop=1;jettySize=auto;html=1;exitX=1;exitY=0.5;exitDx=0;exitDy=0;" edge="1" parent="1" source="YUUHOxovo0fUq2Ih26qH-3" target="YUUHOxovo0fUq2Ih26qH-6">
          <mxGeometry relative="1" as="geometry" />
        </mxCell>
        <mxCell id="YUUHOxovo0fUq2Ih26qH-8" value="&amp;nbsp;Desenvolvido na&amp;nbsp;" style="edgeLabel;html=1;align=center;verticalAlign=middle;resizable=0;points=[];" vertex="1" connectable="0" parent="YUUHOxovo0fUq2Ih26qH-7">
          <mxGeometry x="0.0499" relative="1" as="geometry">
            <mxPoint as="offset" />
          </mxGeometry>
        </mxCell>
        <mxCell id="YUUHOxovo0fUq2Ih26qH-3" value="Sistema de armamento" style="rounded=1;whiteSpace=wrap;html=1;" vertex="1" parent="1">
          <mxGeometry x="370" y="520" width="120" height="60" as="geometry" />
        </mxCell>
        <mxCell id="YUUHOxovo0fUq2Ih26qH-6" value="Década de 1950" style="rounded=1;whiteSpace=wrap;html=1;" vertex="1" parent="1">
          <mxGeometry x="510" y="420" width="120" height="60" as="geometry" />
        </mxCell>
        <mxCell id="YUUHOxovo0fUq2Ih26qH-9" value="Primeiro projeto a usar técnicas modernas de gerenciamento de projetos" style="rounded=1;whiteSpace=wrap;html=1;" vertex="1" parent="1">
          <mxGeometry x="180" y="500" width="150" height="100" as="geometry" />
        </mxCell>
        <mxCell id="YUUHOxovo0fUq2Ih26qH-43" style="edgeStyle=orthogonalEdgeStyle;curved=0;rounded=1;sketch=0;orthogonalLoop=1;jettySize=auto;html=1;exitX=1;exitY=0.5;exitDx=0;exitDy=0;entryX=0.25;entryY=0;entryDx=0;entryDy=0;" edge="1" parent="1" source="YUUHOxovo0fUq2Ih26qH-12" target="YUUHOxovo0fUq2Ih26qH-41">
          <mxGeometry relative="1" as="geometry" />
        </mxCell>
        <mxCell id="YUUHOxovo0fUq2Ih26qH-59" value="Se caracteriza por" style="edgeLabel;html=1;align=center;verticalAlign=middle;resizable=0;points=[];" vertex="1" connectable="0" parent="YUUHOxovo0fUq2Ih26qH-43">
          <mxGeometry x="-0.3101" relative="1" as="geometry">
            <mxPoint as="offset" />
          </mxGeometry>
        </mxCell>
        <mxCell id="YUUHOxovo0fUq2Ih26qH-49" value="&amp;nbsp;É um&amp;nbsp;" style="edgeStyle=orthogonalEdgeStyle;curved=0;rounded=1;sketch=0;orthogonalLoop=1;jettySize=auto;html=1;exitX=0.5;exitY=0;exitDx=0;exitDy=0;entryX=1;entryY=0.5;entryDx=0;entryDy=0;" edge="1" parent="1" source="YUUHOxovo0fUq2Ih26qH-12" target="YUUHOxovo0fUq2Ih26qH-48">
          <mxGeometry relative="1" as="geometry" />
        </mxCell>
        <mxCell id="YUUHOxovo0fUq2Ih26qH-12" value="Projeto" style="rounded=1;whiteSpace=wrap;html=1;" vertex="1" parent="1">
          <mxGeometry x="320" y="250" width="120" height="60" as="geometry" />
        </mxCell>
        <mxCell id="YUUHOxovo0fUq2Ih26qH-40" value="&amp;nbsp;São exemplos de&amp;nbsp;" style="edgeStyle=orthogonalEdgeStyle;curved=0;rounded=1;sketch=0;orthogonalLoop=1;jettySize=auto;html=1;exitX=0.5;exitY=0;exitDx=0;exitDy=0;entryX=0.25;entryY=0;entryDx=0;entryDy=0;" edge="1" parent="1" source="YUUHOxovo0fUq2Ih26qH-34" target="YUUHOxovo0fUq2Ih26qH-12">
          <mxGeometry relative="1" as="geometry" />
        </mxCell>
        <mxCell id="YUUHOxovo0fUq2Ih26qH-34" value="Projetos" style="swimlane;fontStyle=0;childLayout=stackLayout;horizontal=1;startSize=30;horizontalStack=0;resizeParent=1;resizeParentMax=0;resizeLast=0;collapsible=1;marginBottom=0;rounded=0;sketch=0;" vertex="1" parent="1">
          <mxGeometry x="-20" y="290" width="140" height="120" as="geometry" />
        </mxCell>
        <mxCell id="YUUHOxovo0fUq2Ih26qH-35" value="Software" style="text;strokeColor=none;fillColor=none;align=left;verticalAlign=middle;spacingLeft=4;spacingRight=4;overflow=hidden;points=[[0,0.5],[1,0.5]];portConstraint=eastwest;rotatable=0;rounded=0;sketch=0;" vertex="1" parent="YUUHOxovo0fUq2Ih26qH-34">
          <mxGeometry y="30" width="140" height="30" as="geometry" />
        </mxCell>
        <mxCell id="YUUHOxovo0fUq2Ih26qH-36" value="Produto" style="text;strokeColor=none;fillColor=none;align=left;verticalAlign=middle;spacingLeft=4;spacingRight=4;overflow=hidden;points=[[0,0.5],[1,0.5]];portConstraint=eastwest;rotatable=0;rounded=0;sketch=0;" vertex="1" parent="YUUHOxovo0fUq2Ih26qH-34">
          <mxGeometry y="60" width="140" height="30" as="geometry" />
        </mxCell>
        <mxCell id="YUUHOxovo0fUq2Ih26qH-37" value="Serviço" style="text;strokeColor=none;fillColor=none;align=left;verticalAlign=middle;spacingLeft=4;spacingRight=4;overflow=hidden;points=[[0,0.5],[1,0.5]];portConstraint=eastwest;rotatable=0;rounded=0;sketch=0;" vertex="1" parent="YUUHOxovo0fUq2Ih26qH-34">
          <mxGeometry y="90" width="140" height="30" as="geometry" />
        </mxCell>
        <mxCell id="YUUHOxovo0fUq2Ih26qH-41" value="" style="shape=image;verticalLabelPosition=bottom;labelBackgroundColor=default;verticalAlign=top;aspect=fixed;imageAspect=0;image=data:image/png,iVBORw0KGgoAAAANSUhEUgAAANMAAACoCAYAAAB64tvbAAAAAXNSR0IArs4c6QAAAARnQU1BAACxjwv8YQUAAAAJcEhZcwAADsMAAA7DAcdvqGQAAEtBSURBVHhe7Z0HfBTV2oef3U3vvTcSSIBQYgVUBEGKgCKiIl4+FbwgiIoIAiKCFEFEr6ByUUEQpPfeew0EktAhtJDe+6bubr6Z3U1fQosSuPP8vDfsmTn1Pe+ZM7v/eUf24meHS5Go1wR6W/FJb38+mnlGnyJRH5Hr/0pISNwnj4wzyU0UWCr0HyQeDMZmPBbiQICVKc0aWWCmT/5nkePT2JmnXWT6z/8c9dCZ5DzZozlzPmvJ7E+CGdPJntuOi8yYru8+ycyuVvqEqrgFe/BGsOn/3mVYGJcWLwQya8xTrP76CeYM8KG1nf7Y34DDk378+ylXPv+0BcMfM+Ou1jaZkbatP499ilXjWvJFa4s7tldl+xr7eDGisyUluf/83YvCv82Ar/X/rifIafm8H83jrjH5iIyur3njnZRFkbMZTh5OPGlZyBWlKa1audGxsSW2hYXE5KrIzSsh5mYOsXnCytTElZcet8VdXchNlSUv9wjgTV8ZqekF3Mg3qZZXg5WHI91bORFsqSI6pQSVviX1BUdboc1N7dkamqxPuTOsWzZkRg9Tjq2+xKyDudg87kc/7yK2XywlOMgMa0cHuj5mhSIjj6RCMHexp2srZx5zLCUhsZhSF1uecjEloKUdNsI4+bV0pWNTaxyLC4jO0SAzs6DN0y609TEiO7mQlNQCcozl5KflcvhUBleEczA1p9XTrnRoZIYqPZ/UEgUBLdx4qYUNtvn5xOTpJr1VswC+e9WS0+sv89NRJaYWGqISVHgItuzxhD2NrNTECbaRCW160kGBY2MXXvCSkZRjwovdK+wbXwQlcZkcTzemZWMzzK3t6CL0UZ6uJKXUnCebWaBOLaLYwZa2Qv6EjFI8hbK6PeFAExsNscnFmNzjfKiXztTocU+CspNYfdWIds/YkHNVRbs+DelkpyIxoQDnTk350LOQiwW29HvVkaLIDJy6NOMN83SO2/nz40tm3Ewyossrrphcz8cl2JEA4xJhghTi1LFJ1bxni+nwfgBBwgTIMZOReKOAXH1L6gv35kwyQto1oKMygYk7s8lUFhJrYs8bzWWcumDMex80pKuTMJHdXenbWMOBK+Z88pEvHkn5WD3VgK7GGUS4NOC7N11wLigk1cya1g4a0s0ceU9Y+W8IE77Zv5oz0K2AKyoL3AqUuL/UjA88CrmQb8PbPUW7ZOPzenMGOAmLmIUrg1vJWZ/lxH96WxN/s0TYlhdyPllFqdDWlkJbOxclMGFrJsk5BVxMKMb+8UBm9rIi6aaKZp0a8GxJGufc/Jn+pivepQoaP+dJw5xcFL7C1lJr31zivfyY/KSG7dcs+FjoYxcXwZ993XnTs4htCTaMfN+J3MNpZIY05Ns2sDvKlFfaWVCYbUSbrt4EJOcT8ta9zYd6uvOR4f1ME/78yB3FyWhWRourVx4bl1/hr8umtG5UyuHdN1m2NY6jhda08CnbB8po1tQWc40cNycjNDILAsyyOBanRhmXwtLzxjXzeqlIyJLTMFBYvVLySX+Evts0MZKjUWtQ6z+r1LrO6UYrjzWLo5i2M4NCDyuCAhwIMSnFxMEMS+E0X09z7VnEJzJjeSw7T2dwrsQUL1s5pZYmOJhb82SAmiN7Yli6+Tpr4gVnqz62DWxp1VCBysgUT7NS5K6WqHOEK5ixJU94y4gVrn7CtUuLqXBFKy1RU1I+/nKaBdtRciaWP/YIZZ5T09jfCmPhiExo07QlV9kUI8fZRElomX0jC3RZy5DlsX5JFD8ezcPYzhQbA7cLpbnZHL2uwdHZBBOMcLC69/lQT52plNijF/nXpHA+W5tGknbESykuEf+UUqKWY2kuE24JjLExFrZ4+RU9Li7RUJSUxtLt15k4M5JfhC2NWsgjlwsjaSivsGJvWRDJ18dLeaGPsJIbvu16CCkVrs6FGHnb86S18FFhxnNNLSmMz+Wm6F3C/ZSTnRwbGxNMi4TJKIxbSUk+BwXn+O+fpxm8NlNbCioNxYL7te4eRB/HXDYdF65yoj2EsVQJY2khjCUyOWZGhuyipljIH306jj/XX2LoD9fRZCYz8cdLbNM4MeIVZ+y0E7yU6MQCZH5OvOAolqfAw9kYlZDXxNwIhVC+rYWwfSxQ6ZxPUyrkKEUjfJDJZMJHvX0NIBwSzhP+T5jpcpXQZuFOzspCgau9iXZRMW7qy7gOpkQdS+aseAkqLbrn+VAvnUktrKDi/8ooGxBtkiqLrccKebJ3S34Z5kfQzXg2XtedJ54YcTyJpABfJvwrkPHv+9PeupT4uHxMhC3D769QM2+MDR98FMyHrW0wTc7lerXF7WEmLvQmqzPsGDP2aVZODKG/bQa/bkvTbVvkJnR69ykW9BK2XCdTOXM5ic0ZNrz/biCj323K0BBjSoUxFyeqRpi4ScI9kUUjL4Z1tsNcuHyoS7LZeVLFM2+0ZPbI5rzvlV1zbK9ksU1Ia9m9MV+83ZgpvZwwbujHfwY1oJufgpgYJUq9meOORbM0wZLBo55m1aQnmfGCJedDk0gOChDKa8lgn1xWHsmhuLxNok+JDqUhrsy+r9lXtLnSnNGdJ06dHM6kW9F/xON87FuKUkgrzsgn3tSOPr29ecxUvIrf+3x4aH+0NbUyxdFIRVKWGnNXRwb+XyO8jkcw8lCRdmV0FVbdouwiMovFs2VY2QmX8fwiMoTPlfOKRpGZCOcLK1BWZgmF9XA07vdHW0sbM2wVKlIzVYgXd7mDBz+MtGf/91GECqt/ao5uHMQrjJ2wYpuVFJOSq9GlVcJSuIrJlcXklu0bhbU4pFdL3s2+xIi9Bdrzq4+tiJjmZCLcb+nH18zaFGEDd4s6hLbKhWNCfvHGX2tLYX+WKxhSnPyGqWrfWjEywtm8lHShE2XFyc1MsJeVkF6gM/69zod6us27PUV5RcLeVjcg1t52uKQlsuZskfZYaUkJSalljiRSSl5WxUBXzitSKuwfkzLqpyPVBUrhPiVB70gipcVFRF3LIzm/RLjZrxgHYVknK6OQJAOTXESZU9mRBCfx96CnUz7hcSXCCOuoPrYiYlp8pfEtzC2qpQ6hrXpHEtHaMr02RxKpat9aUQmLSiVHEtEUFpc7ksi9zgdJTvQQIMmJHg4e2iuThER9Q3ImCYk6QnImCYk6QnImCYk6QnImCYk6QjZv8w3p27x6jpOtKc80c2DjkUR9ikR9RFYqoP+3hITEfSBLSi0TdEjUV4yM5NhYGpORrftRWqJ+Ios4nyI5Uz3H3MwIb3crom5k6VMk6iPSFxASEnWE5EwSEnXE3+NMxdGEHTqn/1CHqJM5t3MFe85n6BPuFg25MReJV+o/VkOdGs7uDZu5kFWrqrIatZf5aFBM3PE9XK7zR5DVpJ3ZxKZdp7mrIa+MJpvYKzf1H6pzj+XXWuatuTdnUkWycMLPnDOo0lUTveo/7Miz138uI4d9Uwez/Hol2fFdkrN1HP85psEkbxvTR83jxl0XVcL5RV+x8rKhhmex49sJHNeYkrdnLGOXXCl/QrUyuTWO1Vbm300x11Z/yicfvsdnQz9i2cV7j15Rs18VqG8s4vftudha6hP01Jbnjshex4wZByk10ZB5r2UJc3Hxt3/qP1SjvPzcWuaegXlZW5m1oBg89PO7jwGhusKOhSfx6NkB+enjJGSdYce6/WQ6BONnryA7z5jGrR7DUXWVQ6sWsetMNnYBjXGzt8fF1w+H0miOrVnA5iNRqF0b42VrpC9YRMnNQ8tZu/UoaTaBNHAy0z4Rqck+zbbFi7lk8QRtWj9LkI8nvj72pIYL9WdEsmPTSdTeHmTsncfGSBVeTXywLFsqhJXm8vY/WH88neLkCHKavE4b22iOrPuL7WEpWPsHYHx1HUtXn8W8ZXtaPdVMuOH3x9s2mcjwWLIvrGf9kTQcGjfEydIKW1fhmF1BzTLdS4g7uoSVG/ZxXe1OgLcdxde2snLZJi5pvAj2stU36O4wNpJja21CelahPkWP6jRLvjnC07/M56NXu9DEwQi5vPr4GZN4B2NkZKbrl0dhBBHxmVzatoyjGU4ENXBAnp2DcZPnCHYuIfrAX6zeGU6uXSAB7g66sXDQ1Oh3ZYsWRO9h46p1nEqzxd/fBVOtQbO4sPV31l20pPkzz/J4I2/sy+qPS+fCtlWcVvnhmrGd5evChHY3x8OqYu3X5Jxl59JlhGUWkXI2i/Y921etx8+Ea9vKyn+eJxs3wM3Xm8Jz1eerGaaWunlpV1izTIqqz9VCru9ZwIqdZ1F7NMfLuqJN93ZlKqeI04uHMW19Bj4+N5k/VfTmIi6s+53DKansnjKMbYrHaOmUzI0EJaeXzeJASgYHpw5lVUFL2gQmsXDUVE5W+sY3d+94pu2x5pkOPpyc/hV7snXpciNLLE2NMBY6bqk4yYq520lR6+r/dnMuPrbHmN7/Y3aqmmAX/jW/7M/XZRTI2T2OybtMCXKJ4tCJNErJZv93o9lr1YH2Xkf5fvpWjCysMDUyxsrOWlgg5jN/XxLq4jCWjhvDxkx/fOJmMX15NMURumOZNcoU2r5/LOOW59P0maakzh/CL6GnWfzdWsw6dSfQ4m+IeWQUwFMhsfw17kf2XSvASGFo/O5sjMr6VRgxl6+nLCfLtwEJc8eyKlZN8fllLD2YRPrOMXy9RUGzli6kXY+lQJ8nq3q/wyo5fc52vp+8FcvnuuIZ9hUzdum/kZQbYWFphpGx4MRW5qgq1z91NXm+9oRP7cWE7SU0tAvlx592UPHQaxZ7vx3JHpNgnK/tIixD2MNVr2ePslL5Cs5o516+wfmqm5fpNcsU5kn1uXr8/G/8sMWcji8GY6mqeqW7T2cSUPjw/Ftv07ZDF5qqK/1CX3KOsNjmvNKrHU91eYeOjfRrVclpjlxrxhtvdyDkhSF0c40kXDCYjiIuh54kPXk/KxbvJCH7JjeS9JPQsgGNvO1xDmonrJCVmi3U3/bNPrTt1g4fl2d5/ZVOdGnlSXqi3guFrdCViBia9Po/2nYeSt+2zshKznM8MpWUo3+wbH8MOXFXsPBpKqw6rjRqE0KV4j078cZrL9L+hRA0KUn61BKuVi9TaPv5w1EEvTWAZx7vQr8e7lwIL6JxQDrb5m8l08pFn7cusaX15yuZ3FXF5lE9+WZvguHxu+0YVUaBZ7v+9Hy+K883U5OSUmabYi6fiCaoV19at3qF3p2a6OPiFXOher9PRpdv14ovHeRMeiKhS+dyMD6LhOvx+iNWeAf6YescTOtmbpUmolD/8+/ycrtetPZ158k336TtS21xTYsnt+y+p/gikfEt6PlGJ14cMJBnHeUG6smqVL5rRfm3nK81y6Q4ssZcjSxujn/mWhbuScPSyVSfWUelaXO/yJHLKt/lmWCsyiVP+3inmgonFi6rGn26cKnPVlpgY10WDEOGiZktTV77hgmTZ/Hzmg0MCqq8YagFmVBGWTECpaVlbZFjaqpBqRQrLEJZIFwGZaaY2bTg1S9mMmHKUpYvHKE7tTaE8mViYAHdh5plCmlmQlperrZj5GblYW7rzXOjVvHd28asmzRTzFj3yG1p2OVzpnwYzPkjF2ofv1uOkWHk2mAl+g+ibYxVKLX9EyxablDdWFTpt41teTUyU3Nsmr7NqMkz+XrOXuYNCdYfuR3CeJeVIv7Rx33QIjfDTJOHbvhzKSguvYd6qs1XA2Uamqu2Hi8yYu5c+hgv4ZvfT4k5y7lHZxIaIuwpxMxyufBXW4ocmUJXnDbN9DG6vpDMnyM+ZdKIIfx1tkSfHkL3rrksGfkZ08eO4HDAADqXXwpMaNrjZfIWf8T0mZOYNvE3YSXQHxIQ84vzoayu6vXLhTTxsFxIECPa6DAisMMLwvZjEJPGj2bzdeG+wqQl3TrnsuyLsfz8wximLDohnFeRXyxQLENMK6tHpk0Tjmr/mtCoeplCWvDLPVEuEtKmfszkg4G82TFG2IKN4s8t4RS4Bogl1y3FB/hl8HtMnDqKrxYlCSt4a4Pjd/sxEtD2S/hc9lc4Sybm050s/GdKcLcupP0xkIkTBvLln+GoytKr97trxZXAOLg3HfPmMm7qN8ycMpIlEVUMqnXY8n+L9Zb9FRDr1x7WpsnKy8SoKe2fFbZdI4czacpKooW5aLAeMZ++/LIxqDwWVearcc0yMXmsxlx9IX4OX0/+he1n8nH1q7rb+JsVEGqUKbHkmnnhZlP1ClOUEUOq2gF3Z6uaYXSL0khIVGLm6o2DefkQ3heqnCQycMKlUjvENiTlm+Pi4cy9VGOoTG3bha2RrYerNva5RplMQqYcx3usQ6RWBYQqm5TEHExcPLEz1VfwN4xfGWplEok55ri521b5kqF6v6tSSEZ8PAVm7rg73nnY49pRkZuSBg5uWJc35H7rMVSmbp5UzFUN+akxZMpdatQhyYkeAiQ50cNB3S5bEhL/w0jOJCFRR0jOJCFRR0jOJCFRR0jOJCFRR0jOJCFRR8gKCiveiCNRPxFfm2JsJNO+Lkei/iLLyn5Uw9U/OigUolTJCGW+TsojUT+RJUsBVeo9YkAVa0tjMqWAKvUa6Z5JQqKOkJxJQqKO+N90prxz7Dl8vfyFWhIPluLoA+w9Z+jZqoeLB+dMqtP8+Wlf+v/rJbr1eIX33u3H1G1JFc+s/G0oOTH7P4TJHauqngVyto5gyLzL9x7T4H+N7DD+GNabPv0EO747lEUX7nB50qRyZOk6Lounq6P464fV5NiLb7F+uFF8PurLu48BURfI3Qjp+jo9gmNZdfp5FiwYTwePRPYtX8DaI0nYBgbhYhzLidBo0iJXszpMha9HKtvnLSJM5U9zHwvij4cSm3aC1Yt3k2zflEBnUwqj97Bk/lL2Ralwb9wAO1kMJ45d5saBFRxXe0P4KnbFmOHqE0RTPzuIPUbolescWHMU+ZPP0ti3IX5OGqL3L2TBil1EqT1p7Gdfw/H+ScRneUxNFBQW1Sc3L+TIlHdY02wOiyb9m9e6tMDeyBZbRTT7l/zOyr2XUbk3xc9ORuzxo8RlRrJ+6W7SnJvhELua7yf9yVUzJ9x8HDG1aknbFsVEht4k88xqlu5Lw6lZIxxk0YQKc8He1wmj5FMcvm6Kr6u8XtmmMvVom5fF9vHD2Wr1Il19DzF+3AYoCuX3YSNYkxOA3bGRvPbxGlSNnTg+YSI78osI+70/I5bmENwil4UfT+Zoyla+/HAu+SEdaZo0kw+nHhImoFDG4M/YpHicpjZxROcF0KlnCy5NG82aNKGKE7MZMmYdipDm2J7+jZ+2J5CxYyRDFygJad+c5F/6M+1ItUAmEsLO4hz7Qt3p1tNPN5ktvPFxyWHn2PdZqHyc9sGJzB78NUcLRTsNZvTyNPwbRPPTF39gYmGDhYkp1g72WGoiWP77DhLzRVsPZ3l6AA1iZjB2wQ3BOMeYN3M7qcIaUnJpMT+tjSK7Htum/jhT0RkOhqWQeOB35u2MISvmkjbZyKcr77z1Er3a++P+7Pu80bk3z3kmE58tbAiNGtF90Du0e/HfdHc5z6kDO7ncbCADOrShy5A+uEUeJlowhCLgFd7v055g/yC8FKdYt2Q717IySM8RV3oFAd0H82bb5nhoZ0Uxp/depFn/D3ihVTcGv+5B5LHr0tavOpoCCtWmmJnoP4sUhbP3cgvefb8TT3f5mNfdwzkmGsDIj8793+XFl7rRUp2AlX8zfO3cCW7fBj8LfV4BI5+XeO9fXena5XE0iQn61MoIV696bJv640wyM8ztQnj7m//y46w17Nnwhf6ADlEFoHsAWfxbKr4YHErzyVcKQ1maSZbSAisbc0pzc7RvFdcIzpJnYY+tkKns0fPiiB+ZsNWDgVNm0Ke5sViYgAyF7jlmPfpYDjni49Xi28fzsLCz09ctUY6wkDXxusqJ8LLomypUanPMNLnowkFkkZFniZ1ogHLEx8gFw4mPkgsGvOUPnII9ZNqXsxhjrC4UNpTCpjI7j6JSGeb12DYP3JlkMjlG4rP4Jo/Tu0cOc4eO4JuJw/n811DhqDD4wjHtU9DCedoYDGJa2XP86kS2TOrPsA8/ZZdfX15q15dXcn/mg89G8PFnOwjq/xquwollZSicGuCYupM/pn/JlpvmleIb6J+z1v7bjJA3e5P763uM+GIQI3c3pn/PytFzJLQI97y9RvYlYfJrDPp8BMMH9OPHU014o2cOvw76iLEffcSeoIG8ItzjyGV6e4k2FG2tcKOR+2UWffkDO5NkevtU2EmcE9rYDaaP8bTlZsZ/OoQxa64J88S0Xtum3ikgCtNuEq80x93bBYtaRymftR+8SdzwBfS2BEdvZ8y06YWkxSSidvDB1apGMALUeUmkqhxws6u8PzFAYSoxSSocvN0xUMw/Sr1WQKiySYzLwsjFG2e9wUQbJglj7O1mrVsIDaHKIj6+EDtfN6oFiq2KcF5SailO7pW+aKhHtqnMQywnKuLID5NIeXsyvdzry9r09yDJiR4OJG3eQ4DkTA8Hj/aSLiHxDyI5k4REHSE5k4REHSE5k4REHSE5k4REHSHLzpEeW6/viD9Wi4+t5xdIj63XZ2TpmQWSM9VzxBgQlubG5ORVeoOERL1DCtz/ECAF7n84kO6ZJCTqCMmZJCTqiDp2Jg25MReJL1PlPyA0aac4FJ5Yd8+5aLKJvXJT/+ER4lHt112iybnB1bg8/ad7p6Yzqc7y16e9+OjjfgwbMYkdN+5GD1bC+UVfsfLyA7xR1qSy//f5RFs63FqxfLeoIln8rfhm7ppoMo6wYcflBxacRXVxDiP7v8Xwof0Y/cN6ou9m6Gvp1/8SqvO/8f3y8/pPVbkb+yoGD/28agwIVRTbl6fzyuw59LFYx6QlJXRplsPZ69GEbglFExSMbfJ+1i9fwdFralwa+WEjz+by9j9Yfzyd4uQIcpq8ztPqME6m2uPpYETa2cPEGJuTfGQTxyLPEpUIQQ1c9RWqiT91hDQ7X+wVyZw7fgMXLycSwo+TkBHJjk0nUXt7kLF3HhsjVXg18cGyfAnI4/qeBazYeRa1R3O8rIuJO7aGI0km2Dr50tDbTi/bVwvlnSAh/RRb1+wj1a4J/o4KIS2UGzEH2BauIcSvkGNrFrD5SBRq18Z42RoJK9ZZdi5dRlhmESlns2jfowHhJ1Kw83JEkRpBWHQ+2aE/M2v1VUzt3fBqYEPq0SWs3LCP62p3Asrr11MUXa0OmYG+l41LBcZGcmytTUjPqvmIturaOlZlvsWs6QOw2DacZSW9aJobfn/9ijHFXXGZfTv2cubieZLwws9Z94CLSFFsNfuXdVIdS2R4DBnn1rNFsJWnWxoHlizjtMqPIE9r5PnXOLLuL7aHpWDt3whHU2UV+7nnhhERl86Fbau0eVwztrN8XZhg/+Z4WMlvXa8h+9olE3nqCrHCfIjQBBNom1BtHOTkXtwglH+IrKJEzuc05+VW6vuyby3bPA0adSkKU1PUEXMZO2UTiuBgHAt3Mn3MnxQEt6dR6mzGzjpK6u5xTN5lSpBLFIdOpGmfoCyOmMf8g6lCN0u4umEW266DqYUlJmnb+Wv9WV0VWoqIXDKLQ+nCpkx1iU1z12rTTi8exrebc/GxPcb0/h+zU9UEu/Cv+WV/vi6bgOrKb/ywxZyOLwZjqVKTu38s45YXEdK+JWnzh/BLWNnkE8sbwuR1uQQ2zWP1l99yslhMG8y3O+U0DTLj4NShrCpoSZvAJBaOmsrJoiz2fjuSPSbBOF/bRViGRujUCZbP3YW2qVdXMH9bDOZWlhibWGNna0GBtv58mj7TlNQq9YtkG6jDUN/vEY0GdakCE1PV/fdryxVhmTXF3MKM1L1z2HixQF+JQE5N+5fvXYrDWDpuLFvz/LE5OZZBYzegauRA+PfTOFiQzf7vRrPXqgPtvY7y/fTNNexXLMyzr6euJs/XnvCpvZiwvYSGdqH8+NMOCmqr15B984S2jBrDbnkIgY75NcchdQszJm7GNMiN6wePkKGdtPdj31s4kybrAHNH9GfiDlcGftgZM+E0307v06N1MA5Re7ne+D36PNeKdu/2xuXcYUKF1ahJr/+jbeeh9G3rbPgxYrkdDZ8OJP0MvDrsTX1iLSh8aPtmH9p2a4ePy7O8/konurTyJD2xIr6a3DkE/8y1LNyThqUTnD8cRdBbA3jm8S706+HOhZPRFfdNigA69OtL67bv0sHxIhdThUkkF9Le7sPTDZI5cq0Zb7zdgZAXhtDNNZLw6+eIjG9Bzzc68eKAgTzraGioLPAJ8sXWJZjWj3twvbb6iyNr1hFbfvQ+0JB17AdGD/uUXc4jGNzOvA76JRRh24Sn/FM4z9t89Iq7PlXoxvnq9j9GXKVuKDxf5PWenXjpGX9cnn6H7u1e5Wm3FBLTznA8MpWUo3+wbH8MOXFXqtnPVMyN5/Pv8nK7XrT2defJN9+k7UttcU2LJ/1s7fXWsG9aKXK/HvTp2VZwpos1xiHsiLDzadKX19q9zLv9OuJocNLehX0FDI6k3K4dA39YyI/fjeUFT/FCJit/zb1MuFKV5unjLORkojS3xc5Ug1IpphShLNCvF0ZGqIu0T++TqxTT1NxcMY2wx0fzZkCVzY9wqrAqiacUZpNfXO1nL/Hx5UodLdUGf9Aht+vIiLlz6WO8hG9+j9DFbtAFICA3Kw9zG9uKrKUFFOQLXS/NIiffAkszoT9lj1MLy4WpJpc8feyCbKUFNrZiPIM8dN3KpUDbLmOMNEXaFbEoJw8xSSxf1yR97Ihb1W+oDmtZ7X2/I+TYtRnB9J8XMXXYS7qgMHXQL9TXWP3TYUI+7o9/JXMZsr/QDYPokvUxO0rNMLNpwatfzGTClKUsXziimv1Oac/WIebRF6odYCG/2W3qrWFfoQS5TD/Ba46Drb0Zmvw8bXlFefm6Pt+XfYV5rP9bCTlyI/GJ/EpoYyPoUoybvUHn+aMZMyEU2/go/PvN4SkHJYumDGLSUVsyrxvhJ5xq0vRpLOZ/xcQ4R/JijPDVhLFy6WnS/b5jzPVn+WHKQG15wuaPJo9ZsvDb4cQ75BBrFKBNLY/zILZHIdc2WmxDmVOLlETM5pv1KVhm5+Pa3pPgxj35c7LQjlP2JF4LpO93rhX90CSx9z9DSHFMJ9p7ADPsIaKsDpPH6N71F6aN/Ixw21huBAxkqlszEp5NEtKGE2oj5DFqJJzXgpYWv/D9+JvY595AIXRU4dwQl+sLmTHPjPd79EQpjoOh+g3V4WxOnoG+3xXChFGIcRUqUT5299Gvkoj5LL+Qiu8vH3D96WFM7BeiLduQ/Z3KqxfsJLRF+1FogDaOg5gm/tu0Jd065zL9i7Fc8NWQ7fwao5uHVbKfiy6PtuHC1BX6oMsupskwFetdcKt6Barb107DybK2GBqHVk4o/xTKG78f64wrKPyFM+/HvgL3qIAoJCM+CbWdN86Wuu/MVDlJZOCES8VdoS6tVEgTbnprR0VuSiqlDu6VbirvBA35qTFkyl1wd7TQdawojYQUNbYeruibJpDPts/fIfGDX+lmAfYeToIL16QoI4ZUtQPuzlb6bwLFdqWBgxvWZe1SZZOSXoqDa8XNpyonnuQiOzydLW9RfwWG66i97/ergLjXft2amva/U8S2JOWb4+LhjLncgP1q5Vb13qN9xT5nCMPgYlvR5/uw7/+InKiIk79+S1qvr+jqenuT1TckOdHtqB/2lbR5DwGSMz0cPHzLtIREPUVyJgmJOkJyJgmJOuKRdqbcPWMZu+RKlR/WJB4ycrcyfdQ8bjwERqypzatPKKPYt3w+uy+qcW/si3VhNW2XUVy5/upUjoz0lFI83G2QF1zhRGQOvv7e2Lr64+1QQvSBv1i9M5J8pyB87NTE1aahq2fUps17INyVxrC6frKAm4eWs3brUdJsAmngZEximUbyZBbmaUmUeHphLc/nRmgYeV6N8LD3wNfHCdWNXaxdtYnz+S4E+NqjuaVW78FQj69MKq4uGs82s+50CLJCramp7dJqwfT6q8bOiez4cS5nioXF7OBPLDiRR3HEfObvSyJ95xi+3qKgWQs7Ys5dI/M2GiuJ2rg7jWEN/eTe8UzbY80zHXw4Of0r9mRX0kg2cSNh+xSWRYpG3M2CeYfJF2y8Yu52UtI3MW3cGuTNn8DmZiQxGbVp9R4M9diZ5Dg3CyRz62z2ZVjjxLka2i7tWWX6q4AXedE/gt2nUwk9kMYTXZpqjwsex+UT0QT16kvr1q/xdvdALt9GYyVRC3epMayun7wcepL05P2sWLyThOyb3EhSCSfptYRBgbTu1Ijzu06ScXQXmU/3pKH+alNy6QixTfrSs01bXur3Gg0u30ar9wCo185k23YSc34YgPGaz/njnLyGtkukQn9lyZNdmnB5wyz25jxHpwZlP0/LMDFRodRqqnSfb6exkqiNu9MYVtdPmpjZ0uS1b5gweRY/r9nAoCDBW8q1hGD+9Cs0vLSCP3Zn82TnhnrFhoCxCWq9Nk/kbjSC/xT12JmKiVwwjKnz13K2wAMft8e12q5lX4zl5x/GMGXRCeGcSlowAfMnexIUsZKs1i/jJVpBq+sypWnXTqTMG8ikiR8wWjBo4Ms9US4axKSpHzP5YCBvdq2qsZKoBa3OLZclIz9j+tgRHA4YQGdnc62+ct+3w/l6ylpijSp0NqJ+8uvJv7D9TD6ufp407fEyeYs/YvrMSUyb+Bvijq5Chylg3oZOQSfYnNmWTt5aI2ptbNrsVdqm/MSY8SP5YsRMzge9QWflb4yZMJbxE3bj37dnVa3eA6B+KyA0eaTFpyN38sbBXDdSVbVd2qQ7QhU3j7G/2DJm6hs4iPluo6GrT9RHBcSdawxvoZ9MVGLmWmHXO0J1k+WjvsN63M901xrx3jWCfwd30ZMHgNwKJ2/fKgNu6uCDr9fdORLqmxxcfxbLIB/EJy+0mDrh4V3/Ham+ItrBq9yRRIywdjEk1pVj4eyHZ2Uhqzj2flXtenvUxO9fzkXLYDxNy/KZ4eDpVy8cSUTS5j0ESNq8h4O7WRokJCRqQXImiXpPXYXi+ruRnOlRpjYpTi3HHmT4MkMSsNpCcd0/GjJOLGXX1fvvbf2WE0louWc5kZEZVraiFMeeVDF0WtYZdqzbT6ZDMH5OVrpjngWcD48l+8J61h9JwyHQgYRtMyqFt7Ik6Vbyn/ASXJTRtYQVk9Uesq00lsiIGNLPrGH94SRsGwXhYm2ll4AZ1QjF1T04m31rl7D96GU07k3xsuE2IeGU1aRLZmgSjhMRn8mlbcs4muFEI/tYdsyezLobZti5+OJnEV8tHNmd/3glXZkeZcqkOGpRsjOMaesz8PG5yfypf1YcKxDDc41hY6Y/PnGzmL4ysWp4q9rkP0G2twkrpqv3liHbRDnY6BFszAumiXIhE34+ilIvAVNn1wzFVRR7A6V3e54PuMTs6avJoPbya0qXhCrFcGJTlpPl24CEuWNZk2yKlYUxJlb22Jrn15Ss3QWSM/2voPDh+bfepm2HLjRVJ+oTdSg8O/HGay/S/oUQNCnCxKwU3iqmVvmPR8W/DYUVE2VGtwnZpvDtTt9e7Xi2T3ccok6Tpv9uueTKiRqhuEy9vVGcW8uGA1fJyUonT9wL3rL8VMPSJRR4tutPz+e78nwzNSl5vgR62eMc1J4Qt+sGJWt3iuRM/3PIkcsqwqVVQSZDpinVSqvKwlvdTv5T8W/DMqNybhGyrbQwH22EruxsCiysMNOfIzOtHoqrhPPzx7PPdRAjv3gLsRlVqFF+qeG2V0KMnqQpFTOVCndOIqYGJWt3iuRMjzQVcqvKodPEtIpjFedoQ3KJocPKw1vtx7lb7fKfqmHFqsuMxPIq6jUUsk2TsoWfRg/jq8k78Xq5E7baNsgxCnqJNim/MGb8cKZtuIJCYYSDtxPph+Yx54ctxJsr9GXdqnxTg9Il8WRdODExrp6QV1gMnBu4c2PFlyw46mpAsnbnSD/aPgQ8iB9ta4S3ukP5T02ZUS0UrOWLj2L594zXMccRD4eKeOZaaoTiUqNMTUVt64aNiTbh9txR21XkJsZTZOuLk4WuD/ciWZOc6SHgkVVAFB9h7k8p9PysFy53MWnrK5IzPQRIcqKHg0dgPZCQqB/INBqNdGWSkKgDZMmpSsmZ6jlGRnKsLY3JzH7QUQ4kakPa5klI1BGSM0lI1BGSM0lI1BGPpjPlRXPuUhJFylhuavVYdYgmlagLcQ88RtujQy43z14gpUhJ3M3EOn7sQ0Na1Dni/yFjVXUmTTrH//sB//evtxjQryf9Ri7iQsX7mB8Sigmb8x2LV0xkyOAvWHlV1JDUIYX7+M9Xy7mT19HmbB3BkHmX/6aYfBoyQn/ik3+9Tv/+b9DnX5+w7OEzFsUnfmbm4qVMHdyfr1dECdarSwo5+MMY1tyRsTYx9oNfuXIfxlJ8PurL8ueZ8g+NY+jWVsxaMJn/e/0VfMNGM/nyc/RuksL2+b+x6awar+YNsNW7oDr2GKFXrnNgzVE0wf4oDy1m8dpDJNsG0cjFDJkyil1//cGm8GwcAv3JO3WQFAc/HI2SiDh8FXevYk4cu8yNAys4XuqPcfifzN94GrV3S3xti4nev5AFK3YRpfaksZ89RnmX2GqgHVRJ98fdQUNKbAG2wT15o2sgtorCmmXps4KSa3sqtdsuniN747Bp4Irm2n6OZ7jjmLGLxQvXEZ7jSJBvMjvXZfPMG63IPV6tP75WRG39vbwPAa522Lk5kiesvMU+3tjI87lyKJRcT1eyDt5h3wS0r6E0UVBYVMnS+fuZNGQTT/28lHHv9KGb33G+mniRZ15vhcnVTSz4Yx3n1D6E+NrqzlfHVBrr5vjl7Wf5Xys5mmxHYKArZjIlV3cuYNHGk2Q7NqZBXhhHUhzxdTQiJeIA1009KT5zlCvRe1kbWkqw8ckqdRRG72HJ/KXsi1Lh3rgBdkZ5VcbCt8JYVdL9PBzQpMRQaNuc7m/2oKGt0M8aZemziiivsHf5AtYeScI2sAHKk7tJsPHHRXOFQ8czcPMxI7q8HwGUHNtAzrN9eTL3WLX++GAVu7miDwFuWNu74Zh7mkslfnjayMm/sp+wHC+cs/fdUd8qmUxF1KEIPLu/qos5hyXNuz5LbsQJTv86hnUWPekebI26kj2LTsxmyJh1KEKaY7ZvDGO2WvPCS34cHTeaLVnpbB49mLWKJ3nSOYkrsUpOzPue3alCASUXWDFzlVBAKL8P/oxNiscJyp7L+LUWdO/RHCuVmuwdIxm6QElI++Yk/9KfaUfyuGiwHapq6QVE38jF74VuBF6cyITVqQbKqnjILnt7tXbnWZCy+nOm7zrAL18tIrFoC2M+WYn88VY4J18mpnwfUlSjP6qLP1fpQ9GJ3/hpZxrR68czL0xYc3N28NOsgyTtutO+3RpV1AHOeL1CD52xsGzenda5J4nIO8+vX63EvEdPgq0qbZoqjXVT091MGL0J6xd64HN0NF9tziRj03CGrVHw2FMuJEfdJP/EHH7alSJcVUu4uPx71l5REvZ7f77YqKBlUFbVOrK38uWHc8kP6UjTpJl8OPUQedXGoozqY1QQfR2l34t0DjrPt8IVP81AWRXWymL7+OFstXqRrr6HGD9uC+bJK/jy2+0c/nkMyxLMya3Sj1jh+q2jqHp/Lp2p2gdhfObP3EbazTVM+f24cIXMZs+sHziStP2O+1bJmTQUCyufiXGFPFFuZISiFFxDGpO+ZiZb06xxrvKyUAUB3QfzZttA0o8eJzVxL/PnbiM2O5qoG+Ecjm7JW3078FzPAXRvUl0zr0MR8Arv92lPsxZPEZS2ktlbUrF2gci9F2nW/wNeaNWNwa97EHksGmeD7ZDjViXdHD9vBRFrF7L7ahYZ6WkGyrqu33oVce5AtXYnOtPzy9eJGdmf8BfG0T3tENHN/4++7drxyjs9uUU3tMjdhEWhvA9lDbSkXY8gIjYL9ezbRvqzPSjYf6d9uzWaoiLUxiYVBpQbYSQYq1TuTkhQGut+2UiqdVnwfB1lY90w4xAnUxM4MH8Ou2KziIm6ztnD12n+9v/R7rnXeKdHsGGRqqIR3f/9L9o2D6lSR1HkLi43G8iADm3oMqQPbpGHiXE2NBY1x8jczwd5xEqW7rpCVmYa6eE1y4oum69FZzgYlkLigd+ZtzOGrJgo3F79mldjPmFw+IuM6u3M+Sr9aFLtPqYSMsPjZPl8TxpFrhfGZw8709vStXDPnfdN/1fACL9Gblw5dVq/EohvijiFWbPHcHvxW1bO+wCTJcOYdaryrlaGQi9nNzW3Ezoxgx9nzmHJ3h2MCLbARJWLLiqxGtGBjY3UFIqFF2aTpw+hW/6IgH0XJq5exACThYyaeQpzMYRxjliXhqyMPCzsHHAw2A459pXTQ0P5Zfwm3Ad9x5S+LTAW2lazLDutVN9wu+WkR0ZQ0rwFylPHSRPD8ubqw/KqVXon1FG9P1X7EKY7ScDiuV40PruUn7Zm8dzLgVjecd9ujZFfIK5XwjinX7bVsYeJMGtBcwsHOk7axO/vm7B05AzdQT3lj1qYWmDb4h2+mflfZi49yvqRzYVtpIpcbZvEbgq9NDJGXVggfCogJ68IrbXKnl2SV61DZmZGqX6MNFkZ5FnYY+9geCyqjtFRIoQryjb3oUz+ph/NhIXKUFm2OmOJBzG3C+Htb/7Lj7PWsGfDF8Jtfjini1vSTHmCsJTSmv0oo3p/5PaGx8myHS83PsPKWRvJEezW0OLO+1ZpnZXj8trn9PxgFO989ARBRjGcz3yWUT/5Ez57CMuTrchUetLFpdKapX02RPxsQsjrrzL7i38zNrIhmkw3ek8bSK8u0xgz8EP2WSnxG/QrPVpZMnvch8Q4ZnNDWOXEOsVnUMQSik/MZNTyZKwylXh08SKkWW9+GfUeI47ZExvVmH//6sApg+0oJmz2sIp0N1dKHFPYM3cKp2OiMX9aaNub1cty004qg+0e04g1f5kzZO7v5H/9L37KGEvn5PEM+nQ3VvkNGDjDV99mU1pW60/VPgirXdn4WDxHz2Yj6H/5A3Y1MMetRntu1bdbI3d9k09efY/x/QYR0tiIuHMZtBn9K4HqUP772WJSrDLI9+imP1ukYqxNQvrQI3cEH30RTgNNBq69f+C917rxw6h3Gb7Piny/oczs0QbL2aMZHuNE7g0jxDf7i8/+aJ2pWKjj84o6TB5rwSs/f8oHnx3GLuYyQQPnY39yJp9WHgs9VcfIHacSJ1L3zOG709HEmLcW2taXV2ZXLav8nc8mj9O7Rw5jh44g0l9YiFy70/XGAsw/XMjPBV/y/vd7mdevGynl/XifTvo2m7as1h/1cf47bEWlcSobHwva9GzO2PcuMWCPP+ZuQnvusG+SnOghQJITPRyU+byEhMR9IjmThEQdITmThEQdITmTxK3RZHHt3DX9h3qGOpXL4RdJK84k+kZq+e9JDxLJmSgm9Nu3+e64ga+jNSkc+ms1Fyv99vk/RclpFkz4Xf+hfqHc+QtzNi5kwqDBzNqdXC+cqYqc6O9DTezxo0SnhLJq0XYSbJsS5JzP+U3zWbhmF5eKvQn2t0cWe5Rjl6+yb+UhSrwhfNkfrN17gRLP5jSorCnJv8KeRb+xYvd5ilyb4u9grD9goB5XY+JCDxN1fTerjqhpHZBfLa8JJhYOuPj540YUuxbPY83heKwCG2NyaRkzpizkirEdrr6NsI7fyV9/LGH3xULcGjekvNq/GYNyor8RTWYEa36fz4GUIpJPZ9ClT0cyz67nr4Ur2XuxGM/gAOwKz7F53lw2hBfgGdIQu/JlOZ9ru+czf/kOLha60zjAEXnsMY5HJxO2cj67421pHOSGWf7lSmPdFDeTWI4fu8j1fUs5KhhfdmpxlblhlHOWLQv+YOOpHJybBOLm54VxzDVyrZrSvlt7GorGUFYr0zyPC5t+488NJyn0fBz/ikb+LfxDV6YiIuYPYtTyQh5vVcqK4RM5nBNDTHFTXur5ODd/GMXKFA1F4b/zydiNmD/9BI7JMRQ16cErITf4YdwShMN6Mtk+9gOWqJ6h85O5LPhoHAeV+kOG6ikU0hYMYuwWM55+zMJA3hIur/4P666ms2P85+y0f4kegSeZPHYdpjYO2JiZ4+DminXBNr78ZCGq1t14Mm8uH0/aR3m1jxQZbPlyGLtsWuMft5sjyeLAFxMXW0Tjl14j5Oa3jF8Rz8XfvmKjVU96PuEkKrrKydo+kk+WqGjV5WnyFgxksmCcovDf+GTkYoqeaEPpiqFMO5xcbazXCKY7KdhjJFvN2hDimFx1biSlsnHMMLZaPMezbrGcvZ5qwI5ZNcpUXZzN5I1WdH/1KRxK//7txT+3zZP70/X9f/Fs+wF0d7vEmTQvvEuPsnjuWs5nZJKeJf7cpcCv67957dlg/AK8KQ39k3kbzpKZlYb2sEhRBPsvB9PvvfY80WEwr7pHEnqj0kBVrydBWM3FtPf68Ix/8q3zlpzlwIkEYnb/l183XiUj7jKWfk3xtnWjSdtWuF/ZTVST93i37VO88O/euJ05QvSjuP0rvkBYTAte79uRLoOG0MlNnCImeHuVcnzxHDacyyAzPRe3kCakr53JpkRznMrD3RVxet9Fmvb7N22f6MT7r3pw5tg1Yb8g2PWlD3jz2Y78X3d3ok7tY3+1sRZR+HXn3d5taeLXsOrcSDvNkZgQ+vR5njY9B/Na4NmadrwcUcN+Rlrp0ipmb0zA3LlaTL6/gX/OmUrzUYrBodXpZOZZYHZjFuO2eTF0+iz+r2UlfZNcjMpZTMTPo9juOZxvZwygZeWAgzJzzISthHBBEfYj2WQqrbCrLLGuVo+VpTbGp3arVHteM8xtQ+g3/Td+mr2OvZvGCecLeUo1WimNTLhCka/UyUqyM1Fa2mPzz43eP4fcDNPSPPLEhaIkD6Uo+yo+xS/jNuP50Y98985jiNay7ziVFfMGY778Y74vv9+UYS7M2Xyl+FlDdqYSS610q1RIyxOcSk1GZh7mVnY1x1pEVIwIQ14c8WPVuSEzw0ydQ444+CKG7GhnUbNM+858vWoR75svZuSMY7q8fyP/oDOlsG3SOwz9YAhbvfvStaE/Tik7+GP6l2y4YYpCaIlcJk56sUkKnPycSdk9h+8mruGGqaKioSZP8Oarufz67w8Z/eEHbA8YxKuelbpRrZ4uzka6MLjiKbXlNQ6h9yt5zB0ynCkThzNyzlGhGW40cr/En198x16Xt+iZ9xMDP/2Ujz7eTMCA3lSu9pHBqAXdOyYzZ9BQho/8iyhRDqVwxs8pmd1zpzBpwzVMFGrC/vsho35awck8bxq5lcmfTAjp8zp5c95h+Kh/M2xbQ/q/6iXYTkPq1q/44MP3+HSLD2/06MDr1cda8KIy7aDCqUHVuWH6OK92TuSn9z/ks4H9+M/JZjXt6PdEDfsVh81i+Oc/sPZkHl6N3HVN/Bv5h+RE+Wwc8iZXP1pAH2tw9HEWVhbh4pGXSGqJI272hmLdqslLSqHEwR1DhwvTbpKkcsDbzVqrN9NhuJ7qVM2rZOuwPpwdsJ7RLY0oyrhJXI4Z7j6uWIiWVWURH1+Ina8blhSSFpOI2sEHV6vb6+fqin9eTqQiW7hPwckd27LvfdS5JKeWYO/mILiMgCaPlJg0ZC4+OGsHqhKFqcQkqXDwdkccpvwN7/Pu1U+Z85aNYBTf8m1hjbGuRM25oSJm/ntMt/wPP/dx0TqdoTlQtUwNyuSbpMld8Xau9ILqv4m/u3w9wpWmYTPh/sMRz0oTXGHlfgtHElFg5WbYkUTMnHzxq+JIIobrqU5FXjXXVn7JKkVvXtE/W2Hq4EuAXyXjGtnhqXUkETOcfBr8o470YDDCVhj7ckcSUVjjWuZIInIrXPz8ajqSiJkzPn46RxJRODWiqY8dDp4VjiRSY6wrUX1uqG9uYdkpCwK9TMsnraE5ULVMOZauDfD9BxxJRBK6PgRIQteHg3/CYSUk/ieQnElCoo6QnElCoo6QnElCoo6QnElCoo6Q5Wl/4paoz4jqDRNj+T8mdJW4N2TxSbmSM9VzxK/G7WxMScsQo+tI1Fek13A+BEiv4Xw4kO6ZJCTqCMmZJCTqCMmZ6priaMIOnX9EHxyshyhvcvlqMsX5ccSn3u0DZnnEX7xEWrGSxLjkys843hN1d8+kySBi0df8eSIHY3kBxc49+XjU2zQy1x9/SNFkHGFTmBPduwRVDn97C9TcWDyc5c5jGd2lLGrs/XPv90wask79xn/mHyZP/Daw2I0un06kZ6CF/vjDTjGR/x3FtoJS0m8oafh/PzG41Z33rSTie6Zuyac07Sr5jQYxcehz3M90VQwe+nmdxIAoOD6JL/c8ycSZX9G7Rze8Iscz81obuoXYl0+qgug9bFy1jlNptvj7u2CUeJyI+EwubVvG0Qwngho4CBNWSfSBv1i9M5xcu0D8HEq4eWg5a7ceJc0mkAb2qZw+dYXYY2uI0DTGKi6cGzEH2Bauwp9w1q9ZR+g1DW6BvlgTS2R4DBnn1rMlUoWnWxoHlizjtMqPIE9r5PnXOLLuL7aHpWDt3whHozjh/FiyL6xn/ZE0HAIdSNg2g1mrr2Jq74aXRz7haxaw+UgUatfGeFWRVYv928ees9lYOPjQUOifaVmM7PvE2EiOrbUJ6VkV74O4IwoOMXP0NlpOmc8nb/Smg3cY338fxeM9nsL4xlZWLtvEJY0XwV5lr50RxisihvQza1h/OAnbRkHYph0n/Ho0oVtC0QQFUHxyCSs37OO62p0Ab7vb28vJjIJrletScH3PAlbsPIvaozle1sXEHa1WpjKKfcvns/uiGvfGgh21E0hNQvhxErLOsGPdfjIdgvGzN8bCRkN6QgE2QT3o8UJDrBWFNcvTdk4kr2rdrvaCI8VRaNOUjq90xc9GQVHsftYvX8HRa2pcGvlhc/sVtJw6WjxVXA89jVvHl3HX6uEtadyhNcqzkcLaoSdnO99P3orlc13xDPuKGbuyKI6Yy9dTlpPl24CEuWNZFasma+cYvt6ioFlLF9Kux5K5dzzT9ljzTAcfTk7/ij1pYSwdNYbd8hACHUs5vXgw3+6U0zTIhtiYPLye6YL/lWl8vzlNWLiEc8eNZWuePzYnxzJo7AZUjRwI/34aBwuy2f/daPZadaC911G+n75Zf/4YNmb64xM3i+krEzG3ssTYxBo7WzWhU4eyqqAlbQKTWDhqKicri7j1/bPr0BNvff8eNKprh7jo3o2OHrqHFMwbd+UxZTjnlRdZ/N1azDp1J9Ci0uZG7P/oEWzMC6aJciETfj6KUrDR2CmbUAQHY3psLOOW59P0maakzh/CL2GFt7dXetW6VFd+44ct5nR8MRhLlZrc/dXLzOPqovFsM+tOhyAr1OWxP4oEWw9j2voMfHxuMn/qn0JaQQ2b1yyvYgGqXndR7A2U3u15PuASs6evJiNnJ9PH/ElBcHsapc5m7KyjQq13Th05k4aSEjXGwlaiDJlCgby0YgdZfOkgZ9ITCV06l4PxWSRcjxdSFXi260/P57vyfDM1KSn5XDoRTVCvvrRu9Qq9O/lzLfQk6cn7WbF4JwnZN7mRrEbu14M+PdsS6G4i9CCADm/34ekgf7yFSXN+61IOCduh7Mwcbb0Kzxd5vWcnXnrGH5en36F7u1d52i2FxLQzHI9MJeXoHyzbH0NO3BX9+Z1447UXaf9CCJqUXHyCfLF1CaZ1s0xOXmvGG293IOSFIXRzjSS80hvpDPfvwVJaXIza2LjCyHIjFHLxtTNuNA1IZ9v8rWRauegP6lD4dqdvr3Y826c7DlGnSSuV49vpfXq0bkhaaBRBbw3gmce70K+HOxdORnHhdvZKcapSl9w5BP/MtSzck4alE5w/XL3MGByaBZK5dTb7Mqxxqvw8m8KH5996m7YdutBUnSgkmFezeZqB8qKFa5qOqnWbYurtjeLcWjYcuEpOVjqZZ/dyvfF79HmuFe3e7Y3LuWPE3cXv5HXkTEZ4NXAl+sxZvSerSTwZiWnj5uUPk8lMzbFp+jajJs/k6zl7mTckWH9Eh1wmQ1Mq/tKvQql7Dw1qlQYTM1uavPYNEybP4uc1GxjUSIFMLqtoePmbGSL487ttuPzfZEa92szg/Y1u1yXTxiQoLTXDzKYFr34xkwlTlrJ84Qjt0XKE9sg0pdo8pdrV0QxTTS552rgDguGUFthYV+zjbte/B4HCuxHON8K5rF9e1QnHOG/WjMbm9jw3ahXfvW3MukkzdQf1lBbmky9MoNLsbAosrDATxkEhEwdYhpn4KhytbTTkZuVhbmN3e3s1ca5Sl9yuIyPmzqWP8RK++T3CQJn22LWdxJwfBmC85nP+OGMgnqFgfblMMEoNmxtqo63WhiJV6w7l/Pzx7HMdxMgv3iJInDCmppTm6V8fk5OJ0tyWSia+LXexI6wNOU7dhtF51Fd8OlbwfkUcUdltGDIlsPwpSOPg3nTM+4JxU0/jo8nEuftUXhMDaGg9QZi4YpwGmQnNunXh9ykDmXjEigLvQUzo8TJ533zE9PP+aLJdeelT1/JYASLiK1t0YSOc8HJI4ciS77gYF4NZiDgK8opzxbrEAClimvhv05Z065zL9C/GcsFXQ7bza4x7o+J87TmC0yqcG+JyfSEzFr1Ppy65/DbyM8JtY7kRMJCpzmWtMNy/fz1WeVn955E792JA18F8P/RjghsqSLycxRMfzcJffYKFE5aTbplFgWtn/dk6NClb+Gl0Eg6ZV/DqOx9bzVG9jUwIfrknf04exKRT9iReC6Tvd160SOjCvNrsNfIxTk+rqKskYjbfrE/BMjsf1/aeBDeuXqY9ZxYMY2OaFTkFHjzvVPEcbbmt9XataXNDbXTV2V+gat1uOKicSD80jznnY4g3fwqTZm/Q+c/RjJkQim18FP795uBUYeLbUscKCBW5ybFkyRxxd7Ex4KmFZMTHU2DmjrvjrR8lViuTSMwxx83dVldGURoJiUrMXL1xMK+ld+o80tJVwrbMjjuND1mUEUNSvjkuHs7cqmhVTjzJRXZ4Oltqz09VO+DubFXlcWkdd9a/u+V+FRCq3EQSM2XYebhhrTeKRplMQqYcx8r9LljLFx/F8u8ZrwsbKEc8HAw8+C/aIkWNrYcrlvoBuJ29qtalIT81hky5S8UYVS9TI9gxPh25023sLWLI5gbaqKN63WqUqamobd2wKV/3RBsmobbzxrlq5tsiyYkeAv4xOVHxEeb+lELPz3rhUlcrwf8QkjM9BEjavIcDaf2RkKgj7tOZNOTGXCTeoHZGTdqZTWzadZqs8t8K7oTaynzQFBN3fA9RklboH0WTc4OrcXn6T/WX+3SmEs4v+oqVlw18fZm9jhkzDlJqoiFzz1jGLrlS/n1/ZXJrHKulzH+EHPZNHczy6yVknFjKrqsVP2qqry/k951K7KprTnK3Mn3UPG7cxW8SEneO6vxvfL/8vP5T/eXe5ESabC5v/4P1x9MpTo4gp8nrtLGNrpDm+DmTvGcu6y5a0vyZZ3m8kTf2rv54FEbUkA+ZmllhKxzztiuoWaZDLMduJd8xIH1xMKkpJZElVJbDBOOi/9am4MYu1q7axLkcB/x98jlfLlFqSfMGrjjZZnNs7mTW3TDDzsUXP4t4ju0KJ9fCCc+GeulRWR7FUzze0BdfHyc0NeQo1SQsOm3MXXHPcqK65HbSq8YNsTO6nbTImMTwUL38S0Nz65vltlG5w/lNS9h+9DIa96Z42cjIvbiB5esOkVWUyPmc5rz8jJcBuc/9j29dcU815+wex+RdpgS5RHHoRBqlVJPmzNiNhaUZRsaCo1iZo4qYz/x9SRQakA8V649lGijzYG3yHQPSl3QDUhJRslQmh3Es++40axPTxq1B3vxJHFOjSMivJlFaNotDWaZYWRhjYmWPrXm+rn/2L9HZp5L0qCyPdSQr5m4nJbOmHEVZTcLycHIH0qvl0beXFmWLkqAy+ZdzFdtYJ1WT9mRvYcbEzZgGuXH94BEyxK/JDMh96tP43oMzFXNFuCI06fV/tO08lL5tnZGVnK8mzYnFO9APW2dRhlNZPV1dPlTW+RKu1ijzDEdqke+IVJW+nCL0UE0piUaoXSeHCcZNf1UqvniE2CZ96dnmOTq92YOGwgWvikRJxMKfQC97nIPaE+J23aD0qDyPm85LSy7UlKMkOFaVsDyUFJ+7A+lV7O2lYEnClrlc/uUplFBhGx//atKeSydIEGz0WruXebdfRxxlQjPO1+/xvQdnkmNqqkGpfZ9HEcoC4XIhM61dmmMAnXxI/wGZgTJrl++IVJe+WJvVlJKIZevkMBXITIxR62UjqFXa+7UqEiUtYl2lQkkihvtXI48BOYptFQnLKd15Dx23sa9eenVbaZGo2SmTf2kps01xDWmP3MwMTX6ediyL8vIRw/7I6vn4Vp0/d4QRgR1eELZRg5g0fjSbrxshN9FJc5Z9MZaffxjDlEUnhJLL5DsCWmmOUFXZ33L5UNkxExoZKLN711yWjPyM6WNHcDhgAJ0ryXdEdNKXYXw1eSdeL79Eq5d7olwklDH1YyYfDOTNrq7a+nR1VmDc/DWeT/2ZMV99xujR/+VccSXZkYBOtqLAuYE7N1Z8yYKjrjX7J5xdkUf3b1NRjqL8jTETxjJ+wm78+/bE9vRsvp78C9vP5OPqV1VU+tBgElJr/3XSK50ULO2PgUycMJAv/zxHI1FatPgjps+cxLSJvxFZXDa22lLFD8J/4gcFDt56ac8PW4g3V2AU+BJtUn5hzPjhTNtwBYVQl/EdjG/Rwc9466udd6X2rivu+UdbVU4SGTjhUumBjzuR5tTGrco0KN+5lfTlllKSaqjzSEnIxtzds1xiUxMVuYnxFNn64mRxp/2rLkcxIJ+5S+rLj7Z30v97loIZkvaosknJAAcXfVla6n5864qHVwHxPyR9kRQQDweSnOghQHKmh4NHfE2XkPjnkJxJQqKOeCSdqST2MEcu5aBODWf3hs1cuDtxoITEPfHoOZP6Kmt+XU+erYod307guMYUTbqknZP4+6mzUF/3RHW9l6myis7KPTeM03FpnN28hKOp9jQMcMakRh5ZVZ2dr5xCo2Aay4+wavVZzFu256knG+Nh76HVzqkqn9vA8W/R0tU19UKbJ3FbHuBMqan3qh6KSavd+noZeY1boFzxCf8VHKiGRqyGzu40G//aS6apFaZGxljZWWNaEqbTzqVXOzfjUdXSSTwIHpwzGdB7VQ/FJP4y7vviQHq26cgbnZy5evowodXyGNLZiZj7NMXL1pVGbUJw0f94W3Kp6rk+lx9RLZ3EA+EBXplq6r2qhmISdValFBYo0Yga8hwl5pY2mFfLY0hnd0uMq56reWS1dBIPggd3z6RwwVG5ml8XneDmhV3sumpDG816Jv++j5iYOIxCXud5xX4WrNrJ2fP72RXhRK8PB/IUa6rkeaFjM9JXfsOSkxEc2HYF1+fsOL87l6e6BRK9PRSbl7oTwGX27sil9btdUK2uONfj9R5Yb/2WP4+f59jGMNz/NYJ2WX8ypVIbnkuZSL95Ml7uEFBJ0vLPIt0zPRw8cAVEVb1XVZ1V0ZYPGJ4wnKk9LMHBGwf9rquGRuyOdHZ6apxbf7VeZUgKiIeDei0nKj7xH2an9WVYN/dH8Dv8O0dypocDSZv3ECA508OB7HxUmuRM9RwzUyPcXSy4Eat7GYFE/URWWKSSnKmeo32GUiFDrZZMVX+B/wfCCrIPpP2HUQAAAABJRU5ErkJggg==;" vertex="1" parent="1">
          <mxGeometry x="540" y="170" width="211" height="168" as="geometry" />
        </mxCell>
        <mxCell id="YUUHOxovo0fUq2Ih26qH-44" style="edgeStyle=orthogonalEdgeStyle;curved=0;rounded=1;sketch=0;orthogonalLoop=1;jettySize=auto;html=1;exitX=0.5;exitY=1;exitDx=0;exitDy=0;entryX=0.75;entryY=0;entryDx=0;entryDy=0;" edge="1" parent="1" source="YUUHOxovo0fUq2Ih26qH-42" target="YUUHOxovo0fUq2Ih26qH-41">
          <mxGeometry relative="1" as="geometry" />
        </mxCell>
        <mxCell id="YUUHOxovo0fUq2Ih26qH-60" value="Se caracteriza por" style="edgeLabel;html=1;align=center;verticalAlign=middle;resizable=0;points=[];" vertex="1" connectable="0" parent="YUUHOxovo0fUq2Ih26qH-44">
          <mxGeometry x="-0.0774" relative="1" as="geometry">
            <mxPoint as="offset" />
          </mxGeometry>
        </mxCell>
        <mxCell id="YUUHOxovo0fUq2Ih26qH-42" value="Operação" style="rounded=1;whiteSpace=wrap;html=1;" vertex="1" parent="1">
          <mxGeometry x="780" y="30" width="120" height="60" as="geometry" />
        </mxCell>
        <mxCell id="YUUHOxovo0fUq2Ih26qH-47" value="&amp;nbsp;Conjunto de&amp;nbsp;" style="edgeStyle=orthogonalEdgeStyle;curved=0;rounded=1;sketch=0;orthogonalLoop=1;jettySize=auto;html=1;exitX=0;exitY=0.5;exitDx=0;exitDy=0;entryX=1;entryY=1;entryDx=0;entryDy=0;" edge="1" parent="1" source="YUUHOxovo0fUq2Ih26qH-45" target="YUUHOxovo0fUq2Ih26qH-12">
          <mxGeometry relative="1" as="geometry" />
        </mxCell>
        <mxCell id="YUUHOxovo0fUq2Ih26qH-45" value="Programa" style="rounded=1;whiteSpace=wrap;html=1;" vertex="1" parent="1">
          <mxGeometry x="780" y="360" width="120" height="60" as="geometry" />
        </mxCell>
        <mxCell id="YUUHOxovo0fUq2Ih26qH-48" value="Empreendimento&amp;nbsp; único, com início e fim determinados" style="rounded=1;whiteSpace=wrap;html=1;" vertex="1" parent="1">
          <mxGeometry x="70" y="150" width="120" height="60" as="geometry" />
        </mxCell>
        <mxCell id="YUUHOxovo0fUq2Ih26qH-57" value="É um" style="edgeStyle=orthogonalEdgeStyle;curved=0;rounded=1;sketch=0;orthogonalLoop=1;jettySize=auto;html=1;exitX=1;exitY=0.5;exitDx=0;exitDy=0;" edge="1" parent="1" source="YUUHOxovo0fUq2Ih26qH-50" target="YUUHOxovo0fUq2Ih26qH-56">
          <mxGeometry relative="1" as="geometry" />
        </mxCell>
        <mxCell id="YUUHOxovo0fUq2Ih26qH-58" value="Por meio de" style="edgeStyle=orthogonalEdgeStyle;curved=0;rounded=1;sketch=0;orthogonalLoop=1;jettySize=auto;html=1;exitX=0.5;exitY=1;exitDx=0;exitDy=0;entryX=0.5;entryY=0;entryDx=0;entryDy=0;" edge="1" parent="1" source="YUUHOxovo0fUq2Ih26qH-50" target="YUUHOxovo0fUq2Ih26qH-51">
          <mxGeometry relative="1" as="geometry" />
        </mxCell>
        <mxCell id="YUUHOxovo0fUq2Ih26qH-50" value="Gerenciamento de projetos" style="rounded=1;whiteSpace=wrap;html=1;" vertex="1" parent="1">
          <mxGeometry x="-50" y="-20" width="120" height="60" as="geometry" />
        </mxCell>
        <mxCell id="YUUHOxovo0fUq2Ih26qH-51" value="Etapas" style="swimlane;fontStyle=0;childLayout=stackLayout;horizontal=1;startSize=30;horizontalStack=0;resizeParent=1;resizeParentMax=0;resizeLast=0;collapsible=1;marginBottom=0;rounded=0;sketch=0;" vertex="1" parent="1">
          <mxGeometry x="-160" y="140" width="140" height="150" as="geometry" />
        </mxCell>
        <mxCell id="YUUHOxovo0fUq2Ih26qH-52" value="Planejamento" style="text;strokeColor=none;fillColor=none;align=left;verticalAlign=middle;spacingLeft=4;spacingRight=4;overflow=hidden;points=[[0,0.5],[1,0.5]];portConstraint=eastwest;rotatable=0;rounded=0;sketch=0;" vertex="1" parent="YUUHOxovo0fUq2Ih26qH-51">
          <mxGeometry y="30" width="140" height="30" as="geometry" />
        </mxCell>
        <mxCell id="YUUHOxovo0fUq2Ih26qH-53" value="Execução" style="text;strokeColor=none;fillColor=none;align=left;verticalAlign=middle;spacingLeft=4;spacingRight=4;overflow=hidden;points=[[0,0.5],[1,0.5]];portConstraint=eastwest;rotatable=0;rounded=0;sketch=0;" vertex="1" parent="YUUHOxovo0fUq2Ih26qH-51">
          <mxGeometry y="60" width="140" height="30" as="geometry" />
        </mxCell>
        <mxCell id="YUUHOxovo0fUq2Ih26qH-54" value="Monitoração" style="text;strokeColor=none;fillColor=none;align=left;verticalAlign=middle;spacingLeft=4;spacingRight=4;overflow=hidden;points=[[0,0.5],[1,0.5]];portConstraint=eastwest;rotatable=0;rounded=0;sketch=0;" vertex="1" parent="YUUHOxovo0fUq2Ih26qH-51">
          <mxGeometry y="90" width="140" height="30" as="geometry" />
        </mxCell>
        <mxCell id="YUUHOxovo0fUq2Ih26qH-55" value="Controle de resultados" style="text;strokeColor=none;fillColor=none;align=left;verticalAlign=middle;spacingLeft=4;spacingRight=4;overflow=hidden;points=[[0,0.5],[1,0.5]];portConstraint=eastwest;rotatable=0;rounded=0;sketch=0;" vertex="1" parent="YUUHOxovo0fUq2Ih26qH-51">
          <mxGeometry y="120" width="140" height="30" as="geometry" />
        </mxCell>
        <mxCell id="YUUHOxovo0fUq2Ih26qH-56" value="Método de atender os requisitos do cliente" style="rounded=1;whiteSpace=wrap;html=1;" vertex="1" parent="1">
          <mxGeometry x="180" y="-90" width="130" height="60" as="geometry" />
        </mxCell>
        <mxCell id="YUUHOxovo0fUq2Ih26qH-77" style="edgeStyle=orthogonalEdgeStyle;curved=0;rounded=1;sketch=0;orthogonalLoop=1;jettySize=auto;html=1;exitX=0.5;exitY=0;exitDx=0;exitDy=0;" edge="1" parent="1" source="YUUHOxovo0fUq2Ih26qH-68" target="YUUHOxovo0fUq2Ih26qH-12">
          <mxGeometry relative="1" as="geometry" />
        </mxCell>
        <mxCell id="YUUHOxovo0fUq2Ih26qH-78" value="Envolvidos num" style="edgeLabel;html=1;align=center;verticalAlign=middle;resizable=0;points=[];" vertex="1" connectable="0" parent="YUUHOxovo0fUq2Ih26qH-77">
          <mxGeometry x="0.259" y="1" relative="1" as="geometry">
            <mxPoint as="offset" />
          </mxGeometry>
        </mxCell>
        <mxCell id="YUUHOxovo0fUq2Ih26qH-68" value="Envolvidos" style="swimlane;fontStyle=0;childLayout=stackLayout;horizontal=1;startSize=30;horizontalStack=0;resizeParent=1;resizeParentMax=0;resizeLast=0;collapsible=1;marginBottom=0;rounded=0;sketch=0;" vertex="1" parent="1">
          <mxGeometry x="575.5" y="-60" width="140" height="180" as="geometry" />
        </mxCell>
        <mxCell id="YUUHOxovo0fUq2Ih26qH-70" value="Organização" style="text;strokeColor=none;fillColor=none;align=left;verticalAlign=middle;spacingLeft=4;spacingRight=4;overflow=hidden;points=[[0,0.5],[1,0.5]];portConstraint=eastwest;rotatable=0;rounded=0;sketch=0;" vertex="1" parent="YUUHOxovo0fUq2Ih26qH-68">
          <mxGeometry y="30" width="140" height="30" as="geometry" />
        </mxCell>
        <mxCell id="YUUHOxovo0fUq2Ih26qH-71" value="Patrocinador" style="text;strokeColor=none;fillColor=none;align=left;verticalAlign=middle;spacingLeft=4;spacingRight=4;overflow=hidden;points=[[0,0.5],[1,0.5]];portConstraint=eastwest;rotatable=0;rounded=0;sketch=0;" vertex="1" parent="YUUHOxovo0fUq2Ih26qH-68">
          <mxGeometry y="60" width="140" height="30" as="geometry" />
        </mxCell>
        <mxCell id="YUUHOxovo0fUq2Ih26qH-72" value="Cliente" style="text;strokeColor=none;fillColor=none;align=left;verticalAlign=middle;spacingLeft=4;spacingRight=4;overflow=hidden;points=[[0,0.5],[1,0.5]];portConstraint=eastwest;rotatable=0;rounded=0;sketch=0;" vertex="1" parent="YUUHOxovo0fUq2Ih26qH-68">
          <mxGeometry y="90" width="140" height="30" as="geometry" />
        </mxCell>
        <mxCell id="YUUHOxovo0fUq2Ih26qH-73" value="Gerente funcional" style="text;strokeColor=none;fillColor=none;align=left;verticalAlign=middle;spacingLeft=4;spacingRight=4;overflow=hidden;points=[[0,0.5],[1,0.5]];portConstraint=eastwest;rotatable=0;rounded=0;sketch=0;" vertex="1" parent="YUUHOxovo0fUq2Ih26qH-68">
          <mxGeometry y="120" width="140" height="30" as="geometry" />
        </mxCell>
        <mxCell id="YUUHOxovo0fUq2Ih26qH-74" value="Gerente do projeto" style="text;strokeColor=none;fillColor=none;align=left;verticalAlign=middle;spacingLeft=4;spacingRight=4;overflow=hidden;points=[[0,0.5],[1,0.5]];portConstraint=eastwest;rotatable=0;rounded=0;sketch=0;" vertex="1" parent="YUUHOxovo0fUq2Ih26qH-68">
          <mxGeometry y="150" width="140" height="30" as="geometry" />
        </mxCell>
        <mxCell id="YUUHOxovo0fUq2Ih26qH-83" style="edgeStyle=orthogonalEdgeStyle;curved=0;rounded=1;sketch=0;orthogonalLoop=1;jettySize=auto;html=1;exitX=1.013;exitY=0.071;exitDx=0;exitDy=0;entryX=0;entryY=0.5;entryDx=0;entryDy=0;exitPerimeter=0;" edge="1" parent="1" source="YUUHOxovo0fUq2Ih26qH-79" target="YUUHOxovo0fUq2Ih26qH-12">
          <mxGeometry relative="1" as="geometry" />
        </mxCell>
        <mxCell id="YUUHOxovo0fUq2Ih26qH-84" value="Elementos básicos de um" style="edgeLabel;html=1;align=center;verticalAlign=middle;resizable=0;points=[];" vertex="1" connectable="0" parent="YUUHOxovo0fUq2Ih26qH-83">
          <mxGeometry x="0.0481" y="-1" relative="1" as="geometry">
            <mxPoint as="offset" />
          </mxGeometry>
        </mxCell>
        <mxCell id="YUUHOxovo0fUq2Ih26qH-79" value="Elementos básicos" style="swimlane;fontStyle=0;childLayout=stackLayout;horizontal=1;startSize=30;horizontalStack=0;resizeParent=1;resizeParentMax=0;resizeLast=0;collapsible=1;marginBottom=0;rounded=0;sketch=0;" vertex="1" parent="1">
          <mxGeometry x="-20" y="450" width="140" height="120" as="geometry" />
        </mxCell>
        <mxCell id="YUUHOxovo0fUq2Ih26qH-80" value="Missão" style="text;strokeColor=none;fillColor=none;align=left;verticalAlign=middle;spacingLeft=4;spacingRight=4;overflow=hidden;points=[[0,0.5],[1,0.5]];portConstraint=eastwest;rotatable=0;rounded=0;sketch=0;" vertex="1" parent="YUUHOxovo0fUq2Ih26qH-79">
          <mxGeometry y="30" width="140" height="30" as="geometry" />
        </mxCell>
        <mxCell id="YUUHOxovo0fUq2Ih26qH-81" value="Visão" style="text;strokeColor=none;fillColor=none;align=left;verticalAlign=middle;spacingLeft=4;spacingRight=4;overflow=hidden;points=[[0,0.5],[1,0.5]];portConstraint=eastwest;rotatable=0;rounded=0;sketch=0;" vertex="1" parent="YUUHOxovo0fUq2Ih26qH-79">
          <mxGeometry y="60" width="140" height="30" as="geometry" />
        </mxCell>
        <mxCell id="YUUHOxovo0fUq2Ih26qH-82" value="Valores" style="text;strokeColor=none;fillColor=none;align=left;verticalAlign=middle;spacingLeft=4;spacingRight=4;overflow=hidden;points=[[0,0.5],[1,0.5]];portConstraint=eastwest;rotatable=0;rounded=0;sketch=0;" vertex="1" parent="YUUHOxovo0fUq2Ih26qH-79">
          <mxGeometry y="90" width="140" height="30" as="geometry" />
        </mxCell>
        <mxCell id="YUUHOxovo0fUq2Ih26qH-87" style="edgeStyle=orthogonalEdgeStyle;curved=0;rounded=1;sketch=0;orthogonalLoop=1;jettySize=auto;html=1;exitX=1;exitY=0.5;exitDx=0;exitDy=0;" edge="1" parent="1" source="YUUHOxovo0fUq2Ih26qH-85" target="YUUHOxovo0fUq2Ih26qH-86">
          <mxGeometry relative="1" as="geometry" />
        </mxCell>
        <mxCell id="YUUHOxovo0fUq2Ih26qH-88" value="Definição de" style="edgeLabel;html=1;align=center;verticalAlign=middle;resizable=0;points=[];" vertex="1" connectable="0" parent="YUUHOxovo0fUq2Ih26qH-87">
          <mxGeometry x="-0.119" y="1" relative="1" as="geometry">
            <mxPoint as="offset" />
          </mxGeometry>
        </mxCell>
        <mxCell id="YUUHOxovo0fUq2Ih26qH-85" value="Modelo de Negócios" style="rounded=1;whiteSpace=wrap;html=1;" vertex="1" parent="1">
          <mxGeometry x="570" y="-230" width="120" height="60" as="geometry" />
        </mxCell>
        <mxCell id="YUUHOxovo0fUq2Ih26qH-86" value="Quem é o cliente, qual o problema dele, como o produto atende esse problema e como se ganha dinheiro com isso" style="rounded=1;whiteSpace=wrap;html=1;" vertex="1" parent="1">
          <mxGeometry x="830" y="-260" width="160" height="120" as="geometry" />
        </mxCell>
        <mxCell id="YUUHOxovo0fUq2Ih26qH-89" value="" style="shape=image;verticalLabelPosition=bottom;labelBackgroundColor=default;verticalAlign=top;aspect=fixed;imageAspect=0;image=data:image/png,iVBORw0KGgoAAAANSUhEUgAAAggAAAGWCAYAAAAdeHvNAAAAAXNSR0IArs4c6QAAIABJREFUeF7snQdUVccWhj9AxI4oTbCgKGABe4u99xp7T+waNaZo1Nj7s0WjsffeWyyxxd57V1QQRQWkKCj93rf2xUsQqWqUyMxab+Uld86cmW8OZ/+z9545BlqtVosqioAioAgoAoqAIqAIxCBgoASCeh4UAUVAEVAEFAFFIDYBJRDUM6EIKAKKgCKgCCgC7xBQAkE9FIqAIqAIKAKKgCKgBIJ6BhQBRUARUAQUAUUgcQLKg5A4I1VDEVAEFAFFQBFIdQSUQEh1U64GrAgoAoqAIqAIJE5ACYTEGakaioAioAgoAopAqiOgBEKqm3I1YEVAEVAEFAFFIHECSiAkzkjVUAQUAUVAEVAEUh0BJRBS3ZSrASsCioAioAgoAokTUAIhcUaqhiKgCCgCioAikOoIKIGQ6qZcDVgRUAQUAUVAEUicgBIIiTNSNRQBRUARUAQUgVRHQAmEVDflasCKgCKgCCgCikDiBJRASJyRqqEIKAKKgCKgCKQ6AkogpLopVwNWBBQBRUARUAQSJ6AEQuKMVA1FQBFQBBQBRSDVEVACIdVNuRqwIqAIKAKKgCKQOAElEBJnpGooAoqAIqAIKAKpjoASCKluytWAFQFFQBFQBBSBxAkogZA4I1VDEVAEFAFFQBFIdQSUQEh1U64GrAgoAoqAIqAIJE5ACYTEGakaioAioAgoAopAqiOgBEKqm3I1YEVAEVAEFAFFIHECSiAkzkjVUAQUAUVAEVAEUh0BJRBS3ZSrASsCioAioAgoAokTUAIhcUaqhiKgCCgCioAikOoIKIGQ6qZcDTi1Ehg/fjwbN26kV69euv+poggoAopAQgSUQFDPhyKQCgj07t2befPmkSNHDm7evEnWrFlTwajVEBUBReBDCCiB8CH01LWKwH+AwMiRIxk7diwFCxbkwIEDOpGgiiKgCCgCiRFQAiExQup3ReA/TGDx4sWI96BYsWJs375diYP/8FyqrisCn5qAEgifmri6nyLwiQhcvHiRChUq6MTBzp07MTc3/0R3VrdRBBSBL4GAEgj/sVmMjIxkx44dhIWF0bRpU0xMTP5jI/jvdffOnTusWrWKRo0aUaZMmf/MAG7fvo2rqyt16tQhbdq0KarfM2fORKPR0L9/f4yMjFJU31RnFAFFIIrAFykQxIh+SDE0NMTAwOBDmvjXrg0ICMDMzEzX/r1797C3t3/nXq9fv9b9twwZMnzUfmi1WqRt4ZM+ffqP2nZKbmz27Nn069ePFi1a6HYB/FeKGOCIiAjSpEmjm7NPWYKDg3UCQJ7BuP6WsmXLhr+/P/I8m5qafsquqXspAopAEgl8cQLh1atXODg46FbY71sGDRrEzz///L6X/6vXJSYQLl++zFdffaV7KR87dowSJUp8tP5s3bqVdu3a6VZ8sqq2tbX9aG2n5Ib+iwIhNDQUOzs7QkJCcHZ25ujRo58M8aNHj3QJkSLUJe+hdu3a79xbCYRPNh3qRorAexP44gTCixcvsLCwIDw8/L2hDBw4kOnTp7/39f/mhYkJhJUrV9KpUyddF7Zt20aTJk0+WncmTJjAsGHDdO2J+9rR0fGjtZ2SG/ovCgQJLYhQ1pdz585RqlSpT4L51q1bFCpUSHevBQsW0L17dyUQPgl5dRNF4OMS+OIEguDx8PDQuTfjKhUrVsTT05M//viDevXqxVnHysoqxbrQExMI8vt3332nc+3+73//+6j73e/evcvQoUN1mfDSdmoJM/wXBUKPHj1YuHChLgR1//59Bg8ezKRJkz7u2yOe1oKCgnTPoHgvJk+eTJ48eZRA+CTk1U0UgY9L4IsUCAkhErfrw4cP2bRpE19//fXHpfkJWktMIHyCLqS6W/zXBILE9mXHgohkOfegVq1aOiMtOSspJSFQhRhS3Z+RGvB/kIASCP+xSVMC4dNP2H9NIOzatYuGDRtSrVo1Dh06RIECBXTiQP57/fr1Pz3AOO6oBEKKmAbVCUUgQQJKIMSDR1ZfkmRlbGwcXUMysyX5S7LCM2XKFOeV+kx/fQ6EbEN8H1e8JFnG3I2g36aWFIEgmeuSpJiU1aKMUe4j/5T6EppI6DoZl2TEJ6VtASS8hJsUYSkskpJRL/2ROYjJX9hKEqqMT/57fBny8T3x0p70JebcpEuXLtEdKx8iEKTPcr+k7CSQcUn9mGN+n/eXbMcUMfDgwQNdoqI+3CD5KJKXkpyifz6kbzLnMn8yltgl9k6FuOYv5jVKICRnFlRdReDzEFACIR7u4pKVhEfJyM6cObMuHCEvXTEyYuDkvz179izaUPr6+tK3b1/+/PNPnQHT50DISzVjxoysW7eOmjVrJjrLstKTF7mbm5uuHSnyQpYDb+TlLsYmsW2OlpaWOkMYGBgY7/1EFHTr1k2XZa43TPKSl3vJ+Qqy7z/2S1/O8JdEN/nvwiYuQ6G/oWwHlBP8xKDrt53qhYUYMGk/vutFHOXOnZuXL18iCW8yF9LP9u3b68YvRlTaEoGwbNkyGjdunCBXYfHtt9/qzo/QGy65QOZGhNeaNWto0KBBvG18iECQBL3Vq1eTL18+rl69Gq84kt/Kly+vYys5A5IH8z5FkkclQdDa2ponT57ompB/yo4T4SVMkyLu5PmV+ZN5ivl8yLWxnwv596dPn+r+JqQIbwlxyDxduHBBt6MhdlEC4X1mV12jCHxaAkogxMNbdkLIy9THx4e2bduye/fud2rKi1BWoEuWLNGJA0nKkiIGTV7QegMn/01eonLs7TfffBPvDB88eFAnDsSoSn05AU8M4vXr13XXyEt+7969um1rUuI7B0G8GyIA4kvUlCRO2QopyZpS5GUtBkn+XfosJXv27EhSovymL9IP/b3FiMe10hWj0Lp1a12Oh/x/GYe4uMWwSGa9XvRIoqNsyRQxE7tI23r+sgr+/fffmTFjhq5ayZIldYbu/PnzOkMkfZBkvM6dO8fJVURVmzZtdJ4MKTY2NuTKlQtJpBPBoxcbknT5448/xtnGhwgEeSZkrOL5mTZtGj/88EOc95BwwOHDh3VCVMTV+57DIbtvZBwyByJK9aVcuXKcOXNG98Gmnj17JviWkTmSA6EuXbqkq1ekSBHd8yzz9fz583euFbEm49MLBHn2RBRLuXbtmu762EUJhASnQP2oCKQIAkogxDMNegMlhl9OfZMXtxgRMS7iVbhx44YunisvcjmpTo61HTNmjG4lKnX0L3hvb29dJre8uMVIimdAfo9dZJVXtGhR3QtYVspSX288xXBLH6ZMmaILbYhxk/I+AkEMpRhZ6X/p0qV14kZWnPKSF8Nw5coVZDvjli1b+PXXX3Uf+UmOQGjevDlyXoLwE2MkXpMsWbLomhCDLkZKmIpxFhEiAkD/u/4+MQVC9erVdXF0EU7CRFbiUiQRT/onu1HkoB3597iMqngixNshY5K5EfGmryfib9SoUbo2pA/CU/odu3yIQJC2pH0ZsxhF8RTEPj9COMlqXYywJNB+yKmHZcuWRbY0yjkVIsz0RXYwDBkyRPeMiaFPqIi42LBhg86wr1+/PnrLonhfTp06pRMf4jGQz0fLZ6NFpMUMuSmBkCLe7aoTisAHE1ACIQGBoF8tyUEvshKNL5fg9OnTuj3nMVfbMZsVwygrV1llbd68GTGisYsYQHGBi0H966+/4nRFL126VOcq15f3EQhiEEePHo2Tk5POWMXlBRBDMGvWLJ0xjnmOQmIeBFkB16hRQ2cs5GAeMUZxFTEuEqoQUSQnFMq9YpaYAkH+e58+fRAjHVsAiNiRdqRf4mWQrXWxy99//60TRLFFSMx6cpiUrJbjW+F/qECQewkXETryLMn86osIAumfeG4kPBXXoUJJ/SuX1bqLi4vufAoJNcQsIsTy58+v83iJmIrviG59CEuMvAgN6VvsIqJBvDLidZIwW+yiBEJSZ0zVUwRSNgElEBIRCGLsxBC/b0xY3/xPP/2kM0Dff/99tLtc/5u4uSWvQFa6J0+e1MWi4ysxD0J6H4Ggz2iXuLuETpJTEhIIYlhkBezn55egK11/v/3790cbQzEyMfnGFAhdunTReTnic7nPnz9ft4oV4ychjPcp8j0AERjxJfF9DIEgeQV6IbB27VrdKjymcJBxigD8kCJCau7cuTpvhHgtYhfZ7ijbHkUkyieg4yoiYkTMFC9eXOcVi6uIB0ueV3luZa5iJ50qgfAhs6iuVQRSDgElEBIRCPLClPjwhxa9YZdYuSTWxSwiCiQJUTLOJQSRUEnKLob4chBkFSkH58jvsmJNbpw7IYEg7nqJtYv3QYyhPhQQ31hkFav3uBw5coTKlStHV40pEBI7AVCOk5ZrxUhJvP99dgBMnTpVd7R27NW9vkMfQyBIW3PmzNF5ObJmzarznkjyoiQxSthD8j0+JLQgxlrEnzw/Ej4SD1Hsol/5ixdBxGhc99OPVUJqkkcSX5EkREnMlXmU8cQsSiB86NtCXa8IpAwCSiAkIBBkNSxhBv2ugeROmby09UViuuKW7dChAyIWYhaJpUs8t2PHjqxYseJfEwiSkS73kNMkxbAmtyQkEPTubUlUE+OTFPEhuQMiVCR5M2boJDkCQQSEJNSJQBDDlNSvW8acm99++02XPCgr7H379r2D5WMJBGlYhKAIQskVkDwM2WkiIYcPCS1IuyKyqlatqvNSSAJnXEU8NSLiZG4ktBFXLoz+GdGfoRBXOxIykyREYS6eo9hzrQRCcv+yVH1FIGUSUALhIwoEWT1LjoG4kCW+r98eJreQl6asuOISCHLks+xOGDFihC4/IKHyIR4E+QiVJDq2bNlSl4SW3JKQQJCdBLLfPjniQ5I7xSDHPgY4OQJBttFJHoIYK9n9IavjuIoIAkmeFHEmiZgyV3qRIEZauH4KgSBhoZjJg7LjQOYkKYIqofkScSAiQZJKRXDGV/RJpOK5kO8kxC7ihRHhJs+ueILEqxW76D0RktApSbixixIIyf3LUvUVgZRJQAmEjyQQJEtcdhrok7bkhS9Jjfo957LSkpdvXAJBv6oUL4J86+DfEgji3hY3t3yRUdzbyS0JCQS9mz4+IxvXvcSNLbslZPUu+Rn68jEFgoiAcePG6WLy8c2N3E8SHj+FQJD+yJbDs2fP6oYrSZRi3D+06LcNiidGdm7EVyRPQ+ZezqDw8vKKM7FWdnvItl7Z5SL/lHCCvsguBjknQ4SBPKvyzCqB8KGzp65XBFImASUQPoJAkJW/rNxkf754AMQjILsaYsbD9auuuASCuJclaU++lCjG7N8SCPpEyX/Dg6DfyifGT4xIUoo+aU62IMoWvI8tEMQYDx8+nIkTJ+ri7fL/5ZAmic/HnBsJMcgXPD+FQNAfgyyrdAnFyBZT2foZ38mcSeEouQIyp8kt4rUSL07sIgmK+q2QErKpUqWKLswm221lx454F5o1a6bzlsXl+VAehOTOhKqvCKRMAkogfKBAkFiuuIzlRSkHHYmLPa6SkEAQd++iRYt0uwpkd8G/JRD0YYBKlSrptiEmtyTkQdAnWoqhE3d9Yqf1ySFOYnQkB0FOSYx5GuLH8iDI3Ohd5LIFUwxdXOVTCQTxYMg2ROEjBlh2MgjTD/nSooRK8ubNqzubQ0SO5DYkViS8JJ4b+V7Dzp0736ouO0a6du2q65MkH4oIkC2T4mERUSPCV36PmTMS+35KICQ2A+p3ReC/QUAJhA8UCLI9TrbJiTtW7zZOrkCQ/e+yspUdBhKjTqhI4qQcMCQludscJfYupzPKi152HSQ34z8hgSBnG+TMmVN3eqO4sWXbYUJFXNT6rY2xT9v7WAJB8htkhSzjFW7xfQPiUwgE8WZIgqi49/UeHJk/OZlSxiteF0m2TG4RjnLwkqzqZZeKiIXEiiTeypZUERciovQhCemjCCo5aVOOuI5rJ0RibcvvSiAkhZKqowikfAJKIHygQBC3tYQFZKudJInFVeTFKwlhsl8/rhCD/C75CrJKS2hbnxhfCWXIPvb3EQhyjRzYJMZczg+QpMKEiv4DTvo6CQkE/fn7YhzE4A4YMCDBtmW3hmz5lAOMxGDFFCsfSyAsX74cOV9AjKYYz/iKxNElse/fDDHot7nKzgExwPqiP4NBvlcgQikxz0vsMeiPVpY8luPHjyfpjSPzKqJCchBiHjAlz5ec3inJtPGFH5JyAyUQkkJJ1VEEUj4BJRA+UCDIFj356JEkcsmqPK4ipzBKQp68gOMSCHKNPu4rngQ5UTGuos910P+WXA+CXCciRcSBGCp3d/c4V9XST3Ejy44AOXgnKQJB6khdOaxH4v1yMqHE1+Mqsk9fxiurXolpx145fyyBIGEUCStI+EfOHZBVc+wiIR0REZJE+m8JBElOFe+KGF55FmKeTikMxKsjTOI6IyOhV4je7S//TO5WSf2OFmEvORD6ohe8knsgcyTCVxIg5X8SEpJ/ipchoXMulEBI+S9+1UNFICkElED4QIEgW+tkhSriQPaOS7hAkhWlSBKaxIVlJSsrM1mxyXcWYp+DIHVldS7b9eRl36pVq+hMc/lN3MBisPU5DvqV4vsIBHG1i1tbDKb0W07vEyMgRlSEgRgwyU6Xs/xjn8iX2FHL4gmR45VlJSzGRFblskLWf7VRDL98dEl2fEgcXsYpBjr2qvljCYSYhzHJ6YCSB6IPz4jHQzwo8t/E6Mnc/FsCQb4nIbsVYn9ASf/oSX6EPDsirISdxPmTUuS8AwltSYl9GmVi18vWTtmmKKxFzOmPxZZnQOZNEjsTKuL5kedInpeYuxzkGiUQEqOvflcE/hsElED4QIEgl8uKX17+slIUY1e4cGHdHns5HU8MvngP5LAdWUVKImJcAkHaEWMlq1lpR0IOEgOW6/VfQZRjmuXFrd/r/z4CQe4jBqFFixbRbncxFJKQJuJBVrkiFiRpUMIAMb9hkJhAkLalDRmDPvlNjJ7EuIWHJNKJQRJGsoIV135cWfAfSyBIf0RUybY94SirYvlOgfRFEu/EayD5ACIURBz8GwJB5lq+4Cl5EHF9qEn/+ImQlNCMCEkJh+i/hpjQa0QfnpDERMlhSO5ZCiJI5RyJmN/DECbypU8RH3JGg4QuhJ1+K6gIK8lPkPmVXQ0ihkVMyrOtL0og/Dde/qqXikBiBFKdQBAXuxwAI6vYuD5EowcmK/bHjx/rsr2T8rKWU/HkBS/Z/OI5EGMkKyxJTJPDacToi2tZDK982S++IkZY4spyDr54JWRXgPRT+i0rfTFuYtQk+18S3uL6+qD+Y1DS9/iKrOAl/iyrVzFI4uqWlaC4u+WcBDGWsYvwEGMnYkLETHxJf9JH2ZkgdcQQyzjEeElYQ1aqEpJJiL3EyCUUI2JDcjfkKOL4inhXZBeIcJLsfL23ImZ9cd/LWMWISpsiWmRuxJsjrGT1LVn5sgNFXOyxi2xBledFRJV4VZJaZBzCUkSXGPOYOzVityF5GMJFVvbi1UnoLAP9tVJfxi8HLcm8JbfI56Bl94yEEqQN8R7IvMvx4rLtVLafxlfk+ZPnWZ4fOSFUDgfTF73wEqEgx4pL3kvsIoJaxIZ82jqpp18md3yqviKgCHwYgVQnED4Ml7paEfhyCUhIRjwYIqBkd0Riwlg8CZJnIh4tMfaqKAKKwJdFQAmEL2s+1WgUgfcmICEQ8fBIYqd4BhIr+pCThBckfKSKIqAIfFkElED4suZTjUYReG8CYuQltCEf3JKtsIl5EPTf0kjs+w/v3SF1oSKgCHxWAkogfFb86uaKQMohIHkyktMSFBSkS1SUJFU5vCt2ibmrRnI+JMck9iefU86oVE8UAUXgfQkogfC+5NR1isAXSEBO25Rvg0gOguw2kc9DSwhB8hIkkVX+u5yfIf9fDneSb0sk5fTGLxCVGpIi8MUTUALhi59iNUBFIHkEZIeLbM+ULaKSZyDJi7LVUZIRRSzINl450EvOsYhvJ0vy7qhqKwKKQEokoARCSpwV1SdFQBFQBBQBReAzE1AC4TNPgLq9IqAIKAKKgCKQEgkogZASZ0X1SRFQBBQBRUAR+MwElED4zBOgbq8IKAKKgCKgCKREAkogpMRZUX1SBBQBRUARUAQ+MwElED7zBKjbKwKKgCKgCCgCKZGAEggpcVZUnxQBRUARUAQUgc9MQAmEzzwB6vaKgCKgCCgCikBKJKAEQkqcFdUnRUARUAQUAUXgMxNQAuEzT4C6vSKgCCgCioAikBIJKIGQEmdF9UkRUAQUAUVAEfjMBJRA+MwToG6vCCgCioAioAikRAJKIKTEWVF9UgQUAUVAEVAEPjMBJRA+8wSo2ysCioAioAgoAimRgBIIKXFWVJ8UAUVAEVAEFIHPTEAJhM88Aer2ioAioAgoAopASiSgBEJKnBXVJ0VAEVAEFAFF4DMTUALhM0+Aur0ioAgoAoqAIpASCSiBkBJnRfVJEVAEFAFFQBH4zASUQEjiBLx+7sFNd+94ahtj71IUs7RJbCyBarO6lmOFfwPObxkOaNizZQOWxWtSMq95go37PzjDngvPadm8PsZGBh/ekURb0NC9mj2BVaaybtTXidZOegUt/h63cH+dlaJONhjGuFATGcLlU8e55+FFmszmFC1dHnvrLG83HRnM9fNnuPPwGZFG6bHNW4Tyxe0xfIPE79EtTl+4gX+wFus8DlQs44JJmk/BK+kEVE1FQBFQBFICASUQkjgLh3/vTauxm3W1NZHB+PoFYZbdnDRieQwyMe3gHToWMU5ia/FXm9y2CMt963Nz3/+AAArZ5qH4TxtZPbB2gm0fHl+PJr/d5oHbXbJn+vB+JD4QDe3L5iCw6jR2TO6QePUk1IgMe8XJzdOp234EYXY98b0/jyxvbLcm1I/RzUsx+UQwjvY2vPb24HFYLnafO0a13BmjWg9/wU/NKjHvpDf58uQkTeRr/AJNuHTrImbpDHh0fAnl6/RGa5kHUxMND+8/oNz3K9k9uT0mMZVIEvqqqigCioAi8KUTSLUCQaPRgIEBhgbJXz163ZqOTaHBXPZ8gbNNhneeEWnbwMBQmtcVrUaDRgsGhnHfT37XAoaGhrwtEOJ7/LRodA0m3n+tVoNWI40nVDeqPQMDA93/3i5v7oX035B/fv3IAiHSh97VSrHshiFNCzxnk3f7twTC5e3DKNl2ARefP6VohjSgDaBtsTzczNOPKzvG6bq8pW9p2mzOwKXbf1M4a2yLH0wzZys8nQdzds0wXf1nW7uTp8UyVpz2pHVpyy/9b12NTxFQBBSBZBFIlQJh74zedP/fFgyzObFi/0Gq2KRJFrS4BMLFrWMZvi0d4yvepuHwndg2Gc/paXUZ9V0Plu6/THBYJCaZLJm8bg/ty+Z6c79Izq8YTIshq3gdaUSlTmNw8ZjBej+9B0FDp/pVqDh4ET2qOOquCXp6gSa1W3Dd6xWGaTPy9U+z+P37RrgdnUW7UWc5+NcqMr5xIBxfOZJvhy3CPziMNOky0n7kCiZ3q4wREPLkCrVbD2bboRX0rV6dQ3e8yZSzJCt2bqOCrYnuXr5XNtOu+3CuevgSqTUkZ7H6HNizmGw62/txBYL25RUmzLpA7+/bsb1LDnpcbB1DIGhZ0bMoA/6yw8dtB/qIwJbxbWi/yJMAt2OYaMMpZJWFJnOOMrFl6XfmM+LmIqxc+jH2qBd9vnoTltAGUsTanDIjd7KkT8IemmQ9IKqyIqAIKAJfAIHUJxCCT1LAqjL3AiN102dXoS9ux2cnayrjEgj7Z7Wl8dBjGGd1YMPqsaTPYov1o638sjeIAR3rYpYOdo3rzOgj5lx2O0LBzAbcPzqbIjV+otuMNbQtZsrCEf1Zf+oedpUGvAkxRFIkRxbqzTzElFZlCX12hQpFy+NX4nuWDG9MhNd1Rk/dy4qjm3i5sRdleuzD2/s+pukMODx3AA1/XEOP//1Bq9I5eXRyOd8OXkqvxUeY0rEcgXcPk71QHQrZZqLhkIXUK2TC2F6duGfTGtcDf2CAhtGN65CmUU9ql7RHE3CP/q3b8bLBcq4va4fRRxYI/0yAhqUtsr8rEHo4039vTnzc92L8xjlwbuVQyvbbyvXntygYcZjsWWqx9tx90j86yeUHPtg4lqFFnbK6pu+v6IlD1yP87XuLyvq4BVpqOlkQVm86R2d0StYzoCorAoqAIvClE0h1AkH78i9yW9blcWjU1NoUbYvn5TXJmuf4BEK9oX+z+7YHtXPGna2o9V6BeY7uLLv2gkaFjJjezI5xd2ry7Ppy0hqC5tVjOlctyQWzznEKhNNrfqZK3824+TxA7/TQaqNCA1fWxRAIJq9p5mLLi4rjOTi3b3RYYFDN/Mz1r47n+QUYuB4mm1Ndem2+zMxmTrpkwKPz+lFjzBmeep7F/J3Ii5adP5Wh3Vp7fB6tI51h/B4ErSac18GhaCVuEkcxNkmPibH4MeIqcQkEOL/2B8p9s5jfth6lZx0XgjxvMXvUAEaud+O03z1KPptJFruBZMhmSS6nIuQyhTNHjpKpVCcu7lvAjZktqTj6ERf9z1I0RopGy2I2uJYcweXFvZL1DKjKioAioAh86QRSnUAQ1/i0Po0YvWQfBmb2jFy2lx/q2CVrnuMTCK1meODvdiJGW1rcrxxl91+HuerqQXDIQzasPsqay340K/ySr3Pn5nazHVyfXT/aiL+dg/C2B2HDT5XouyMzPnd3v9PftwSC4Umcslbh66XXGd/aKbruqQn1qTDWh4sB57B/KB6EJqx74U/zjFFL8jtbx1O423pueV+lgNhvzSuO7N7B4eNn8fD2x/PSPo4/KYPP022kT0Ag7JvYhjpD18fL1KXxEK5sn5AsgRD5yoth37Zh0e5TvAzTkjFrDhxtM3LO3YA7PtfJ4zqBLIVGMP+YG50qRIVwHp1eit1XPZl/4ylF9/am3NB7nHt5kRIxBELzojlwLzOaiwt7JOsZUJUVAUVAEfjSCaRCgRA1pfpRIEY9AAAgAElEQVSV9/tMcFIFwp1dUyjTYizF6rakSfWSZDC4weABC1l2SQSCLw2s8uHZeT+XplVPkkBY/V0ZBh60xfvW1oQFgvYA+bLUpfNGV0Y2zRdd99KMZpQa8ojzAefJ7/GuQLi7bQKFuq6LEgiGkfyvuTNjTkbQun1bSuTPwYO/fmP+aadEBQLaSEJCw+NFa2RsksBWzLg9CDEbi9BodbtHDv3Rh6a/3cXv7gGMni8hi1VPNl3xok6RbLrqGl9XMlk40X6TO8NDJ5O34y52e96njpU+gVFL1QLZydhuPrtGt3yfR0FdowgoAorAF0sg1QqED5nRpAqEEV8XYcPrWtzeMyPqdq+2YGXahnkX/WjmDANKZWd9xmE8PjoCXZqkJpxfmxZiS0izOEMMe6e14utpN/F/ch19ECMyIgLDNGm4GjPEYOxBOVt77PtvY/XQhtFDndXKhcG3S/LsylIMXRMWCPk0L8iZLRv9N19hSO0iujYOjaxC43lmiQuED4FL4gIhyvqH8kM9R05k68OZtYPQRrhincWRn7Ze4+c6haNwP7pI1txlGX3Ok0GZd2FduDs/bHdnaIOcUT0Mf0Be8wJ8u+w8w5sV/6Beq4sVAUVAEfjSCCiB8B4zmlSBMLVLOaZcz82j8xswFuPfoCCT9j5k0xV/mrlk4sjMllQffIi/7j+ipm065vSty/dz91Og5s9xCgTvi1uwLd2GmqP38eewqkT6XKRpk5FMOroT7ea3kxTHty3N2ENh7D53huq50xFwaQmOFXrQYuYB5nSv+iZJ8e0QQ0wPgr32FXnNzag2+QDLelbmxYPDfFWiFg9NGvxLAkFLgPdTgsIi2dzLmR+vN+H6sfGYZcqKlVkmgvwe8zyNDXZZZPUfyZy+9Ri43I3tt25QL5fIJQ2N8ltyPGNdrp1aSc60gUxpX56hOwN46P0Qm0wRtC5py3Gjulw7vRozbRgTmzgx4kh2Lj86TZGs8eVEvMcDoi5RBBQBReALIKAEwntMoo/rfGwK/czVx14UtEqva+Hw/K60nPYYn7t/RbcYcPcAdWs0526kGZkNI2g7Zik7h7Vi8sEnNCyUgfAgT35qUoHZx3wwzWBIvhq96ZD/HstuuXB5xyid0SuVOyv1Zx1mTNMSoAnjyJIh1O4xg/Rm2Qh/HUqzXxaweERbXLf/QOmuh/B6coksJgaE+N3j547NmLv/PmZZ0hPg/5I2o1YwZ3BrsqQ15NWDE1gXbsQm3+fUyRDlcnfbM43C367l9uPz5DbScnxeHxr8sJIsluaYZC3Aj31d+GX8M7werNYlKXatnIeX1WawcXSL96AY65LgS5S2KMn5V29nNqZz7oTXleX4nVmCQ6XeZDbNgiY0iDQ5SjN/1Qqal/knf+TFg4PUrd6Cy881pDOKJDKzI2v/2kP9wpa6EM7zm3tp1rANZ720ZEqrIcjIjs0H/6JhUZsP779qQRFQBBSBL4yAEgj/8oSGBwdw1/Uh6S3zkdc6c4yDhqJurNVEcP/2TUKNzXCwzxW9hS+hbgX7PuLuIz/MbPOS2yLWUcMxL9SG88TtPl4vQslma09uy0zv3D+x4fs9ceOxbwi58zuQNf3nXGVrCfR5jJunD4bpzcifLw/p9PsdYwxCExqI6z03QklHXocCZDZ+eztGRGgg910fEKI1wd7JkUyxfk+Mh/pdEVAEFIHUQkAJhNQy02qcioAioAgoAopAMggogZAMWKqqIqAIKAKKgCKQWggogZBaZlqNUxFQBBQBRUARSAYBJRCSAUtVVQQUAUVAEVAEUgsBJRBSy0yrcSoCioAioAgoAskgoARCMmCpqoqAIqAIKAKKQGohoARCaplpNU5FQBFQBBQBRSAZBJRASAYsVVURUAQUAUVAEUgtBJRASC0zrcapCCgCioAioAgkg4ASCMmApaoqAoqAIqAIKAKphYASCKllptU4FQFFQBFQBBSBZBBQAiEZsOKqGuTrRWT6bJhmMP7AltTlisDbBAJ8npHG1IpMad/+noTipAgoAorApyCgBMIHUD697Gea/7qXKRt30r78P18V/IAm1aWKgI7AxrEd+H6VByt2bqeGg5mioggoAorAJyegBMJ7Ivc+M4/ynZczY91mGhdTnwtOEKM2hJu3HmPvlB+TqC9Lp4gSFujFPY/nZLPNh3XWqM92f/6i5dLKn2g38w6LNqyiQr6sH6VLr/2e4BloRIE8Vh+lPdWIIqAIfPkElEB4rznW8vyhK/4R6bHLm7RPNOtv8+qZK+ddAyhevjRZjEKYWDMnSxyWcGduYz6m7fR75sFrwyzktHzbwGjCXnHvzh2ePg8gbaZsFCjkjHnGfz7jrI0M46HrbR499cYgnSl2DoXImT3jW5RCAp5w8647Aa8iMLO0oaBTftLF+yVoLU+2dsVhwAvuum7GxuS9gH/wRa6XThGQLhelC+bUtRXkcYSCBWsRnCkbaZxa8/DITD5T12KNTcvje3cJSWtG3tyWJOcD28/dr3PTS0v5ss4Yh/tT3yYnFlPOsbxLIW5tHc9XP+3nzp3DWKb5YJyftAFN+D3srEqy8Oh96hQxf697RwQHcOr0ZQqUr4J1un8nZPP8zkHq1WmDZ6aiLFu5ELu78+l+yIYj8/u/V59T60WRYUHcu+OKj68/BulNyedQkBxmGd7CEfrSi1t3HuAfFEqW7DkoWNiRDDH+WCKCX3Dn9h28/QLJkNUCpyKFMTX5p4ImIoR7t27wxNuftJmzY+/ohJVpSlkkpJyZVwLhPeYiMsiLPOa2eIYZsO3iU5oUS/pLa9/IBjSaco2NN91onCeEX0qasdBhKT7r2n8UgSAG/uTyoTToNZ28TUdwacOof0YY+ZretYuy5JQXZlkzExrox0tDJ+57nMXO1Bg0oczrV4vvFp4nu3l2Il/7ExBuze7Ll6hdILOuneDnl3G0K4OfYUZMjOFVYCAuLSZwes2gOPuvDfOjWjZz7BfcYHG7gu9B++Nc0rC4DVetOuGxdxKgYVU7G745UQ+f+0vJ+gEG08/tKF0HLWXZykWYxq+SkjyIyDBPbLPlwTskJ3973KOKTdI7N/PbqvyyN5IrHsdw0PhSLrM5VtOusv07Z4j0oJGdIxbjbrGk838rHKYJu46laVGWnPSkcXHrJLOMWfHRuU3kr9iFgYe8mVThbWPzXg3GcdH2oTVYZDaZcTlWUbP3fF6GG9J39l6md6v0sW7xxbejDbxP42LFOehtQAaTNAQHviAsswt/Xz1NRZu0uvFHvn5A6fxFuR1oRPq0hgQHvcS64o+4HpysE9Sa0Gd0rlyCDdcCyZwhLSGvXqK1bcLtK+vJldEIbcRLJrctza87HmOaOT3hwUGEZSnB0SuHKWMZdQ9VoggogfAeT8Kzi9PJWfZ37M1fkL/XEnaNbJrkVjThIQQFR5AxcyaMePVRBYImPIgWpRzZ9SgLjtn9MSre6y2BcGxCI6qNu8vumxepZZeBEJ975Ld1xG7QXxwfV4u72yfg3Oo3Zp+/R3fnLIi34esy9tzO34ebm0ZgqHlBn0LWLE3zDe5nZ2JhYsCVrZMp3eZ/TLn0nIHO7yZq+j7Yi4V9Q648CcA5R6Ykc/rYFUNeBRJhaEKm9GlBG8RPLtlY4bKCZ6vbfJAwczs7h/yVh+Hh7Y1tlg9/uTxa0oz8owzJHbmLeiP3MqtH1SSjiAh9zetwyJwpAwZhsQQCsH5IdX76y45HF5ckuc2UUPFjCAStJpLAwFdkyJKFNP+OA4HwkFdEGGUgvbEB8ryFaQzJmCkjRv/S/VLC3HzsPmh8bzFh5X0G9qxFehNjXt1bR0HnDjh2ncPBP3qDNpShZW2ZHlCHOxeWkiuDIfePr6Bg9b4MO+3P6NLpWN6/Nt03vubs9QO4mBnz2v8G9rlLUOt/B1nVtwpn1g6hQveV7He9S2WrdES89qCuc2FCq4zk5LJBH3tI/+n2UqVAOLxoCAOmbcHQvBBzN22knFXSV2log5lSJxfzci9mrvVsGi015pbbbvLFsA3+VzfRvs947nm/JqulDWYZ05LGJBtrN6xGc2UF3868w+8rJ2Jr+HEFQtir+/z4+xmG9fmaya2dOZy53VsCoW85O/606s6D7cPeuK4jWd0yB52PVcHTcyO7B9fjx7/S4HVtJ3pT//f45tSc8pSrPqfI8+Qc5nkrMPrCUwYXzx714Ifco0ZOR54138T1Bc2I/S689HsTSv7khffLU5ibGOiM8/TvvsG0wxzC13Vn5p6bmFgUYs6qFTgb3qFrp15cfvKafFW6s3HuD2QxlmuC2fXHaMYv2Y3Pi9cYZ8hK68GzGNH+K939vC6voOskTxYMc6Jrz9Hcfx5K4Vrfsm7Oz9Fhg+XDe3Er19dM7OTAgFbd2PH3IZ5ldqaKszUtB0+nW/WCXNv1O72GL8TrZTCZLR2YuGAJdYtErVhfeV2hfctvufn0JSaZLOg/dQku/lsYNG01x866UrlaVdIZmzJ52XqKWhnie+8wXbv+zE1PPwzSZqRUw97MntAbs4QetTA/GttakfF/lyi1/1v+97g0HkfnvBX6uLV7Dr1HzMPzZQQWNjnJbGKEQfpirNs0iYfbpzLhmAFrfvsRozgEwo3d0ynecS4+vq6YJuG19eD4GkZufMjvfUvSquMg3PyCyVWyMUsWTsYu8z8BsWWjujFr0wlehkSS1caBQdMW0qp0Dt0d/M8so9e6l0zv5kTvnoO59ewVFgVrsHH1zDeCSsue6b3Y+KIOi0c3f/P8RDC1f2siK49kcAsXYgsEP7fTDP5xKCdvehIaCTkKVmPh4pk4WUiQKIwNv7TjdpU5mO7qydx9t2k1fCnD6pjRvvtwhq1fT/F0hiwf3Yc1J+9HUzAyNmXFhrWYp3vFotE/MX/7SQKCQkhnakW/39bTo1JUaErKo7Pr6NR3Io/9X5PZypHx8xdSr0gOPC/tZMDPE7jx6DkRGONYqR2LZg/7J6ShjWTx8K7M3naawBANWW2d+GX6AlqUjMsrEsa6we1wrT6P4rfGMnzhXkIMs9B+6Gx+bVv2n9kLfcbY/r1Zf+QGIRpDLOxKsHDtEopkTxf13D65Qt9ve3Hyvg9pMmSlx//W8n2dAu/M/t0DS/hp/HzuevqhMUqHS81v2PD7D2/Es5YFv3bldZn+FHBdwOCFB4gwzkzfqavoV+cfr2Co7zW+adeTiw+8dW0UrtqW+b8Pw/LNy8T7/Fo69pvMg+fCrQATVm6nbt7E3r0h1Hc044nLIC5vHE3YS09yWOam66ar/K9h4ahxhD+lSc6cHP1qKc+3tqNhIQuMm8xix8SOUb9rIxlYNieLjDvgc3wSkxrnZdWLr7l3dEY0hyUD69FnJ/i47iGzEnTRXFKfQAg5j5N1ee68iNBByFd1IPf/np6E12VUldePzpEnf03mu/nQNO0x7O3q03f9TX5qYB/1LEZ44WKTl2I9Z/BdIxeOr57IsJVXmTx+JD27dcF7Yz/y9TjLBf+zFE3zcQVCzEEMrOfwjkDoXio3+2x74rZ9WPSq2XN2TXINfMw1n5ucHFWHwQfT4X1tJ/o/W98dv2DVbCWb3Two7rMGu/J9uOLljbOZPl4Xxi+VzFge2p/HZyfGipmHMrGGBSNfDSHo1BB0u/U0PrRysOFMxhLkLd2YH5o4Mevn3riaFiN3qBe1+gyloJErXXqPpPfqS0xt6UKE2yGqfDOXrn06Ym+Vhbv7ZtF/6nFWnb/H185ZuPfnAAo03UqOnBb8POoXLAPP8/2PM6g28TAbfvxKh+W7ygU46zSQs3PasGHREuaO+YWLuTsztkMxStZuQZY7K6naeSaD5iyipkM2zq4bw+CVT9l9/hQVbQLpVbwAx11GsmhAJQKf3OBp2kJUtnrOsjVLGTNzJ2MmTMA0Q0aadepGhsf7+KpCUzLW7M+vnaoQ9vQSQ38Zi23ziRxZOPAdEaWfN7/7f2Hp1JQLnr7kdv0Du2pTmHvZnXaFolhrfP/GPl8jmoxaTLvyNuyYNZDp+0OZMG4CPbs1Yv/Yr2mz2ZCAaxtJG4dACLy5h+wubVn01J9OFom/Bc+uGUaV3vOwNslE78lTcTDx4peBgzCrP4aTS3/CQBPKsh6V6LHel9FTx+Jik459y//H/APe7Lhzj9pWhnis7Yd9n23YZ89E2x9HUMwskO+7fUe6hpO5sHYgGQwi+a2FHVOfdsHjxNg3z2UoXxfMRHiLzewY2/gdgbBpbAf2h5WmWdWipAl9zq99uqOtNYYzC/uBNupval2aMmS3Lc2wThWwsC9L8fQPyFawEWv9/fk6sxGH18/j8K1nOq5uR5ax+qSGR75uZL+9kIYTLtO5U2NsTY05t3YEQ1Z6ctXdlUJWJjy9sJHSVTpTpOs4+tVx5M6RtSx2deDqlqHM6FQVv2LfUr1EfsJ9bzOg1wBKDVzLmqFNQRPCwq4V6bMpgHHTx1LEOi17Fk9i0RF/dt2+Sw2rWBlI2lf8XMKMtYZlsbIpzOBu9bi6eSb/2/GIA+53qZxV5i+E3jWd2fwkF+NG9CdH2iCWjuzPXt+CXL56CAdzA35t6MgWTXMWj2lHiPcDroYXZECTIu+871rVqYdzo7aUL5yblw9O0qPXaBqscmN5a0nA1tCrSk52eJhiUbA6o/vU48KyIUzc84pDN29SOU86Xj29QsWiZXlVoitje9fDyP8u44cNJ7xYL67umoYhrylpY0nRXr/Rq54zT25fIMipEx1KJ+JVDL5MUZuS2PVcyfZJ7Qh8chCL3LXYcu0p9QvqE24jmF7XjEHX2xLg9jPlrJxoNPM0EzuWjh7n9j7ONN+Qi/tPFvO9Qy58mqznxMyvo38/u6Av5X88ylm/a5RUO9ZTr0DQvthFLsuGeIZFMcjh0oonV9YnWSCcWTWAWoPP8/zRcdIaaulaOR/X8vbmzPLBuhd/xMNZmOafwInHjylmlYYQ1wNkK9yWjS98aJAePNZ8lzSBoNUQEhKKNp6eGRqbYJIm/rTGuATCpv5VaL3ch9X7/qRVWTtePL7LumEt6bvan4tPPQjbNZjyvVcyefNfDKxflBBfD3ZO/572k46w6qYXpbyn4VhrIh7eXuTMok/pi2Ras1xMvF6fZ3cXve2+jXxGMytbLrbai/sftaIMo04g5OBqwaHc3DlGZxDuLe+N4zerGb39LL82ctK9TL9xtOLv0lN4sKbHuyEArRelc9jSaOo5RnQoHiUQmixkz62n1HWQtXEkE5rlZ5FXEx6c/O1tgbCgD2gD+b5wdtaVXMWTla0w1IYyoLod5/IM4+Sy796sOl5Q1d6GIoN28Xt7a4pld6Hoygcsb53zLQP/bohBy9Ifa/LTn4Z43N5Pxjd2+OCUTtQefY6/H99883KPPbEa9o6oRvN1DvjcWkhGAz+aFLZD03AuO6e011V+srgFeX4J5t6TXeQxBs+LW8hTuTfPnntini4NO0YlLBAivc6T27Y8DXYEsqB+1AozoSICoXz3JSw6fJVvSlvoqu4c1YKmM9259Ow8+f2vkd3Ghf7bbjG5sZPu98iA21TOV5injdbhurwlnmv7kbfTemb8dYr+1UVEa7k5qyFFf7jE4YceVLA1SLZAiN3nbT9Vp/VftoReWxktEKa4FebW/VM4ZIsaZ5DrkbcEgr6NQI9TlHepQfEpp1jeveg7z1royxtYWjiz85wnlV2smde3EiOPmeN5dVu0iA548Yqspm8n8kr7o5oWZ51hY25vGU3Q44uY5y7NT7tdGVc3n+72Ef43qJTPBf+vN3JzUfO3760TCFn5PaQNjy4swyKDEZFex3DMWZ0aa54xv2V2Xp+bTI6vxjPzmCtdykUZy/CAi+TIUZoeay4woYkNzfLnJLLLHnaMqJHYdP/zuzaYoeWy8rv1fAK3d4kWCAeNmnDx4NyoFXb4TezNnem18io/Ny7MkVmtqD3iMg+f3sI6fVQy4KV1IyjVZTHbHz+iodk9bLIUZsLe+3SplDvJfdkxvAlf/3adzeev0NgxE/7uy7DK15Ujrs8pb6/f/qthTee8dNhYFD/fHyhuVoOe627wS9OoZ1LK2TFVKTc+hGv+i+lh7UKWn/9mz/DK0b+7bhiGU/t17H15n1oqVzGaS+rzIKBhZMdqTF1/AjLb8vOi/Yxq5pC0B1YTQL9ydpwqs4zj0+rpDMXJ2d2pNfEm593PUSyTARq/TZhZf8uWG57UKJAZz+PLyVtnKEcDPClnnHSB8PjocHJXGRevQDAu1I/n12eRJZ6FYFwCgdf36dSwGdtO3SZYY0SGzNkoYgOnbmflus91CqX35tcOzflj9wVehhuQLl0mHHNl4vLtCLa5P6Sg+3QcaozloY83uWIIhKlNcjLpVkOe3Vn4tkAIdaNiFnuCh1zm/CiXGALBBp92+/l7TFR8Pez4ZEyrzWXrowfUtRbJEMHEqjZMTjcQ371DdF6JV8/dOXHsGCfOXSMg6DWbls2lx8wTjPymnE4gODRdi2eAFzkyRQFZ/UMlBv+dl8eXVuj+PdqDEJdACL9BeQsXAoq3oZbzm9AJsGf9Ygp3X8i2sc1Z3LMKPZbcpPvI6fRu1whne2vdC/1dgRBO7/LZOZtzFBc2/hD9XIVfXUL24r0Z9ncAgyu/+wbSBN2jSq4i5JnryqJmljpWq4c254c94HFjl26eX+7uh2Xr05x6eILi2dJy9c9JlGr/Bz4+bpimNUpUIGhfXKeIuQv287zZ0TXxxFoRCBV//otAz/PRYY7AQ5PJVmsqS289o3roAmxd+nHj6QsKWesNZCQzm1jzy9m6+D5ZyfN1/cjX/UyUx+zNykzru5xsll1ZdPoJX5fOnmyBoI0I4dbF0xw/cYK7Ht64n97Bdr9ShN/ZGC0QYif+xikQNK+Z2rkiv90ujMe5ldEG+rnHLU4cP8a5K3cJeBnA4oWL2Xv+EVWKWdGzbDYuFZjI2VVvhGSMN0dkaBCXzpzg+PETPPR+wYU9G3hcoAsP/pyIx4VZ2JX7Bddnvthn189/JFMbWTHmamO83Zfw1uaKNx6EJQVX4rOmdVTfIlypbl6QbONvsqmvA4eHVaTGvPTc9dqPvd7lFxlKKVtzMnyzlqMTG7B6WBO6Tj9Gm4Fj6Ne5OcUcbOPMidCE+HPu5DFOnDrPI29/Lmyfz/n803l9QMYZ5UFwLTSKg3N7vBlxKCVsslB/2jHGtS3JxHoWTHv6LU8vT40OT0Y++AuLAg1pvy2A3xulp0sVB9bfMGLQmLF0bFqb/DYJb+H1ubae4l91pt7YbSz8vq7uvgEPV2KZtwt/3/WhQv5sb/qiYVXHPHTcXBJ/vx8pYVaVrquvMax5oejZOT2qMl9NCue63xJ62RTBZMAB9o+uFv373XVDKdhxPfte3qeGEgipWSBEjV2r1WJgkLibNaZyeHF5AzYl2xBq8PbKXaPR0m3ueRb0LA6RQbjY2uBmlJvG1QpxcvefZKvyAxe2jtM1lXQPgpbgkGC08bgQjNKmxySBbKs4BYJ+MFoNEZGQJo0BV0aXodSiAjx5uAaL6GFpCQ/XYGxsxINV3+E44DLXvY6T4eoqcpftyZlnPpTJrs8ED2XQV2asSf8rHgeHvr0KCn9I1cx58f3xDFfHl45fIJyYjGnVtwXCpKo2THojEMI9T1POuTJeFsXp2LoR5pmNmDfhVzpPT0Ag/FiFwYdy8/jSysQFQtg5ipmWw7jeAFqVj4qdRxVDvmrciQqOFhI74uKmaXzzy0xuPfTlh6VHmNSxXBwCIZRORTNzt/hsTi/Tv0zl3b6OHE4d+X7/C4ZVfzeL3vXAXJxq98XAMNazpc3AxONPGFw+E9rgBzjlKsyL7C7ULG7J3u0HKdx1CX/Pjkq0TMyDoPG/QkHLEhRZ7MfmTolnIcQlEEJOziRrpdH8cc2bWsFTyV1qOLe9XuJoqX+raljUPi/99pXjudd6fNe/KxB4tRlz09b8cfwxrcpZ8FuLvEx92jmJIQZLtoxrTZsJB6nWvB1VnHPz6NBSFrkXSbZAuLF5LCW7LGbD7Qc0to3iHnhzPUXKdMKkUFVaNqxKZqNgxowax55zHlQpZkFHl8w8KDuPEwu/jflqAG0IMzqXZcj25zRv34Gidtk5vvYPbti21QmEB6fGkr/yZB54+2Jnpve+aZjbxo5Bxyrj83hVEgTCPWpaOGE69gabv3Nk+3dF+Xp7Ph66b8VWv4MvMowquc0Ja7eSU1Oa6Dw21/f8QefvxnPV3YteC44zs2v5WJ6SSLqVs2P9g7Q0bdWSInnMOLF4BAdyTktYINhmod6Uo4xvV4IhFTOxxOBXPI8Nj/asRHoeJneemjTc4M/85rILKpKN0wYydNoq3F+mZ8HRG3xTIm6REPTkPIUcK2DTbhaH5/WMZhP49BAWuWqw9tITmjnr/1bDmVLLjKGevXlxtSdlLB2pM/UY076NCi9K2dqzMC33FOTRg9n0zp+TZ3WXc3pelGdOypl5ffhq2Fmue52nYGJpEW/P/Bf9b6nQg/D+87lhVDN6bwjC88ruGLF2Db82K8TGwGo8OLKIwC0dsRiakVt7+nD25HUKlK9FsbwWGL7RIkkWCO/fTd2VCQoEfdvhAdSxNCeo336Oj6kWZ2x8aANntqRvxc1NwwlyO032fJX45eRTxpaPWoFqg65S0rw42UZf5MDgom/3WuNL53xWbCu9Cv+Nb3YLvMlBeMuDkIhAODC7G03/dw2/h2dIr+MYQsXcmak1+lj8HoTkCASNFw3y2RLeYj37pv4Tl4xrCrRaDQt7VqXfcWt8b27g+dk52L+1i0HDrw3sWPuyIfeP/RHdxMMtv2LfeiVbPd1pZBlbmGqZ08WZiZfL4HZu/j+31QbQuVguruUfybUdv7CnXxH6+Q/g0K/FOH7BnZI16uNgnSl63hITCBEeJ8iWtwa9j71k8leJ77jQCYQf9+D/9CJ6/8ClBb0oOeAoR/1u4vh4O5YOTYt+8v8AACAASURBVPnz/nMa5HvjedH60c3Riq35Z+K1uw9P1vYjX7cTnPG7SMk3djH4r35krbeM3a5+1LA3Ym57B0Zfr8+TK7OiDJc2gIb5zTFst+XdHARnPypmcyHrkGP8OaS8jtWh0fWpsyZj8gRC6D2q2RcmS8c1bJ/4z5zPaFuWMW7F8Do1X5czE/bqCVbmOdl2SgSCDYPr5GR7eFtuH5r21uMR4boLc6eW9Dvsx9hKUWGNqW3L8Ye8F/6cyLMbG8nh0p79D32omfONONM8p4tDDv4qPJvH23u+nb8TpwfhbYFwZ87XFPr+Kkef3qWCedQzpQkLxM4yOw3mHGNu+3+SGbXaSE78Wokq0w24GXACx5iHfoT8SfbMTZl73INWZSXnIJIptbMwUjM5iQKhNEu6ODFgnz0+j/ZEn4nidXwJOasMYqGHN13eCDDd9GqCGdPIgcVeTfE4//s7f2bBXtdxzFMMg7rTubmlHxn1L0/xNr54hKWlHe1XX2ZOC+eod1CwOxWz2fNiwAmuTSpJbcfsGNSfwb4ZXaPa1kbS0cmaY8WG82B9X4bXsWV1QGPczyyIvvdvXSsz7mouvM6tTtbZIx/4mk7xlyuBkNQp0jyjqUNeAhsu4eBvbd+66vTSn6nQdxP7nj6g/K0RZK/6O+Vq1iSfjTlm2SwpXrUx7euW0l3zrwoErZbnPl6ER2oZ1aEiJzM2Y9/8n0iTwRQL0/S8enSD12YOWGQyRhv2gtn9GjNg0Q0uP/HAxSoDoX6PeRyZHXuL9PJXzPaJHWk/ehd/HLlFp3I5JGhKVycr1oRV5/a1HeQxNWLN8NZ0mXONC49u46wPuEfTiWRJm9x0P1qXF48Xk0ne/u8hEI4vHkDNQfu59fQm+dPCsd97UO+Hhfy84NTHEQhoWfJDbfqtfc6By2cpbxXlC/e+c4ZX5iWwCb/Hb/t8GNwpKmb5+zcVGH6zEF5nFuJ7bTO2xTuw192bOjmjzoo4vvRHqvZexsht5/m1bl4Iukej8l/hmrsT13ZNJbZp1jw/iXOeKhT/7Sarur+dYb7jf21oNe0GT59exX1qbcqPu07VGlXIZZUNM/McVKjXjsYV7HUiITGB8PTsRnJV6sO+AB+qy4I/+Cy1SnWg4sgtjGz1buKaCISy7Sdh91UHLh9dhqnmCQ2KFeN27k7c3jMNo1fPKJ7dhmfFunL5wDxyZDLk8IKB1PluBQtuP6FzvnS6JMW87eaQr0oXjuxdgpWBL3Uc7Dhn3QOPk9MwNYJDM1tRd/hpLnq6USTTKwY2rsTs3depN3TruwLBJYS6OfPzsukKTs5tB6Ee1ClekoORVYlIRohhVrcqjDydlaO75mIuSsDAEEtLS5b1qkLfQ2a43d5ODsMQNgxqSLvpBzl4UUIMOdk3uycNBm9nzpEb9CiVnZf3DtJ95hVWDi5GXrs6VF94m5Xf2BPqeZhypRryomQ/nUCIDHpMMfPc+JTowZX9c7DKaMiBP/rRYOB6Ft96RId8sXJCkiAQtEHncMxZnpxtp7N3bn/SRgazuE8Vei5+yEl3N0pnfcjijQ/p+k1dDNCwb2BZ6q/JgbvnDnLGXCWHn8QqcyWGbr/BgDpOPL20hVIVW+BfflYSBUJZXA/PwrHGIPqtPMOMdkUxeP2YbnUrsiewJG6XNmP8fB9bXR1oXt4OA20QQ2o5sJGe3Dsw8q13abjPdWqWqsDtHB05unEoWd54SQ2M02FtbqbLT/qxlDVznrlw9tI+XKzSsm9WD+r/soNTz55SOosRi3pXo8+6p2w8dYYmTll4dHASheoNZ/Jft+lTLT8nlv9IlV7Lmfb3LQaUs8Dv6hpKVfqGqiN2suTH2gT73aFs+QY0nPwnE2LkMSTVVHxJ9ZRASOJsvjg9l9w1xvPHhXu0d3r7jznC+zSlClQh568n2N7pFXny16Vq5/7YZTEgwNudbeu3kL32OM5uHITvtp/J3+MMF54dpaC4LytbsthhOW6LYyUpJbFfMauFv/LAyiIv/sGat642y9+BZ3dX4r6yJyV6rSFLtqyEB/mDVSmWbFhHw6LWOgPz7NhCHGv1J312cwzCXvLSMBdTlq6iZ/1i0ar6lcdJ6lSuxwV/Y8zSaXgRmY3xS7bwfWOXOHvsulPyA1bj4feMXKZpQOtHJ+dc+HU4wJ+/RK0Aw8/PwqLKH2x5eIvqupVQJL83zMPEtD/xaMv3RPrd5dv6Ndjulpa85oZYlO1MuisLKD9wK792KMmDfUMo0Hg9T3zvY/VGpGwYWodBh/LgfjpqlfBzrUKcdvqBY79308Wph5W1Yn3Jtdyd20i3ag31d+PXbq35bfcd8uSyJjL4BQGR2Vhz6Bw1srlTo2xFboebkTVtGM8CM/H7pj/pUiU/kUFPaVXSkT+fmmBqZMzaix5Uy/GSeUO+ZcCsXVjksOa1nxc25TuwdsVMitpGiYiY5eq6EZTtv4Oz7pdwzvC2d8H/2k7ylWzDd4f9+N5wLo41x9OsVy8s04Ty3PMOa9bt5ashf7J7TC0OTGpHm40GeF9YrTtJsWZ2CyymX2Ftt6jtYMeX96fO0KP4e17WiRSN1xZy27Sk/aobTG77T0KXvm8iECp8v5Gp7QowbPl50kW+ANtKbNqxnqoFJP6rxe/Gn9Sp156bL03Imk6LX7AJ309byYRu1XXPlAiEfF0P0beHI4uXHCGjUTBBGYuy+/BuquSPSjJ77X2DFpUqsv+xIdlMIqjaazrmlybhXXEOG4fVRhN+FxszF5ae9KCeiwUnVg6jXvcZ5HRw4PVLDUO6lWLwhnACrq7SbYmN62/q1YMTWBVqyIbnz6mfyYgulexYfvzhP9NgkIbdbt5UMbpB/WpNuRmaDYsMBjg17MfFxYNZceQelVxyEBHkyYguTZi87TrW1ub4Pw+k85QN/NGvGpvHdKb9hF04OtnxMsKSrhWMWONTlltbxuhYeV/ZTp36HXB9nQFTk0j8Q9Lzw4yVjP0mDu+d9jWjKlqxtNBq3Bc2jvISRbrTMFdBzMbfYuU3UYddndv0P1r3GImvUVYyEIyfxpoFW3fRsbI9BsGutCxbhUM+xphnAPdnYfy24zB9ajjGegK1zOxRnaHrb5A3tzkGmR35rnwAv9zriP92CaVoGFDbnruFR7NnRqc314ZRzi4b9aceY0SL4mjDX7FhUm86j16DqaU1EYG+ZC5Yj1VrF1PR3gxtwGEc7RvxKrMlxuEveZ2xEBv276ZqnreTOx+fWIVdxY5ExuqhgYk9+33uUSMzhPtcpWn1Ohx0DyFbxjQEBKdl8NytjGxXRndVxAs3vm/ThAV/P8Aie2Z8vPzpPHE9Mwc2IUMa0AT7MmNAKwYtOY61tQX+Pj5U6z6ZFdMGkN3EgNe+18iVswRtllxiTtt3hfN7vJr/s5cogfAxp04bxm81LZmYbgTuf/7wxh0O5xd35KsBR/DyeYhZlI/8sxXvh3e498gHE1MrXIoUQI4ZiFleerlz895jMDHFpVhhMsS1UyLyNdcvX+FFuLHuqGbL6ITFd4f16tllsucozpJrz2hX5P2/A6AJD+bGlcuEmFhTokjef+fwGW0kT+/fxPWJPxmzWumOkM6QNiq4q4kI5uaVq7wIN8LJ2YXsGf/xA2gjA7lw9gppsufDxcEmeu+4/6O73HDzIqN5boo42WH8IWdpR4bQooAVfu1XcmCs/lhuDdt7OdF8fTGe+27ALMH2wxnf1IE19ObGtqjDYPaNbUHHzUacObkOu1jCRH6PzkF4fBbv25fwDEpDEZciZIpxZK2uochXXL98jYAwI+wLOpMj6z8CWicQdEmKp7F0v4abv5ZiJYuSIdbpQZHhQVw6f4m0lo4UsbdM9PCql09duXrfF8cSpXUZ/h+zRAT7c+3qbdKY2+FsHzMn5c1dNBFcPzCLkg2nc+j29Rjfy9Dgff8Gd71CKFa6BJmM4+hXZBDXLl3nRXga8hcsgnUMVu87htBAH67fuEuoUSacixclcwzvgDY8mDs3rvP8tRaHoiWwzBh/gN3jzmWevDSiSHFnMr1nHD7w2X2u33tCWtMcFCn89rdXIl/7cu36HUKMslDYuTCZP+QrpZpgbl+9xvPXkK+gMzbR2671cxSG++3rPPILwSa/C/lihOJ0NbSRPNP9rQdgnscJxzwWiT5z7zs//+XrlED4mLOnDWVWHRuGeNZi18rh5DPPTJDPA6Z914Z9Jt1wPTSOdB9iJD5mXz9VW5pgRn6Vg80u87i0oE10hvOnuv0Xc5/IEFo7WXOpYC9Wjf8Ga9N0+D26xvctvyaw5QbOzGwSnRwW15hDHx+kSMHW/HDMg97FMuhCPRUcS/PtksN0rRT30ctxJSkml+c/AuGfXQzJbSOl1Q956YPXs8eUKlqGP84+pKWz+lhbSpsj1Z+PQ0AJhI/DMboVbcgDWtdpwSnXJ4SER2JskpEC5ZqxfcMMsqY2caAX817b+ar+MtYe2ULeN9sQPzL2VNFc2KODNG4xgGsePoRFaEibPgsudbqxff4vpI2RyBUXjHPrxzFk5yv2r5oY5a7WvsLDK5zc/2fvLMCqTNowfJMq0h1SUgYgKCpiK3a32K5da3dhd3d3F+qq2ImdqGAgKiUGiBjkOee/zjmoYKy4v2vtfNe1yy7MN3HPzDfPvPPOjPnnt5pd2T6Bmv5HuB988CO/iewCjwkYSpHeFzl8dz8F/uGsNLtpfZ9wMnYOrUrHJZfR0LXh0OlT5Hu3g+P75ECkIgh8LwJCIHwv0iIdQUAQEAQEAUHgFyIgBMIvVFkiq4KAICAICAKCwPciIATC9yIt0hEEBAFBQBAQBH4hAkIg/EKVJbIqCAgCgoAgIAh8LwJCIHwv0iIdQUAQEAQEAUHgFyIgBMIvVFkiq4KAICAICAKCwPciIATC9yIt0hEEBAFBQBAQBH4hAkIg/EKVJbIqCAgCgoAgIAh8LwJCIHwv0iIdQUAQEAQEAUHgFyIgBMIvVFkiq4KAICAICAKCwPciIATC9yIt0hEEBAFBQBAQBH4hAkIgfEVlya80vX37HqlZb1PG1MYJc/1cXxHT9wkaHDCRsn13E3sviBzfJ0mRiiAgCAgCgsBvQkAIhK+oyMdBK7Eq9Qe59PWy3JzXbupuprYr9RUxfZ+gFzeNwKf3bl7GXBEC4fsgF6kIAoKAIPDbEBAC4SuqMvbkMvKUG8qmxBjqZTIYqKiooqK4Iu/neoRA+LnqQ+RGEBAEBIFficB/UiAcnNuTLlO2o2qUn+V79lLKInv30L4VCFtexWYRCPIKT4m+So2mvagyPoD+pZVX6J7fNJEh22M5tGkmyCTsmtqNwYsCeZEswdihOAs3rMPbUmn8n9WtMSmV++N4ewn95u0DLVMmB5ygoc0z/qjbgIMhj7EsVJM9uxZgrLg2WsaA1nUo2nEiT7YOY+q2C0jVtekwM4ChtV0UV/p+SiBcCZhB56HziE5IQj2XHpU7T2Nu32poKgSOhL2zetJz5i6S0sHE2Ze/ApZipaPKxW2TGLoxgr+2zEPjV2rhIq+CgCAgCAgC/4jAf08gJJ/D2awkdxMlCmD2pXsQfmJ2tuD9nUBAmsSyziXptDmNBxGXsUq/irdbBQr2DWB5n/KcntaQ8qNvsWLTUlzNNQiYPYBZZzS5H7IfXRVo52XDgXgVbD3qMbJrNfZP68yMs7p4Gr3A988JlM+TQK+2PdBvspIzi1soBnPffMaEJmqRt2wrRnTwJWT7aPouvMbuG3epls/kI4EQtn0oxZrPovaAqbQun49H1/6idZ/pNJt7mpVdvHlwYBaFms5hwfYNeBiqcv34Xkq0GIytgTrrBvrSemkEsc/uYPwTWkuyVYEikCAgCAgCgkC2CfznBIIsMRBrk2pEpyoZWRZqSvTVDdkCphAIZTqgljMHikk8kMOtNRHnFioG+eS4UNysC2L151Z8oyaxJMKTS0cWYvDmAQVMHCm5+ibLm7go3kt5eARbx7r0vRJPf1d1hUA4qFuXi/tmYZpDhfjwPZg61qTnmvNMaV4UVWSs6elD3/0mPLm1651ASPDsxdF1I9FRBUlKHM5mlhQYEsjuAeU/EAgyGrhbEOYxgAur+igtBrJUlta3p9PxAoTHHCBiVU+qjL9M2N1TWGpmRZLyKo6Ipyk42Vtmi5UIJAgIAoKAIPBrE/jPCQSQMrFDVcatPoKKvj1DlgcyqIZDtmpRaUEYxPyb5/DNGEDVcxtiY6ZcUpA/kQG9cW60gDR1PVaduErzoha8uH8OQwcfyjdpgb12xovpzwlYs4Pq656zqomuQiCE+ozh9OzWinhePb6FoWV+toY+prazqeJ3+6Y0oPmCJ8SHn3wnEKw7r2NFr+rKxGWpNLcz5ZTPeB5u6PqBQEgmn4kutWcfZ7JfiXf5TQnshHb1dZx8kIBb+gnKlKlLtG4xxowZRN1q5TDRyt7yS7YAikCCgCAgCAgCvwyB/6BAyBhLZTJUvtKz8G+XGDKqPPHmMqy9uvNaYsj2ayHUzq9HfFgQxs5laeM/Hk+DTN6NalpUb/UHDtoqHwmE149vYfAPBEI7JzP2e4wmamuPDwTCaxwMdWm++ByjG3q9a6Cpp/qiU2Y+R+8n4mOrQUpCJJMH9WDx1oM81fTiSvAB8huLTZK/TI8WGRUEBAFB4BsR+M8KhH/C70sCQfIqBg/jPJiPPIrRjuacM/Ljzt4pSGJvoGfpQe8TkUwsbfHJpD+0IGRXIJj9sYK1A+oqnBLl5zS4m5tg0iOAI/6VPxAI6RS21se2yzp2DKmTkQcZ54d4UGKGFnfiTuOg9d65QJoej72xBfWWBDGzkRfIZEhloKoqHBD+SdsR7wgCgoAg8KsREALhK2pMKRAGs+TuVarkfP+irqEp2jlV2TO4LLVnJRL59DI64atxLNKZJvNPMvuPggz1NmNaZBGu3diPi5H8ZRkPbpzFzLUEcpvCPxUIxx6oMnj5AcY08+TaynYU/WM16y5G0qiw5UdOivObe9Jz10s2Bp2hgbsJCXf24eBWg2KjDrNnUHmOb1mOtk9TilppIUl+gI2JE922XGFIVVf2TG1D55UPCL1xDO2vYCaCCgKCgCAgCPyaBIRA+Ip6e3FtO7ZeDXiRnvWlttP2MqWaKs5FmjDkaBh9ihujgpSlfWrSd1cKL8IOk/b8Lm1rVmLb9URMDXRIefMCmZkPIdf3YqQCPUo5EOIzhsOTmykif/P0DiaWBdlx6xGVHYwVvzs0pyXN5j3lya3Adz4IOUu14PmRddx+qUrC85e0mRLAvD+rkUMNru0YR8meu4iLOKc4KEn6KooBLesye28IBvravExIpFS7yWya0Q2DHGqcWN6f2j0WoGNsRPLzx9hWH0zgimEY51Jj98SmNJsXTkzEeXSEEeErWo0IKggIAoLAr0lACITvWm9SIu6GEPs8CR0jCxzz5kHjHw+2ym2OcifFxR1LEHIrHC0zBxyt9BXLDZ9/pDwKv01U3GsMLOxxzGOUJejLZ5HcfRCLpp4FBRzzIFYUvmsDEYkJAoKAIPDTEBAC4aepiq/NyHuB8G4Xw9dGIcILAoKAICAICAKfISAEwi/bNKQ0K+uKZat5TG1X/pcthci4ICAICAKCwM9JQAiEn7NeRK4EAUFAEBAEBIEfSkAIhB+KXyQuCAgCgoAgIAj8nASEQPg560XkShAQBAQBQUAQ+KEEhED4ofhF4oKAICAICAKCwM9JQAiEn7NeRK4EAUFAEBAEBIEfSkAIhB+KXyQuCAgCgoAgIAj8nASEQPg560XkShAQBAQBQUAQ+KEEhED4ofi/QeLSNFKkauRQV/0GkYkofiSBxKjzzN8aSZ8/G6D5E1SnTJJOqkzetv7xcZ8/Eqci7dSUVNRzaPIT4PzhLH7tDKRzcuMCXrj/Qc0CuX+KokjSUpGpa/ILd48vchQC4YuIfnSANCb26ciV6DeoqGlg4eBBz8H9sNNS5mvVgJpMv1tIce/Cv/U8PDiPKv12s+VSIG7q/1Yq3zfe9KQ4unbszotU6buEc5kXYNmskah936woUpMmhlGpYAmqbLxJ/5KmXzguG3ZP78D4Yxqc2TX/X8vt1rENGXLYkjtHZ39VGpKXj+nSdQA9Zy+kYObrzaWvWd6/G/ujkkBFDeM8+WjTtTtF8xp+VfyZA6fe3k6HUZtIloCmlj5elRrRs5lvRpBkytrpUWdBGH2qWf/jNL704s4J7fE/q8OFnTP4TboHEUfm0n/RySxF96rbm/5+3l/C8a/8/cZfk6nU9wDXgw9inOMLglUaTYvSvuTpvJ6JLT3/lfzIL9vrWzUvccVnsnLU29txs5+UNC2Jxf7dWRhwitfpahQs05iZM0Zgp63C9bUDGL87AikqaBtaUqN5J+qXcsl+5N8wpBAI3xDmvxKVNBpPcztcmo2htIMGF/ZtYN3Jx2y/HEwtJwNW9q+hEAjBAeP/leTlkb4IC2La+kv8OexPjH+SqZg0MoC8rsNY/egGZTLE0tcAeP30AiaWJeg1aho2hvKrrEBTz4o2frU+O9tMvjIak/JnCH22jzz/ZCSQPqVVQQf0JsYwp07WOzEv75jItMt2rB3T9IviQJ7Xm0fXsTNUkyFdG31Nsb8q7JYxDRh62II7x+Z+1XspsTfRsfJk8/0n1LXRf/euLDkSH107cnWdTGNnDa4f386qfbcYsPIYI+rn+6o03gaOXFQf+yGRjB/bDpUn91i3eCFvHJtw7fAScqmnUMZWVyEQ+la3+UfxZ+elkENr2RGWm8Gd6/00looHG/6k0JQXxF5epbgt9useGQf6e1FjvQnTh9dFI+Nle89KVCnu8OmoZK8Z7GVOSMcQdnb6Z2Ls8OzOdNopI+zwoqxpyBIZ0aYtngMWU69g1rtjPpkZ2UtWTJ6CceVu1PI0+7qiZzu0jD5V7IkvNpOVY+pm+y15wPTECFpWKMn+pMLMn9Qdcy0ZZ3ctIeCBM2cD/JlaJjeTpG0Y08KDmNAzLF6+A+/OiwiY0vyr0vkWgYVA+BYUsxHHq8hzzFuxDyO3yrSs68OXRPC7KDMEQpu14fSsbI0sNYGmjsZcqLSOsGVNWJ1ZIMikXDyyk+MXbvAyVQP3MtWpV85dOeBInxB46CGlipmxfe0mHr7UoIpfO4rZ6bxL6tHts2zdeZi4FHW8KjWmure94oMnSYjkwIUIfCuVVHws4u9dJGDfcSKevsTYrhBNm9V9p+rPHN6HbeFShB/fwpHgx3hWbkotb3tCjm1jx/GbWHtVoXmN4u9n6bIUDm5dw9mbkehY5qdJ88ZY5FaqkHNHArH0KMWjszsIvHAf28KVaVXTG948YPe6+bTutpbeq+fioa9H7WoVFe9EXDvGjsBTxKeoks+rPE2rl/jkgKsUCD4cuxufhcFbGFFXD7Fp72mS1PQoV6sxHgZP2LNuLC2G3GLeulHY2+SnUvF83Dt3gOS8FYgKXMCFmJy0/7MDkvtn2H3gJDHxSZg7edGqSXW0NVIJ2reRQW07kKv1Sjp7a+FbtQa6Wpp8jrs8L0/CzrNh235eqRqSL68FKiqqeFesgcbzEK5Fq+Fb0lWRZcnLKDav38Lt2FfYupWiWf3yihs8IZXjARs4eTUcFW0TytdsjE8+00+3WKmEYztWcuJGNHZeVVC/NBn/I5kEgiyFY/K4rt1Hy8yZJi39yKP9sWL8O4FQQteeorseMaeqifxTyaSWxVh0vzDhp5ZmypOMaycDSTJ0x7ugleL3j2+cIDjZikpeWQeoiEX1cBinScT9TVioweOr27Eq2ordj55SzVgli0CQpL3kUMBWLoU+QJLDgAq1G1Myv6Ui/vTYKxyNMaaIfixrtwSSpGVDs7YtsX5XPhk3T+7mr+NXSM9pTNXGrSlioxR58fevcuWJJhWLFwCZhLvnDrHv5CXiXktwLFKRJjV90FQBmTSN/fuO4VPWkwMb1hAap0q1Zn9QJE8uDm1awum7CZSo1YzKnrbvWMiSH7Nx1Xpux7zE2q0Ufg0qoKXs0BzYexjvsl4c3bKWq5FvKF7dj6pFbHh17wxrZvvTc0cSq2f2wtDEmcql5e0klYNb5H3tIeq6FlSq0xgvh08NuEqBUGuPLwk3J5Hrgwm7vByBG5dx/nYshnbuNGlag6iT2xnVvhURVeYyvJoJXiUrYa2TxIGgW5QtbsO8WSvR9/ajXXlLTuz7i9PX7pCikpvi1fyoUtiKmOunWDzdn/nnpCwa252cVkWoXtwWZKmc3L2R41fukdPYgcatW2CTUSeylHh2b9zA5YcJ2LvkQ0dDBX0nHyq4mXHp2D6081fAxSwn8tn+w4sH2HrwHElq+pSr0YBSGe0q9dkt1m7YzYOnb7Bw8qRR41qftVBIUhLYsnI5tx6nUKKmH4GDy/E8k0CQpTxl65oN3Ix8jmX+EjRvXJmMT1mW/nZ8YTuqDjlNSORN7N8FkJHwLB59Y12FQJjvtEbxfZf3riOLulLD/yQvHl1HMxtjzbcMIgTCt6T5mbgkLyPxtrHjYoLcnK3OlL+u0a9Ggeyl/IFAkHfyCT7aTDKeQdyubqzJJBBeXBhPya4HKVO6GBqJ4WzcfITeATcYVMECkjZiaDwRtyIa6OcpiCTyAsfv5SYq6hx6qipEnlpKhaZjKdGgOXlzPGPxvFUMPRBGt5J5iD8+F/Oma3kQfRazlOcU8ihNvhJlcDLV4GjARqRefTm/foCiPN55DTHN68pjjHHKHcfWI3dZPac545Zcx9NWkz27jtFt7UX86zorPphjGnqwIdaBJtWLcuf4dk69dOPWmdWKj2A5F2NyW7sSm6aLex7YvvUwQ45G0M/yFI3a+rP3xB3cK5TGwtiOnRsWcm/vRHyaT6NQxarY5E7m8O59OHZcyb4JDT9aJ/w7gSB7fhobh/pU/qMTVjwmUlqQUbXSaT90LofPJVDatyh23k1ZOaoF/mV1OJK3Nc/DY/GwMKb/8CZ0atAXoweDVgAAIABJREFU+1LlsDOQEbBiMfa9A9g92INBzVqyZtdR1F0qUNBMjUUrNqEWvpXyTUZTon4L8ubM4L7/Lt1KWfMqbD8lyrTCrWFHHNUeMn3uOpyKVWDW8q0k7utOjy2a3A9aBtJ46hTKz11tT0q5WhB6/hSuI86woIERk5oVZeqZNKpW8CYl+jp7Tj9k5YXbNHLJasFAls6RKU2oPuEKDeuVJ+ryccITUshpVyfDgiBjaitvFoUa4le7JA/P7mJfhBX3g3eQ+4MBJPsCAdYPq0n/wJxEX9yapT9sGdWEzuvjuR58AAu1Z3jbOOI74yjjmhTOEu5DgZAUcQE9+7IsjX5GK3PVTALBmkPDKzD0jB6lvQoQd/sE24Jes+/GRUqaqpGwojZW83LjKruHk3tBwk7vJc66GXcPzVCkd3hOR1rPuECj5vVRib7Ish03OXkvFHdDDQLHNabDYRMeHplHwoMDeFQfTqWKpTEkjq0btlJl9H4WdvVBkhqPuaE1Hm5uqOVxRi36ImefGDG2Rg7Wh5mQh3B2Br1gx5XLVLHXIu1VBDXdCpJcpBmV3I05uHk1GmWHcnBeZ1R4g5WuCQXcCiE1tcc4OZxdZx9zOvIeunsG027cek7eT6diSXesXGuzfGJbRtbzYNEtXaqWK8zL+5c4eDWR9eeuUMvhwzX9vxMI6Rwa6UuLHVp0bVqSyOCz+HSbzuMlPVi04wCvbMpQxDon/cYsoqzWFXTL9KKpM7zKXxm9Ao2om7SS4QcTKFPcndToqyzZHMTxiGjebB/DkHkbuPFYRtlirhgU7caGMTWZ06kcM85r0rx+WaIv7mP7TR3CQ/ZiqAlj/IqzLsKaFlULcmjtPE4/t6Tl8AUs61GMevl0sB8ZwnQ/R2JPzyFfZX9K1aqDkewpp26lcuHyfnI/vYhH/tLk9qxCEQd9Lh/bz3PLOlw7uvCjNi1LfY5//aLMvm1Og7J5OXs4iITkZ/i2X6WwIEjTntHQswCxeWtSvagVx7ev5aVbD86s7pN1giJ7QRdPC47km8Otje0+MXlJ+0gg3Nw7jUItF5EYd4d/YCzN3jjzmVBCIPxf+LL38qvIyxjZFCE1I3jzqbtY27dW9l7OEAjNlt2gSzkLnoadobBXdVpuucPs+g5/s8QgY1pzN7bm6MmZ5R2UAkG7DaP3X6e7rxPpT65ha+XDkAeJdLNSpXVJO1TqzWNlv5qKfIXNrYrr4vw8vTaDtBPvBYLlBxPGmzun4N07gJfhQRkCwQC1KuM4tqArGpKntLC3YHuORsTcWId+DlUmtS7G1qTaXNg8jOTI9Rg7DeFs5F1cTTSQvQrBx7IEDc7G0a+AOuVcjEguNZwTy3qhSTqrmtnR+ckAkg79ieTBFvK4DGFt/F0qyr9vMgklbAxx7L+NNX8q16Dvn5iJo+9wbj9+iqOBfCbx/lEKhOJoG5mjoSYf4VRoOD6QWa1dSdrZBoP+MiJvrsQk033cyReGolf6NHdfHsVGYXdNx79sbiaHFSMm/LiifB8+z9Y0wWqEJlH31mDCY5o42KA7+SlLGukqZjZtS9kjrTOXVf2V3O/Nq0rBRfl4cm0mJye3ou8xI27tm6GYSXUraEHywECWtS7KXzNbvhMIMWv9sO8VS8iDIzhoq4BUonBc1Xy+GYM87dkcHEFlF32QpTCnkTODQuoSd2MWOTNlNz3uNtZmbnQ7EcMwH2OQxNG5vAdHVJUCQRYXgLF1D/aE3cPbUhPZm/uUtXDF92QCI9zfGqGVpf+SQPDcco+pFY1IfHKDVr6VUK29gP0zW2RBJ0t6QCOPQsRWWcRQ9Sm0OVueWyemYvDB0o5CIIxV5XbIaozSX3NoSR+aTTxHVEwoJjnTP7/EIEukjosZTv7BTG3mpBAIRl2vE3QnGG9rHaKCVmFfcwxpz8NAFo+7hTU9NobQoZx8VpvMxIpmbC6xn8vjvLMIhA9bwJrBtZlwzZmQvVOVAsHAhNaLzjC1RTHSY05jZ1Ma07arOL+4BeoqKdR1M8Os4y4W9SjD9UX18Zqsz5Pby9FTh8TLG7CqNJaLj2/ioi4XCDo0mHGc2e1KQVoM9W1tSR8dxa72Ztxb1ZkCk1/w/OYGxaCScHsJ5q79ORkeRVFrbZAlMbqGI4te/kHkyTEfLI0oBULVmXcxN9VRDGKquoU5dH03LqrPaWpiiv7SWyyo5/B+gJO9orerITc73+VAD6UFJO1mALndGlPJP5C/RlT4eDBMj6eGgQlWK+6yuGFe9k9rR/sAKZEnVyjel8XvwdK6E+tD7lHeNgey5GgqmjngHRjL+KJRuJmWxf/0Ixrk0yT2+jysvFby6MV5THOmvhcIDQ2pbWFCyqBTBPZTWhMlkjTU1GB5A2v6RLUj8sw4dFQh6f5hnPLVotXBJ4wvk1VAx1zcil3ZHlx5HkNBTRXSn5zDp1BZCrTfqBAIUev9cByiQuTd9ZhowKuQPViW6M7ZuPsUyNxmU27ireeO1cwwtnW2/8QYoBQI8/IuJXheA1JfPmVKpypseFKCh2dWZm/M+IahhED4hjA/G5X0DZOrOjH06GNUc9kRePUa5fNm0xNXIRBsCI5TQUUFVNU0KdxqDscXtUM+HmX1QZCR/DKGDUuXc+F2JNdP7SKp4EAubuqtFAh6gzkYc48ickcCSRSVdRzxPJzApBJvKGJuRo7CjShgqdSo6S+us3aXGvcSg9A5O++dBUEuECRpyZzes55dRy8SFRZMQHAqSZHn3wmE6lMPM6K+fKYnYVoVPZYWOkTIZG9F51w/tC7jrjggV8UPZvviMDyG5g2VJlhkaZwJWI/L5Ei2tzNXCIRSo/YxtmkxRdy3Z1XFdaEraaFTPxIIsvRIzPXsWXEmluruxsoP1JNQtM0LsfDeY9raG3xCIPiwPziKwnJTsYoKOXJqodgMknodO9MiaBVpwZplU/GwNUSuIT4nEPaWC+LcKK93H8C05ASO71jPX6eCSXwYxNrzDtx/FICVyocCIR4vCzM0Pd9zlyReZ81ONcJeBHF3QXs67Vbn7uFFqErf0MjeAtPJR5nftHAmgbCYedWMmWI8nfA1bbN86KPnVMBusiWPHq595zty59BgCtbeQGzcfYwy2Y6fhB7GsnAjop7GYq6tNGRm9kF4urQOFr1Dadq4DDkVdZXOhV1rMRkZwaHuSjP92+fvBYIN5yVqqMrbsqo6rrV6E7RtwifXyR8GrcSx9B9IVHJwPuopXhYfWD3kS0qL6mHXeSeqaqqoyOtQz5qFR6/Twk3ev5KzCASZTMKr6KssXLqJsJg4ju5Yh+/4c8zvUEghEEzGWfD0ziL0VSH93mF03Vvz5nUUPFuNkXk3SjZpjKmCmYynl3cTqDOAlOP9PhAIMlKTX7Fz9UJOXgnj1qWjhOv4EnZ4foZAMGPz5aeUlwu29HuU13On7PHn+HspmXfxzUtCuZlsGFaVCWV1mPS8Eg2KmSvaliz1Kds3nGFudCzNTZOx0tVj6enHVHOVO3mmM7aCLgGljnNxdNEPBIKM4PGlKby4AHHhi9HLUDFnN3SjUt9zxEddRCOLssmwIPxVjkcXRyuWquQO0lo55XmUcW5cOUqNOE+HiesY36MW+jk14DMCQdu7H+fiw/B4qyFlUuIjb7JuzUZuPojm2PrVeMy9xca2zh8JhGer/TDvdoEmjcsplzlkEq7sXoP2gBCO91alsHkReu2PplXh3IQfHY5TtRM8TjyBsWbKO4Ew0VeKjllBNtx7TH37TM6wqY8orZMHl81RLK1joWy6stf0KGJAULk9XJ5eKUubPrelD1X7XyL+wfGMfp7ZB6EmsytpMzy6DA19bJR1lRZPwPqjTI6Mo535e7iyN8F46XviMP8Bm9t/yldDKRD6n5KgpqqCiqoqxk4VOHYhEJfvbT6Q17tMJpN9jzHyv56G3JweH5+AhpaeYt0520+GBaHhvAt0LGeFRg4t9HRzvxuMMguEx4eG4FRzDq1HTKN2cSf2z/2TY5p/fFYgVNF1pNChBCYXf4q7aV4qDN5A3SLKwVX+5DRyoKirNS8yWRBMkx/h7uCCTsk2DPijFum3Amk74yRvsisQhtVl3GW5QJjKjfEl8ZxvzI41fZBPfBWPqiYFvLwx1VL9hECohuvCAqSFTvtYIKTdwFS3MBsuP8E3v9IxTvLsLtpmBZkbFku7zB8H4Es+CK+eP2L52B6MmL+Hws3HcWRpn2wJhJTwvRTyaopJjT8Z1KoCOW7Mo+ZECfdiPiEQpJF4mOWl7KAN1MvM3dCBom7WJJxfhn3JLujYOKAvSyDsjQMht47gYKCZSSAsZGIZE1a6LCB0iV+WWVrI2GJ4rPbk8e1FGGTwvXd6DPl8l/Do2UOMlYvZiufRjT1YF2ulFAi5lV/zzALh/kxfnCepsXX9YPTevqaiTj4vH8w/WGj9kgXBdc11xlcwRkMzJ7o6Oqh9xvH1ybWd2HrWJVlVm+CYx7iZfvyFVFgQRsu4cmkx5hrqaGnropXj7ZQts0CwYntvH5oufcb42ZMobGfApM51cOgX9EWBIHk4HyPHUYzbvJGCb0GigrFzYVwtdbIIhOe3t+Hg4UeNHhNoWdmTS5snsOKeU7YFQlffvDyXC4Shvgwtrs8amyms6l7oXb2q5dDDq7gnuVTlFoSsAmFcBT22lzzGpTEfC4RTgzypsKsC8Tenv+trlwL6Ua7LEeKjLqORZevOF3wQZOnE3DhM51btORwuY9bei3Tw0f6kBeFDgbB1eGP+WHSNvv4jKJ3fgOmNaqE9JfSTAuHhgjo4+r9k88YR79qvfPeLc2FvLHXUaFvKjs03U8lrY0xUeCQ9A24xsqIFKrwXCOPLp6Fr6c7OB0+oZvN+kiB7E0lhfXvK7Y1hhu9bn5xUBvjocqDYTq7OrJLlEx20pgu1RoYRF37wY4EwuhrjS+owz9iftX183tWVqqY2Xt5eaGVu39JYmuS15rrvem4ubfTZJYY51vM4P6Mu6uoa6OjqovmDtrELgZDtkfoHBfzIByFrPt4LhBGML2nAGs+t3JhbQ+EEuKhLCZbEN/6yQCihRuX8JuTvvZNZHct+VNDMPghaV8diWnw9t+Kuk1dXjfuHFlCw7Yp/IBCm8eJEP0yrHODm46s46n48SnxsQcgkECK2Yu00kFVPw6ikq4JM9gYHIwM6r7/MgKoFFWV4fHMnVp4tuPnoCS5GWX25vyQQ3kK4u2sSrp22Eh1zAe3Lw9D3Oc7tlyexVWg85RJDZgvCkRl/0Hjta6IubUK+qJEc2B391lEZAuEJTR3zkGt8LCuaymczaVQpYIJLz53M7vQx97mdy3FAuzUTWrjzRqKBQ4GCGOZSfsnfLzEs5XhfN6ru8yH6+mIM5X+WSUhOVYNzvdGvvIeL0aG4Gsn/IOWvQT402ebOs9uLyZUJ+asHFzBwKsvOiKdUt5DPviVMbVOcxQ+8FUsMqRdHoF9qK2cf3cDd4O+3snxJILx3UvybPpX+hK5lPLlbagZFT3dinW4/bvw1VGEKzvx86IOQ9a/vBUKfcukUN8xPmUNPmVpKvryTRnNPI/S6nvyiQCDtCnaGJZh4JIqmRd8L6LdpvfdBmMvRwcWp+lc5XlybrBgYdoz3o/9hg68XCMNqsrtbARqfqU/cpfEZjomZS/f3AiF8dRfyj4/jWehmdFQgZlcnbBqfJOzJDewUfU3Kqq5eDL5cgaizUz+5xPA5J8V3uZAmM7RhcU6bdOTowtb0dTfkyh8hHOntqAgiX2LIKhCk1PM0x6TtOhb/WQlkibS1MCBpglIgHJjRnj+2phIZtFoxcKZdHY+h9yoOR4VS7IPtU9IHa8lTbh075T4i8S/RNbPBxfbtjoX3AmFqrZw4GNhSJyCMmTWUJv309HTUVd/QxdmI49UDuDG7hqL80oRrFLUuQdltj5heWS9LUwo5OJ3CTecT/yxMWReSJzTwcEGn7gpWjqnDyX5uVD5QicdXZ/CJT1mmuGTsGF6J5oueEh1zBYNMA39aSjIaOdQ+8kH4QSOPIlkhEH4k/eyknW2BMJb9fT1psMeBgJWDeXZuCyMnLUGn9IhsCISc7B7rR6vFtxk+ZjhF8xoQffsqF6XeTOnozfNMTor6j/dhZtsI/1UBFDd8xozRIwiM0Of1V1sQpiFNfUxxWwd0K/egT8sq5Ex7zvmzV2gwfDTO6nInxQ+XGN4LBFnSZbwsSuLcYw71C2rRqKkfC9sWZ9AxNUaM6I2NRhzLJvkT6TqUy+v+/OjgIaVA8MavS18s9ZT+/mq6Vgzt34krU5qyS70avoVtCVo/mXmXdIm4uAniAzAyb8mAuUtwzGNDk+rFPhII93aNpVDbNcxaswwn6T0GDRnJpccehMstCGqpjKhkxRqpH7O6FKGkbyPOzGtPy0W3MrgbEn3nChclSu4XNwyjSqeF2DrnRStXLnSNLGnQbTjtKhVgTyYfBOmTY9g4Vqd0B38a+1hzbPNinlVawbo/dPC2sYdirejdshLPQ4/gP2ENgw6G0cv7g7MH0hLo5WPPJpXqTBtYn9B9y1j11xVy5mugdFKUvaCikz2pXm0Y0K42uaWJXDxzlprDxmddY33rg2BZiHo9euOsq/T9MHT0plcTd7LuYvh8BzgwuxMtF0YSHLwX4xfnsbEvS4/1lxhUM6tzb3YFQt8q2nRxt+GE23BW9CvHiTVTmLIykAZTv2xBkJvVB9V0ZdMzF8YM7oyNLoRePoO6bz/aFcqdxYJwZ2NnCrQ/ybY9K8gReZxR/lOJt23A3WwuMbyzIAyrzYvwvdjkq0+TIdNpWt6VpGcPOXcjlpEj+6OmcFL8vAXhzbnpmJefQf+508ina0TdqnkpZJ0Pk+o96N6oNLFX9zFm5k7GHQ6hQ5Gsy2/y8sp9EKqvykH/jhXfOfjmLVqbNhXy0NhvEHU6tMBSPZ7RvXvg3G0Li/8syZpmtnS7UYFlw6viWqQyjklBHwgE6FejIAdUyrNwZEtu7F3G6NkrKDX1pkIghG4ZiWeXjcycNwENdRva1XemlpsTT50aM7hLfXR5xeUzp6jYdyyF1COo5lmSUJkZFgba5Mqtg7NXVSb590A/Z3omJ0U7AgeUod7qFCZMHIhJSjgL1pxgw/G9SA8Mx6XufLqNmUgZR232rZpBwH1LQq8G8KEGTnl6g+JORcjdYBh9qzuwc/5k9l+PoGqn5QofhNQnJ7HLW4VKPcbTskph0p5HcfZKGMNHj/jobIzXscFUK+rNA8uqDOjSBGsdKecObuN4tDVBuycLgZCdcVGEySAge8WUoSMo0dafUk7ymU/W5+LuRRx6Ys2gdtWRpD5hWLfunL7zFOeS9WlR3pjzj/LQv1VpSA9mQP9d9Bw3FCu5BJYlsmTQCPL0mEo1+aZ+WTI75o9n+c6TPE+SYmyVl/rdR9GqlA1xx+Zg4beOh9FnsVCR8NfcoczdcQY1Y2d6dmvB8SMXGDeqnyJjs/wHUKBhLyq5ytelpZxYPJiz1n8yoJpyu9rVfcvYG2HKkE5KJ83XD08xzH8Wl8MeoZpLj/xeFRk/rg/6KjB3zEAcanWnmodyre5p0FLGBVkwc0ANxVrowWWjmLTmCLlti7Fz1VSQvmTJuOFsO3qFJHLhUb4+E4Z1/MTsC9KTnjJ4oD+v09+vsKnp2TBtwiDS7+yl54iF3IlJwNDWnV7Dx1DW2UAxM581oB07zoWTr0Z3Fg5syIF5Awh16UtP37frmElsmjqUJXsvoWXhxthp7dmw8CpD/NsoZnLRV3fSfeBM4tJzs27DRqxN1D/D3ZrlfWsw67YTy0a3JPX1a+6cXk2P0Uc4EHYX/bub2HRZHf9eTRRsbgYuY+z8zcS8lOFaug5jR3bDQA1e3T/BsNGzuRIWS05Da+q360+n2ll3ArxtUWkJt+jddQDB0a9xK9eEPyqbs+eShBF/1lMEeRN1Dv9RMzh/OwoVTV2cPUszcfLg9+bfjIikb+IYMXg48Wnv26pxvrKM7lqVuYNGYNN5PLUd/8YHR5bM0nFDyFGqGy3LKbc1Hlk0msDUwkzuoXTmfPu8vLCakYEqjB7W8v0y1bu/pjN75AAKNfOnrIsuLyOC6N5rDA+eyyjXtBdFNK+RVrAtDYqZkXxpBYP26zJxcAOFj4U0PoxB41YyedpYRWyypGhmjRnDnjMhJMs0sHEqRM9xEylmqsm+sY3pdNSUB4fnQkoi0wZ2Z+/lh5gXLEfXhoU5FprG8O4NkUqSGNJvMB2GTMLBJIdi98n8QeNw6T2FihZK08i2eaN47dKIVr5yISQj/Ohq/Odu4v7jRLQMzPCu2hT/bnLTdBrD+van5YCJGVv5pBxeMIhgx970rmQBsjfMG9KNzUHh5C/fkYWjmpN49yCDR8/n+oNn5Daxo2mXgbSupNwm++ETcWwxEzdfzfJr55JN6eVXjIBZ/izdd47ENA0KV27BqAGt0FODpNiztGs/jKg3GoyZuYzS5vEMmLKd/pNGYJZh+XkdcZbBgydwLeYNRaq1pqXFDW4W6EuLIibIUmKZ3KcXe4If4VJ/NEt6lyUp5hJjRk/jTEgEMg0dHAuVYPzEoWjf34F7pZEMmL8ID2NVEmLDGNC2LZ6zr7GiZX6WjeuPSY3h1PYwQCZNYcHIXuw4FYKqriWNOvajfY0iiv58aNVk5m86zNPXEsX24IEjhuFmppwwfPjEXg2gx5A5PEnJQaWWfSmR6yYxer60rKoUrQ9PbcR/9jrCYp6TS88Ur4r1GdenxSe3Wac8v8PEURMJCr5HCjnJ71We7n164mqeg6CFAzhu3JrBDd2ydSbKJzP7jX4pLAjfCOTvHM2trSMpPCCIp+GHyKZr5e+M4zuVLY0GroZY9TrG7PZFFGm+fLgTZ9cOrA+Oprx91p0D3ylTIplPEFjZswoTHxbh1r94WJkAn5XAqTFVqHfAhfCjs9BRV0Ga+pz2Bcx43vMsO3p8WgALhl9PQAiEr2f2n3qjXx1vFh24QmG/cRxfrrQSiOf7EFg9uAHd5hzGoVARzDTfcObiTSoMWMv24bV/mhP7vg+JnzWVdCp4OHA69CmdZgcyq1OZnzWjv12+JBG7cS/anGe5bPDMZ0nE9QvE4sCVm6ex1f8KJ/Dfjsy3LZAQCN+W528XW9LLBJIkqmjr6KCpOC9APN+NgExC0pskklOTSZdpkCtnDrRy5VRsERTPz0Eg8fkzpGq50NHJrdgKK57vRyAtJYmklBSSk9PIkTMXuXLnFt+ob4xfCIRvDFREJwgIAoKAICAI/A4EhED4HWpRlEEQEAQEAUFAEPjGBIRA+MZARXSCgCAgCAgCgsDvQEAIhN+hFkUZBAFBQBAQBASBb0xACIRvDFREJwgIAoKAICAI/A4EhED4HWpRlEEQEAQEAUFAEPjGBIRA+MZAv3d0e2Z2Z/nD/Gyb0e17J/0uvcc3D1Cl3VTOndpPDvWfc6/XyMaluOXag00jlCcP/t3zIjIEmakz+u8u/fnSG//i3+UX4zy8T3ouC2zMPr7N8F9MWUQtCAgC/3ECQiD87A1A9oxKBQty8VEqKiqqaOkaUaRqe9bP6UduDdUPrnv+MYWJOL8Bp8oDSXj6gFxZ74392wzJ0pPxKeBAeKo56w8epWLGUdLJL+7i7FKWwCv3KWDx6WNPv6akcScn4dXnOocPLifvFw5RkaXEU9jAFIOhxzkytOTXJPONw0pYPao9w+ftJF3XjNxpz3ilbsWMLX/RpHCeb5yWiE4QEAQEgY8JCIHws7eKjMua/BYH07GMEbdO76ZO3Y7UWn6Vpa3cfm2BkPYaO1MjcuXUQqfKEE6v7If8AOGk5yGYmnkQdD8RdyvlZT///JFx51gAKU4VcLPKekPbp+OUEffwLqqm9hjk+nHHGQct6EzVoUeYvjmA9r4FUJFJuXZoHZdzlqBtaeVteeIRBAQBQeDfJCAEwr9J923c0hR2Tu5Ea/91mHs3Y9vmhRQ0zXr98Gez8dFtjqlMKqnNGL0pvNjbkzX9azD9biGCA8aT+uwa3Tv8yf4Lt0l8nY575dasXDoFe/kduamnqdt0D+2bGjJi0GRux6nSfMhcFg1soLgQRJb8jCXjBzF+0VaevErHrpAv0xcvoqrr2ytUM+UwPZ7x3VoxY+MxNC0K0altJcZNWP7OgpD87A7jBvZm9YFg0qRqVGw7nAUj2qKtmfWuXlmGQBgxaTDD+8xlxIHrdPYx/0ggpCVGM8e/D7O3nCYlLR3vRn1YML4X5joaJMWFMaJrOzYEhZNDzxQro9yoGXuxaet0cj26wsBu3Vl/6Cpparkp36gLsyYNwcFIbpWQcufwSjr2GsXF8Hgs8pdk4qJVNCisy8SGtcnVcyk9y9giS33B5jn+DJ+2kqiEFCzzlWLs7Pk0KeWIChIubZ9O676zeJGuioVbfXZsn4GV/LafTz4y9s/pxpIQezYv6K84LnnPnH5si3NluX+bTG+kUDm/BbkazmPnGL+PYpIlxzJzSD8Wbj9KXOIbdG2LsnjjBnxdjJBEnqZB/7WMbu9F246Dufk4nUZ9Z7JgZEtCdoxl0gHYtnhYRpwyVoxszx0LP4Y3smVojx5sPxHMy5dvcCjVmCVLZuJhqUVyXCidmvhx5HYc6lqm+C/eSuuyyqtzxSMICAK/LwEhEL5D3SZFX0PX2oO3Fwe2nbWP5X9WzV7KHwgEWVoCLfIac6XOVm7MrcvqTALh1fVlLL7pQrfGpVB/eZe6xYpAsx3sHlkRkjZiqNsO87J+7Ng0j5RTM/BqOpUz8U8okkuVdX2q0W3HK7buC6CCvTpT25Zl6G4VbkZewFlfPVNeZRwbXIrqq+HQmX3Yxh2mVs1W3HxtkCEQYHDtQhzVacLRtcNQfRFGcTsXfFeFMrWOc5YyvxUIk/ff4cG8Jix86Ebo0cXIEjJbEHKwtHclJl625+qxJWjLXlG3UF602qxifd9qbB3qS7+TBXlwYhZ2DAeXAAAgAElEQVSvbq/HpcRwpgYeoYlHTv7wdOSEVQfO75pC7udXqedbjfhCPTm3fiipz29hZelOs1kHmNahNJe2TWdLbHGmdfOkoZ4hOguusKK5K4fmdKbOmJOsCjxMQ09jlvWqRrelkRy8G0xJzes421Ri2I1Y2uTV5HZQEMbFSmL0N4aH+DuHcPaoy+ATD+mW5xrubk0ZtjuYVt7m79mknsJWvxyDd4fTuaLNR+1E+uQsIxdco+egjhippzK5thMTkjrw+MhwVG9sQ9uzGVYFK3Hg5C60gufjWakv4/c9pLLGIRyrDuHmswgc5cfVp9zF29aTeqvv0MYulFlHkvHvWB1NaTzNSrqTUGose6e14a/u+fnjQXcid3dH9UU4oU9z4+70CeGYvRYtQgkCgsAvQkAIhO9QUWnP7mBpkY9nCoWgwoDVp5jU0id7KWcIhNID11O7oCa7F45gXuB9Tt6PpoSFzieWGGSkp6UhkcpY2qMMKxP9uLCxl1Ig6A3kQPR9vExUkSXfp5RefiqeTWS0p4zyDkYUGX6IqW28FfmSpiVgbWTCiD2hdMps0k5/Q2krE1xnnmSBn/LWtAfn1uJSZYhSIHCV/MZlGXokmkau8pm6jEsjvKh6rS2JgX0/KRAm7b9Dozx3cHaoRe21dxhf4eX7JQazCMpYeFJlUzT9SiqtLqELmlFqgxWvzs1gRGVzgmseJ+BP+ZWrqZR1MKHJ4hvUyx2ETeWB3Hr+EAc1ZbKhG4fi/uch7saeQ21DM+w7PSX6+UHMMg/ospeZBIILbYuZEl91NTtHK6+nhmR87Awp5X+IidU0yGtbnhb77uJfxhz1bB3GL+PCnHoU73eL6o6JpNebxb6x8ut73z/SJ6sxtWjHvIvPaeL5ecdESXoa6RIpyQd6YNYhjvvR2zAO3YZ2iUGcjb+Lp6JcUup6WlC8+xYGt7KnlpUDauPvE9DeioiNvXAZEs79sF2YZxh3lG1HypoBtZkd403wlpFs6+hMqws1iQiagqGWxg+/gjZ7HUeEEgQEgf+XgBAI/y/BbL0v43nYUTr3nETeWr0Y0b4qubLr7a8QCLa8siiKtYke+byrMqRPB6wMcys+1CszWRCkaYl0qlaS7ZciSU2XIL/MxLXeFC5u6p0hEAZzMOYeRYxVQRJFFV1HCh1KYHKxKAqaFODP7ZF0KpcxM5SkUsDSkDpLTzKhlue7UkqTX2BtasqwwFC6+ORV/D6zk2KOR2sxt2/Dy5xa7y6vkaUlo152PC8ODPisQGhazJqACX60Wf6IiPMLsMrwQXDVOIaDZXUe5dDiLTJZegoq7h15dX4eeyc3oO1qFcKDtxK1cxDFWmxnT3goOuem4NNlEy+ir/DW/pFyaRl6PhPYl3gX1eGeVDpYnYTL49HKPDpnFgh++lSwzkuRGXeZ0tj2Xd7rF7FEy28ha/vVJGTPdIrXGYKmiS3Dl++iV7X8X2wR0jePKWRkyY10B648CsHDOLOFBnjzF5Z6dRlzJIp2pTNZFt7FnM56/9b0nruPpJQ0pJIUkrVrEPFoByZygeAzmAtxd3DPED5Ni+fBve1qhnSuQND0mvhO1+bpw42Mrl6AW8WGs2uMH3LnzBHNq7DgyF1S0pRtx7nWEIK3jSb1RQT1ixfiSIwKJRv2Y/3CIZiIC/O+WM8igCDwqxMQAuFnr8GPfBCyZvi9QBhDQLeCtDxbgfMB/lgb5mZF74qsetHkywLB+xWFzS3wWxpC/1pOigRk6Uk4mBrQc9s1epZ3eZeoLPUlTmYmtNx8hZGVlINhZoGQ880ebExbMvlcBLWdMqbugEYuLTQ/uIbw7RKD3ILQtJgNac9D8M1XmFzd1nBqbHNOy50U9S9R0KgKrQ9E063I+4FUPUdOcqjLmN6iCDvVypB68yQqhi4MHDOB2sXzcufAPNxbzCXhSShvvT1iD0zFxm89wY8vkzy5NF7znXgWsRz9zK4RmQVCszzUcjTFrP9ZlnZ+e8e8hEr5jSnYJ4CZHcoqbQoJMZz+ayGNOs1m3tFbNC32qUH9fb3d2zsCl8YB2OR6QPmRO1jWvWLWSpUl4JXHHLd+21nRu/pHLTR06wiK/bmXnYe34WVtjORoHyzaPyE85ssCIeH+CUycq3Eh8gqtCnkx8K9wmhc15tSsJlSdFMfZ02uxM9Fh4+AGzI4uphAIygaRyp3gs/Rq0YSk0sM5Or/rz95zRP4EAUHg/yQgBML/CfBffz3bAmEkk8vos8hlHXeW1Ec1KYZOlYtz2bLPlwVCiRy0K52X6zbtOLZ2GFoqUm7vGIJnsw0Ehd/G0yLTTgJZKr2LWLI370AubepPruRHDG9dnWmH4pRLDOovqZrfFtPWq1g9uM47PC9TJehovhcMijEnw0nxrUCQ/+7q1iF4NVuELP0lVyITcbeU0LV0Xm4WHMXxRZ3fxfc6OYXcOV7Txi0vL+pMpJ2PLVq5tbFxdsPRUp/kiFM4OFWhweoLzGxSAFVZCmObl2FtQilC9k7jxY3FWHgOYHfIfSo5GfD8/lm2XlSlQ8P8mZYYCjK+eRGWxxTl6pFFaKtA5NFpFK41leUX71DZ/A33U/TIZybnk0QxW1P8Flygd/V8n20Wb2Kv4uNWhgZbbuOXMBOvtgFsOneBKs66Wd5Z0rU8vXa9YvO+v6jhJrfqyHgcHMjeOEfsr02g/sqXxFzdQk5pGtt6l8FvozkPsiEQSEvAz9GEeJ9ynL+RhztXVmCiLmNHLy/an6lC7NnxaPCaPjWKcihXQ4K3DefWpVu4FHFTWKzkfh+jwjy5tXO8WGr41zu/SEAQ+LEEhED4sfy/nLo0Fi8re9quC6NbBauPwq8dVJtpdz24sm00MYfHU7DWFMrXr0Piw3to5k7nmVEzzq/rAUlbMTYcyqGoUDyM5EsMMdQ0csTjYDxji+bk0fn11GjUgzhtZ5yM0gm6HEmfpYGMaeqh8LbP/Ly6sRbPcp1Qs/Mk55sn2HqU5UjgIZ48vqc4B+Hq9ik07DoJvQLeOBppcPfqOSpMOcnUug5Z4pELBCcLUybuv03DIsq9/dLkp3Qo48HKy2+4HvWYAuaa3A9aR52mPZHYFsU9jzbhNy7i0m4Rq3v7EjCuMa3n36ZEQXOSk18TGhxKreGrWNK3Bsfm96B+32U4Fy+LytNQIqV5WbptB9UKGCJLf8PgxmWZe/wJRT3suH/7Ia2mBDC6qSPNjI3Qnn+FxU0KEH/rIHXrtuK2xApP21ycPn+bluPXMrt7ZRKu76Wwb3tcS5UmPeoiYRQjcP9anPSzCqH3hU5nZa/yjAkuwp3DM1FTkdC3pjtHdPy4suHtzoKMCXtyNANbNWHBvpsUKFwYrfR4gh8mM27dXlpZ36NceT9w9SWvyiNSHew4uuMNIQ82Y3IrAP2Sgzj39BYFMwwuLXxscG27hkEZFo/761ri0mo9rRaeYGkH5VkPUefX4FWxM8XrNCHtYQg5c8l4oF+dy5t6M7ScG7sk+clvqsLJM7fov2gXfWq7fbntihCCgCDwSxMQAuGXrr6PM/8mNoTDFx7gWaoCeQy+7gwB+fLBuZMniE3KQelKvih2A37mSX8RwaET17By88HNzuijUOmvnxF08jRxqZoU8imHg/HX5eXDCKWpLzl7/Dgxr2QUKFqa/Hn0kT05RT6HRowKicTPWjka3ljaCa9p8cSFbiE3kJ4YxYEj51AzcqCMjwe5Phi7HwSf5nrkKzx8ymD9GV7y5ZYrQccJfy6lRAVfrHTfL8Cnvozl2PEzoO9AOR93PtjJ+X+3rsTYuwRduIGqni0VSnmikbFMk/bqKcdPnEXPuSRFHQ3/73TkEaS9iCDw6FXcyvhiZ6j1Pk5pOjfOHiPsWTrFypTFUj+bW3S/Sa5EJIKAIPCjCAiB8KPIi3T/bwKS6KM4OtWl0ZqTDCyfB6QpjGlRkeNGLbm8brAwgf/fhEUEgoAg8F8mIATCf7n2f/myy3h4MYB2Hfpy8mYU6tomNOo+jhnDWmLwgb/DL19UUQBBQBAQBL4zASEQvjNwkdy/Q0AmkyruqhCPICAICAKCwLchIATCt+EoYhEEBAFBQBAQBH4rAkIg/FbVKQojCAgCgoAgIAh8GwJCIHwbjiIWQUAQEAQEAUHgtyIgBMJvVZ2iMIKAICAICAKCwLchIATCt+EoYhEEBAFBQBAQBH4rAkIg/FbVKQojCAgCgoAgIAh8GwJCIHwbjiIWQUAQEAQEAUHgtyIgBMJvVZ2iMIKAICAICAKCwLchIATCt+EoYhEEBAFBQBAQBH4rAkIg/FbVKQojCAgCgoAgIAh8GwJCIHwbjiIWQUAQEAQEAUHgtyIgBMJvVZ2iMIKAICAICAKCwLchIATCt+EoYhEEBAFBQBAQBH4rAkIg/FbVKQojCAgCgoAgIAh8GwJCIHwbjiIWQUAQEAQEAUHgtyIgBMJvVZ2iMIKAICAICAKCwLchIARCNjmmp6crQqqqqiKRSFBTU8vmmyKYIPD7E5DJZKioqPD2p7yfSKXS37/gooSCwFcQkMlARUUVVVXlS/L+Iv+dVCpDXT3jl18R378dVAiEbBB++6F7/fo1cqEg/xDKP4DiEQQEgfcfurcCQf7RU1dXFwJBNA5B4AMCbwWCvK8oBYJUIRC0tHKhoaH+0/ESAiEbVSIXBfJ/rl69yosXL8iZM2c23hJBBIH/DgG5KJA/KSkpilmRlpbWf6fwoqSCQDYJyGQqignmWzEtt0bLHzc3N4yNDbMZy/cLJgRCNljLKzEtLY3z588rPnyWlpaKGZJ4BAFB4L0FQW5pS0xMVFgOjI2NBRpBQBD4iIDccqC0Hsj7iVxQP3z4EGdnZ8zMTH46XkIgZKNK5BWZmprKpUuXyJMnD9bW1tl4SwQRBP5bBOT95NmzZ4oPn7m5eZbCvzWp/reI/H6lfWsp+lTJ3pvNldYk8XySksJ6oBQIMpKSkggNDcXOzg4TE6OfDpkQCNmokrcC4fLlywrrgY2NzS/rg/B3HfxDFB9+1D/1bnbCZAPxu06TnbCZw2S3PNkZoLIb15c4ZbcM2eGZ3bh+dDh5WeSWtri4OMUSg5mZmeKn/HnLPjt18KPLIdL/ewLyOn3rk/XWIfVT9Srq+vMc3wsEFAIhJCQEW1tbTE1/PqubEAjZ+CIIgaCElJ0B7WcYZP9udvN31f0z5P1X/bAKgZCND8lvEET+LZT/89ZRW17vcv+szLu63q6x/wbF/VeKIATCv4L1x0UqBIIQCH/X+v7poJ4dwfXjWv3XpSwEwtfx+lVDy7+F8h1ccp8s+c/MywpvhYFcMAgfLWFB+FXb+FfnWwgEIRCEQPiy6VksMXz1p+WXe+Gt9eCtUJDv6oqNjcXQ0BADAwM0NDTeWRh+ucJ9pwwLC8J3Av29kvmVBYJ8FVi5EiyTrxEgQ4pMqjysA8WWG/lBHfIQcseZ985Fqqoq7zq6Moz8HaXnLcgP+nj/d/kfVRSzCVVF3MowKqiqyQ/OUb4nkchnHhkevDK5mTINVcVhU8rDdRRxyM+XUJPHochgxqE7aspcyVQUP+VxKbYISaVIZOmoq2ooSieRpsljQlVVHZlMFalEnj/5wVbyl6SoKfKiTEOeP7lJNPP/KzqtTEpaukQx+5FkhJVIpajL8y2TIJVIUJfvVZbnRXG4ifLALJm8rHKcGQ1S6YKkfOSOSKry/MpDvS2TIqcqSKQqcpTIJPJ8y9OQc1TWhNKPSc5dXkc//5kbn7MgZLau/FNLy/fq5/8snbe1rjwUSul2IW8fyrYu/3e6VGmCl0mV6/cqqhlb3eRtQCJFXUP+N6mincjbm+KMFUW/kccjVcaiaLcSZb/LOGxHHp/yoB2p8twJRVhlm3kflzy8vA3K+yeK/1bmSt4elcuG8nTk6SosABne9cr+/H6vvqINZ+zZl4dKl6Dov7du3+HixUuULFUSmzwWaCjKIgEVebyqynhV1ZFIMvqeTIaavNHL05en8a6t/zP6v+JbWZ0Ukwm5GYKdnT0mpmKb469Yn4pOLd/F8Cs6Kco/W0qRIP9wSFDlf+y9B3NcR5ItfNrDNLwHGh4EAdA7WUrUyHsvzeyb2dmN2Bfx/tEX+/bt7O7szu5ojMzIjvxQoicBkjAkQTjCew800P6Lk9UFNFtNoUkCYAO6l8Fgs/veunXzZmWdyso8GYTP60dHZw8W5tyo3bEDqamp6O3rxfTMNMpKSyXdhhN1IOAPM0f64PN54Vn2Ii0tHQF/QIycxaKMCI2bgAMO95AJ83MLGB4ZQWFBAdLT08VIcIIOBqQXmJ2ZwejYoGSDpKdnwC/MlMoork66QJB/gsrYss+dnd2SReJ0JsNm5wQfgClkVebO5IUJQQwMjmB4cAp+nwVmE42mDxWVpSgozJYgOhpYRXKljKRaCVmU8fQH4A8G0Nc/CFtSshhT99IiykoK4Ux2wO/zwmFPgt/nh9frQ29/n6ya8iUgj4bQIkZa5BEOzjObLHIrPpcCDAqcABYExNCG0NPVA0eSHWWuYgEIFpkPlKyIIEzYGqydkR6E/Px8ed7tCQoizRjfkR5lCiDIOAiasbzsQ1dXN5a8S6isrERKagpu3OjBwsKiBDrnZGcrIMgJX10F96IbgWAAycnJoicW6qoJ8HPM8UTqh5kkVMDM9BxGx8bgKilGqjMZoZBfge6QAsdTU5MYHxuTyScpJVkALm9msRBUK6vAe/Ej70XdJBnc4NAg8nLzkJmVCbNVTfgm6rSoI8GNDSGOS7MJLa3tuNZxHQ89eD+K8rNhsdDO+MLv3QQPGWjNFkxNzWFmZh55uTmYGJ9AisMBV2mpPD+xscIikdB6S04Va3ZaAzK9eFhe9qCtrQ2VFdXIzctc8/rNPsEIUoxD4tsHIHCQhzAzM4d3fv8nXL/ehddfeRM762vxwYfvoaOjA8888zQee+xRteIwh+DxesVIXb16Bf19fTh69FFkZmQoRkkxFlylc7LmZE7raEJL8xUc/+47PPPMU6jduUNWTuK1IAYIAWfPnkFj03m89tqrKCkuEeNHFjFZrVs5yRIp0NcRACdYgoShoRF89tlfcf/992PPngYxyn6/F3ZbkgIW8HCthrNnG3HhXCtu9AzDZrML2Hn46H3Yu28XHHa78kIQSsiqin1SIIfvOBQIYm5+AX969z0Uu8rgSErC0PAAnn36SWRnpSPg9SApKVmuHxkewZdff426+nrsP3BAABWfg6tB8dTweQWUKXpuPg1BFE0gn1M8K1YrFhY8eO/dd5Gelornnn0GScm2MEAQ+GIAhDjG5709JQogiKeONNMmTE3O4p0//hntXdfx2uuvYd/effjtb3+L3t4beO2113Ho8CEkOazw+4KwyWo6hMuXmzE8PIwHHnwQWZkZsvKWOZ8eCRMBLSd5BQB6um7gs79+jueeexY7dlSKvgS5CDBZ4PMGcOHCBZy/cAFvv/UWCgoLxKsgem82y2d6ywiYlWdQ6Wt39w2cPnMae3bvwf6D++AngKZnLjx9C6A2WWVG9wVC+OsX3+C777/Hk0/8DD879jCsgocD0k+TxQIfxz4suHixGV2dN9BQX4dTp09iR1UlnnzyCfG8KYCgvZiJ7y27G30zAMLdSC9Br93KAEE7QJUHQU1c09Oz+H//8lu0tFzFc8++gL0H9uLdD/4ohB2ctJ9+5mcYHhyDe2lBCG84+X304Ufy+y/e/DkqKssxMzODmblZpDnTkJObDavFgonJaUxOTGF8bALfn/gOL7/8MnbUVGNiYhILC25kZGYgOzsL586fw/Hjf8Mvf/m/UFxUhNHRMbjdbuTm5SIzM0MM2GD/IDwed3gVZYPDkYRr166hqqpK9jtnZiclRSg9NVPSgyxWejWC8myjI3P49OMvxei9/PILSElNwsLCvLTrdDqRlpaK8fFJ8Qrl5GRLn9jW2OgY5hcW8dcvv0LNjjq4Sl2Ymp7Eg/cfgs1iwujwsHhBcnPzRJaXL19GSWkpyitKMTs3h+HRMaSlpSE/Lw/+gB9jo+NITU2R1L+cXPVsfq8PwyOj4p3JzslBSrITv/nNvyErKwM/f+sNOBw20Jmi3L9qq8ZEL8QWOAwPAuS9Wy12BAImjI1O4t9/+5+42tmBJ596Gg88cD/+/T/+A0NDQ3jrzTfx8MMPYnp6WnS2rKRYfEXvf/A+BgYG8Morr4h3j+Nsanoa6RnpwrRnMZswO7sg+kvQ/P13J/Dqa6+gtrYKI2Oj8C4vIysrGxmZafjbt9/j9OnT+Kf//U/IzsnC9OQ0lpaWRQ+zsjJFh4eGx7C8tCQeC+UgMKHjegcqq6tQUJCP4bFR+DweOJOTUVJcIOPc5w/CYrNgdt6Df/3X/0BLSzPuO3IQf/fzN5CZlg6vZwlDw0OyTRcyW2GzO+DzBdF3ox8uVwn+9Kc/4MC+3Xj++WfCAIHbDxogqG3H7XoYAGEbvtmtDBD06+DKQe1XmjA5MYt/+df/xMjwBGpqdqK6tgqnz5/Ewvw8jh17VNyfn332CWZmZlFRVY5du3bhqy+/xED/AJ5++inU1uzA8e+OY3p6RgzXsWPHZOB//OEn6OsfgMPuwPziAv7uF38Hr9eDr7/6GkvLy8jJzcGTTzyJgcEBnDlzEr/65a/Q3dON06dOifu/qLgYTz/1lLjvP/nkY7gX5uDz+gSkPPjgg/jss8/w3HPPi2uUAIOTckmhCy+88BzKK/IRCNKLYMXivA9/eOcDWaX/+te/RHv7Nbz//vviUdi5s054z2k4GYldU7MDL730PNraruHEdyeQmuZE/+AQ7n/wIXHLdnV24pWXX8SV5ktoabkEr8ePwwcPo6qqEl998zUaGnahdudOvPfBB1h0L8he8MMPH0WSMwUfffghcnJyMDIyKtspzz3/HLq6unDm9BksuRdRUlyKZ595Bh9//KGsFt9+6zWh8VYAYTU2ZCvEIFDPDICgtvK4yLeYbRgensB//8876OzvR21dPfbv348vvvgCbvcinn32Wdme+uqrr2TLoaggH0cOHcLHn3wiLv7Hf/YzlJdX4NSJk5hfWEBGZjoee+yY/PvF519gZHgcZrNNJvdf/uqXmFuYxYmTx2UMFxe5RAeHBodw8tRJ/MM//ho93T04Fdb5yvJKHHvsMczPz+PTTz+TBcCS242iwiLsqK3FpUsXxYNBXf7y6y/hXlxEcWEBXnnxBRQVFcBut8HjDaG7fwDvvPMnpKWmYnZ6Cm+98Tpqqytx5tRpfH/ie9iSHJiencOuPXtQVlaJa23XcPjQIXz+xSfYv3cXXniBAIEeDbUlp4ABGWoNgJAo06ixxRDHm9jSACHsQhCCk3AA0+T0PH7zr/8Fr4/uUCsKXYUYmxzBonsRu3Y1YGZmGmNjYzhy5DCOHz+OvXv3wOvxYnhoCD//xS/wySefCEXoE088gVMnT8pyl0xgnOifeOJJDA4OoaWlRX7nKpur6oMHD+Lbb79FUVGRuDtPnTopv588cQIVlRWorKzCN19/jZodNZifm8fg4ACefuJxNDZekBU4tys4yb/xxhvidud37MOlC5fw7LNP4+GHDyEQWhb36tyMB++88x7sdgd+8Xdv4NrVq/iv//qD9O3AgQMySfPaGzdu4Pr163jxxRdx6tQpIffZsWMn/vjue3jgoYfg8fnR092FF557Cn/54D0cOXQQGWnpErtRUFiIr77+Cg27dsHj86Kn54aAp+bWVgEuFdVV+PZv3+K+++6TGI8TJ07gF7/4hezxzkxPY25+Hi0XL4lR/f777wQgvPnGaxJfIfvRK25XKujWcLsaAEEF/dFzFfCbxDPwH7/9byyIK98iZDiM+OfEvG/fPkxNTQnzJAH48e/+JkB7Ynwc4xMTeO7ZZ/H9iRNYXl7GY489hjNnCGg9AkzPnDmH559/ETd6+tDUdFFW4twWcJUUYO/effjk07+i1FWK9IwMYX+lJ+/jjz/CwYOHBGyfPHkSpa4y2Sbs7u6W37/55hvpO/vFsfDoo48iMzNTvBIEs5cvNuHF55/FkSMHZUvA4wvgk79+LUGKD9x/H7798ksc2LcfDz/wIH73u/+W++zZS8/k+6itr0N+bgFaLjXjZz87hm++/QoNO2vw0svPyZYEAYKCVoQGjI/YvgBBTzdqsRaCx+NDa2urEYMQxzycsKdseYAggVNhgAATJqdm8c///G/IyS3E9PQ8JiYnUbWjCtPTkyivKMfw0CD6+/tRWlaK+fk51NXViaEaGx3F22//HL/73e/E1f/qq8/j+N9OorWtDa4SF2709opXYGR0BJ99+qkYiJbmZjzy6KM4fHgfPnj/Eyl2VVJSLMDhoYcekj3Sp556HDt37sA777wrwZBc2WekZ+DVl17GyZPfo6OzHQ8+cL+4XwkQrFY7Ll28jOHhMcxMz+DVV17EscfuB0xe+P0hLC8F8Iffvy/7rb/6+5/L1sR7f/4Qr73+OnburEZTU7MAmMHBQbiX3OLVOHf2HJ58/Ck07NmFf/3Nb1FaUSHXd3Zex7FHjuKTj/6Cf/z1L1FbU4WFeQ9m5+fxP7//PeobGtDX14fM7Cy88fpLuNB0GSdPncbO+npcbGrCSy+/JPU7PvzwQzz++BMS79DU1IjBgUG45xfwj//wDzh+/FsJ3nrz9ZeRlOwIBzgqkKCOrWEwDYDA+BKCARsQNGF8fBq/++8/ImSzwb20hLm5eRlfoyMjqKqqFrBAsEpQzvH2yKNHBTRwjDz5xBP46KOPUVhUiLfefAWff/Et2q60oqS4CBMTU/jVL/9e4gU++/SvOHT4IM6dO4Onnv4ZDh08hD+/+wEWFxaRX5CP5uYWARhffvkF3njjTdRUl+NPf35fYhQkjggm/J//82t8/Ok36L3RK2Dl7NmzeOSRo3CmpeF8YxPGRoYxMz2JX7z1Bu6//7DEEk3PLuCf/+U3mJ6ZRU1NBdqvXIOr0IWnnnhKPGcPPfgwDk/gWL0AACAASURBVN+/F//f//03FJYUIzc7B1dbr+ChBx/E9yeOo662Bi8LQGDQMAEC43L0dtrW0Pe7mbAMgHA30kuwa7c0QFDZVxI4Rw9C0BTCxOQM/t9vfoui4lLMLy6h5XIrHnn0GEZHh4VKemxsBAsLC3j46EPyLw0NXZS9PT1488038cEHf4HDYcfzz7+AkydPyJ5qfX2DBEW99tprGBkZllXKgw8+JAChuqYaRw4fxgd/+YtkNRBMnDh5QgzXie9P4Mh9RyTK+7NPP0NKaqpMh7Nzs3jpxVfF0zA8Mohjx47iLx9+gBeeex5NF5vhXlyWVVBHe4cYxkcePYxAcFkivOfnvPjDH96TAKy///tfoLmlWcDJ22+/Lfuvf/zjn2TS5mTNFdTzzz+PkydP4cC+g6iqrsHvfv8O9u0/IAFa169fwzNPPYG/vP8uXnjuGWRlZGF4aASZWVn48quvsHvvHlkF0mvw5puv4+z5C+jvH8DO2lqcOXtW2k5JTsZ777+Ho0ePoq3tCvw+n8QfdF7vwOuvvS4AobAwH6+9/CJSnUkSLS7pjlvMThoAQXkQONEx1XZifBr/8/s/wpmZhfnFRTQ3N+OxY4/J/nxZWbnoDWMMuHUwMTGOnTtrcenyZfHU/ezxx8V7Z7Na8cbrr+CTTz/H/MIcCgsL0NN9A6+8/Cq6u3tx/Ph3ePKpJ3D+3BnU1dfi8OFDeO/9v8CZ6kReXh4uXrqEJx5/HJ9//jkeevhh1FRX4KOPPkNebj7c7mUZ3z//+Rv49LMvxHO3d99eGZOcyDu7uzHvdsNVVIiuznY88+TjuP+BIwo4d/Xg//7m32QcZGenY2xkBAhY8MKzL+HrL79CbV2deCD//b/+U7Yp2Zerza147NgxfPvtN9hVvxMvvPgMrBYGTCoMHLk/n2BTwLp3xwAI6y7Se9fg9gEIAQUQpqbxH//5O5RVVEm63ZnT5/Hk48/gesd1VJSXIdWZiq+//hp5+ap4COMSmJp08rvvcfjIEfmOBUa4X87gvj17dqO+rg5/+vOfhSiFwX90pb/wwguYnJhES2uLBDNyC4OTpGfZg9NnzuDVV18Vo8kVuN1ulxUNQQON1jfffIu8AhfGx0dhs1vx+OOP4tNPP5Ftia6uXgz0DyI1NR0zk1N46qljeOxn90sMAl25iwtevPfeh5I18OZbL6OzoxPvvfuhgJvMzCyZrOnmZV+ZBsZtEwZmdXR0Izs7Fx3d3Tj66DEBCN3dnXjrjddw6rvvMDzcD3PIhMKCYtTX1+O7kyfEJZubl4cPPvgAeQUFAmz27tmDgrx8fPzxxwKY+GwfffQRHnjgAXR2dorngsGS4+NTePWVV8SjkJmRhjdffxFJyQZAuHcj/U7ufHMWA9NcOaaYmjo6MoE//PFd5OQXwOFw4Pjf/iYeJWYq7GpogNVmk4weTuYenwcvvfSibHtxu+DggYPy+4UL55GbkytbUocPH0R+fh6O/+07LHt8kv3A+IVXX30Fff096Oq6juTkFBlfRx95RCpr0jP25ltvobn5soB89oNZNE88/hSmpmbw5ZdfyqKAmRPMTtq3bz8amxrDAKEHA0PDyEx3YmJsGC889zTuO3IYjJn9+tvjOH7iJN56+y0UuvLR39uHr784joaduzE7PYfe3n5k5WSh9WorDt13CCVFhWi91IJHHzmKkydOYkd1lcQgWK1hgBDmkNgClB93oiQ/uMYACOsixsRoZMsDBMU0hKApIHn6Sx4PLre2IcWZBkdSMob7R1FRVomxsXFkZGSguDgPzc1tslVQUVaKmtoaCWK6cuWaGDOu9hlpTbdoYUGhxA04U5Nk4u7u6ZJAqoA/KNsGdocDV65cxfTUFFyuUuzYUSP3YZxCQ0ODpEO1tV4R8EBDVd9Qi8uXWnHy1Cnk5hVjYpLVAb145ZWX0NXVKXusbvcS2q91wmZzSDpmeXkxKquKYTL5BRT4fEBLyxXYrDY07NqJsbFRXL16Hbt370ZGRrrEC3CiTnU6BZTs2b1bljCtzW3CZWC3JyErj9kbFkxNTmL3rnrMz86g/doVyULYvWsPUlKcuNp+TbZLGFNxtb1dJn7m/9fU1CAUCODypcsSmEb94f0oN4Kfjs4OJDuSETJbUFVZifHRUcm0oNuVYMjwICTGuI+vF5qKTBMl8f9MzQWW3B60tl5BSpoTdptd0hurq2vEc8DgVWbQcGyMj4+huKRYtvIIXNuutMHpTENlRblkDjHIlbE7tbU7hC+jq6sH/b0DSE11SmpxXcNO2KxmtF5pw/TUpOxnV1ZWSCwDx+jevXslgJTbegTvrpJSVJRXoq2tHX/77m8SlDw8OCSA5PHHH5exyu1FPklL21WkJDtgNQdRUVqKsnKXbFc2t7TC7fFg1+5dSHGmYMm9jJbLbUiyp2Cgfxg3em6gsLgQV65dQV1DHe47fBAjQ0Ooqa5Cd1e3cEDU1tZIVobQkvxkAYIXra3kQahEbp5BlBTfmEuws7Y0QIii92PqHFcQNx0hneWsv42vXKu4wKP84HHVFxDixJvvoVjahDEGJ0+ckpUN0x65l8rI6hdfeE4IXrjqV8eq/12742UTJcxkF0EKGSaFifLXx3jE1T6FGeRuakRdwDSwFYa5u9VTYYdU7erAxMiiN3fb/GZf/9PcYog1ZlZ1TTFMxjee1go1uZlLSLMcRrYd1qUYy/Do8cYYhDOnz+HTzz4TgMDAWcYfPP304xLjQ14S4SMJEyrpp2R2jfCGrFTqJKFaCDamP/qCWFp246MPPxcPI0HN+MQ4nnn6KRw6vB9W22quwmp7iodh+xNqRZnclSBFgshWWTwwsDPRDiOLIY43sqUBQhzPd6enaDdZ5PWxBnos0KDYDFcPypgTDCdIukYvXbokbk9yHogbPzdXjEj0BKrbjiwaE+/zRPf1h6BFpxquthjd73jvFeu87WYUf9oA4W40IXal1OgW4wLfcVZdZSomuUnIDssYInJ77N+/V7gW6IUTtudwLExkP1SWxuoCQ8BCQJ3Prwn0h4dHZRuF24z0sB08uB92h11SGqMPXeBpu42FtbRhdYvBAAhrySrhf99OACGWkVnPFxAvQIi+JzMX6B3gvxoE8DNzsbURkZX2LSL3IgFCPMYmlhziATLxGul4ZLqebcVzv40+xwAIsSUc75iL1tvIifhWuh+vDv3wPFKkh2TVz4mboEDVJ4kAw5b4PB/c5lB1HFhbQoF8EoGpttiuZnCMLZ/I8b3ROpoo7RsAIVHexDr0wwAItxbiWqvweA2brhKnz5cULBZvMtOFGS6gFDY+0SuayHvcTSR0vMY2nmeOR+3iATLxtJMo5xgA4YdvIl5wEO87jEf34gHpPh/HlCogtboLqYoi6K0MxW74w0Pqr6xsMagiTqu1TVbTc6kPmuQrsjS0bjGyje02FtZ6nwZAWEtCW+h3vkwS69AdV1JSIqx46+lq3mxRrKfRWi+DpfukXZhchWhD9GPG42ZDpfdg7yw/MF6AEH3eehq39Wxrs/XKAAh350GIvnojdUGXayYQ1x477T2gfrN4mlQilRzEtY7IAE0NGHQ1Sg0yVqtD/pQBQqTt4Gfyy7BYE4nmmAqaaIcRgxDHG+FgIkC4ePGiAARWFDQOQwKGBG6WAMcJiX4IFJjNsZETnCH79ZDAWpN/fFsMqprlWkeY7GCt07b573rbiAtMfmaaONlcybJpAIQt+vKJ9JgedObMGeFPZ3RuLONnGMTNf8Hr6Q2Jp/fR+8LxXPNTOofEPwQI2tgZY+Kn8PZXS8KtPm00+FgLjPwU5KTKveuYC9ouAoSenh7hVTEAwhbVAbrhGDDHAj8GQEisl7jZAGGz75dY0v7x3lA2pAnmeKGx+ykGn22l97V+fdXegWiPQyQoiMfLsH49StSWogGCrglDDgwDICTqW1ujX1wR0YPA1DtuMfBvrMNYLW3+C74XE7bxnmO/Zxo/FtEiQCgsLDQAwuYPh3t3x9AaHoJbBDzeuw7fmztHBmPrGARyRhhbDPfmfazLXYMhSLnipsZGlLpcKHWVwGKxAqZoVBxH1b14tvWk3ViIm4NwNehnXav8xdOvdZFmuBHD47ie0rznbengUrIESulubsOtRLdrXisWmIjo6nrr3Hrr1Fr9k0lPVSJUR3QH+D1tQhx24Z6/QaMDmyGByKBqHYNAoiQWvzM8CJvxBjbgHiRCY7RpU2NTBECwILQCEDQbnmXtu69ldMTORBqdWzVJY7SOhieefq39dPGfsd7GPP47G2dugAQ0QNAehFWAEJ445X1vV4CwlkDjsAtrNWH8vi0kEJmGHQkQqqurDSbFrfqG6UEgQGjUAKGsRIoCkdpXHSFVohfxGoK1ZuO1fteSXEeAcBOtcKyV0K1WSLovP7Y0NNDAVtX9ePsdCyBwdb1CrqsBQmSDKwtvfohXf2KNjY3Urx+7n6YiXktK6zlO17qX8XsiS8AACIn8du6wb/SUEiBcIA+CywVXWQksZoKBmwGCOS6AsJ7BOutleNazT/EKeb36Hu/9jPM2UgKxAEKQ4yPMuqPetvlmJ/wKQFgv/VvPVLr16lPYc7KRwjfa3jISMADClnlVt9FRVmbTAKHUhZLSVYCgTNLteBDiMTzraejiec54+hRPO7dzjgEQbkdaiX5uLIAQMAXFL0VuPikHFooACKbInfv10r/1HDfx9snQ40TXzUTqnwEQEultrFNflAfBgwsXm1AiAKFYVkLcZDAFQjCRbYzVuWCBP6AoghnJzT0mu91+Uy90NTSfzw+73bZaGTAUkmusVvVdIKCKF7EWQawjMpJeB76QEY3pmJrWlN/zszbempxDMaWRd301f5mMaTrCll9H/l9Tpmp2NZZDUOeSHW210IxqX/Gyq4Gw+pvur+Jqt97E+c7n28pVDNdJzbZ0M1rHNFFSQUEB/AIQgrAQGFAXwx42vy8As82CZZ8PoWAQFnNIPHKReqN1VeBFuILmKgeF0mseXq+q4cGDeqv1OjKdLDJyXI+HaGFHGm7VVri6qK62Gab91gyEauywb6sAIdZ4099t6ZdrdH7dJBCd5kjPdEtLiwQpGtUc103Mm9tQTIAQDMHOGdCveMhDfh9CDgeCoaAQX7AOO40DeRMYgLKwsIC0tDQkJycL2JiZmZXKaTabXWhNl5eWMT0zg8zMTAEF4+MTUg2NFJw8OGGzPfKncxJWNKhKDtoIMRWT10YaO210dREVtslAMqahsS9q8o9eeYV3jk0sVRuUvlOxMzIypGKb1arqI7BPfn9ADLTfR3BjkTKw/J5//OG2hd3dBLjdbgFBTmfqioHXfY3F1b65b9m4291IQAOE6elpeccECNyCk2k0XO7YFFRc/5xbx6cncfFKm+zSpacmo7K8QoFhE2TMuN1LWF52w2FPgjMtVcZYwO/H2Pg4UlJSkJ6ehpmZOYyNjaG8vAwOhyNcE0CBBOor+6TGjFX6xO+Zd65Bu9Y93XcNxvV1nPz5mffgobkd+FmVKFa/a0Cvxyh1mZ91mWcWKzIOQwKUgAEQtqEecFLkpN4Y9iC4XMWwBAFLIICQL4SQzw+zzQykJMEfDOD8+fOgoaSRHBgYkBxXli1OSUkVo6EBR05ONpaW3GIwaeBY5jgrK1OM2PWOdgEIR44cEa8AjVBmZrpM0DROs7NzCAb9MsnzWhLU8EhPT5d4Cf7lhK6NIhm7ePD7GzduSAllfkfDmZmZDRZv4STP853OZCwueuB2LyAzMwMLC4swmc2w22xYXHQjJYX3TMbS0iKWPV4kJyfB5/UKADJbzJiZnhGjnJqaArd7eQWEEPQMDQ3ivvsOw+NdEuOq+2gAhK09cGIBBElz5CQdCCLo9YsHwWS3S6W/9t5uXL56Fa5iFxanZ0W36usbkJSkJnqPxyvcI6JTZpOMAbvdgfn5eaSlO+Hz+mRs9fb1474j98HhsIn3Ljs7QwSp6dE5lqjTHBdkeeT3qakEHJDxpccPxwWBLn8n+OY4nZ9bEDDL8UIwUFpWBs/ysuh/SmoSJiamRPepuwS/7KvNZsXk5JR4B/l/guatXLdla2tl4vXeAAiJ907uukfRAKHMVQyrP4SQ14/xzh70XWlH5b5dyNhRAfKFsKhTUlISdu/ejebmZoyMjISNhRXDQxNITU1DkiNJDNXAYL8Yl4qKSplUrRYr+gd6MTs7jbT0NOTn5YshTEtPx949e1BYmI+R0TE0Nl6QFRY9DFxRXb/eIZ4I/n98fHwFXNAjcfbsWVkFOZ1OAS00lPQgdHV1yb1rauowN7uAubl5MabV1TXo6+sTkFNRXo70jHSZzAlC6BlJTUmVglVd3Z0IBpS712K1orCgAMkpyejt7ZXvCIx6unvg9XnhcCSJ8RwbG0ddXQ3GJ4YFrJBitKamRlZ1BgHRXavqPWsgJkAIBIFAANMjY7jW3Ir8/EJUNtTBZLehtfM6hqcncOTgEUyPTKK1pRXFxcVw2B3o6OyQsUHQkJmVhb7ePtGhrKxsAaycdEdGRjE8NASb3Y6dO3fKGDGZAqjdWY3a2lrx0DU1NYrOcgxUVlaKvhNguFylAkI4Tngtdbm7u1vuSUDBcUCAPDkxLd6MJIdDgK/X48P09BQyMjORlZmF9utXUVJSBPeSW8ZRZkamjPPOzk65Z0NDAwqL8kXvjcOQgOFB2KY6EAoAS55l8SC4ShVRkskbQGjJg28/+Ah/ffdDPP36y3j4jZeRlJqCpqaLYhRoIHpv9KK1rRV2mx02uwMImVFYWIzu7i5ZqVRXV6K/f0BWR8EA9/UhKyS68Ts6OmUFU1dXL8aMQGD37l0yAV+7dg0762rlX3ohuIfFvf2RkWFZXVXX1KC2docYvDOnzyA9IwPLS0tYWl4SI0xDNjI6gtGRUeTlFcLrC6Kyogrj42OyAuI2BJ9VtgRSncgIeyZoCHl/bptwm4Ggg0aXxp1bK/ydXgF6Q/gbQcCePXvkGu3aDQQ9KCrOlbZpwOklYX8MgLB1B1CsGAT4AzD5/Lh4+hx+99v/xM66evzD//4n2DPTcK2zAwPT4zh88AiWptw4d/a8rPLpDSOgJrjmpE0vV05OzsoqXW8dcLXPybujo0P0ioA3I9OJoeE+HD36CBYXF3DhQqOA1MGBAUxOTSEvL1e8FK2tLeKR4CS/d+9e2Ow2XL1yBQuLbvGEcRC6F72Yn1sUfebY4jYb9bO6ugo3bvRieXlJ4isIAEh0Q+BNQJ2TnY2p6Wkp6NawqwE52Zmw2eJNf96679/oeXwS+GEthmXRRyMGIT75JeZZgSCWPSpIkZMmUx0tIcDk8WOwvRudrVewc+8eZNdUwWI3o7HxohithoY6tLVdw+joqAAG7udzq4HBKKwMycnzkUceERcmDaF2h5JkhopEA0nDe//990sbXN3v2tWA4eERWaXQuH3//fdyHSdhumevXWuX8/bv34/8/DwEAj6cOHFa6KHpUp2YGJeJWccncnJPSXHCnpwsQKSj47rEP8zNz2Nn7Q7ZWhC3q9+PZfeSgJSrV66hvKJMVlxZmZmYnZ1HYVEBOjs6JY6igJX8zCbxhiy6F3Hw4CFcaWsVL4LP7wMBQmlpkfSTKz8NEBLz5Ru9ilcCutwz9YUTZojepRAwMTSCi2fPCYjctW8fQnYLrnRdx+DEKA4fvA+TwxNoa7mKoqJieLzc2nJjz57daL58GbNzc9jV0AC7PQl9/X0IBQNYWlpGbl6ueBQuXbyI5JQU1NRUIynJjp6eLhw9ehQ+n1fGIYFsV1eneBx4f4J2bgHSW1dcXIT6+joZY1NTMzh+/G8CRAoKCjE6Og6rxYaZ2Rm5joCAwPrAgYO4fPkyFhYXBZA4M9KFgl3HCuXm5mBudk68G6Xl5ThyaD8cdsODEK8Obffzbs5iYLlnjwDMqspq5OZlJdzjG+We43klAVXuWWcxFLtcsDIw0euDOWRByBeQvVUGaftDQZw9ex7Dw8OywuEKmS5PRndz1ZKRkQkakfb29hW3PX+jm5N79tzr5P+5YqGRpdHldTzYzo4dNejt7cPJkyelfRo6rry46uKEy5U4lZCu+5ycLIkt+PrrrwWM8HcCBYIRAgO2ze9TnU7ZwmD7BCsMmBzllkRqqhhigomF+Xm4FxflXrw/+0vvhvYSZGdnYXh4FB7PsrTPfmVn52BublaMMr0h3JcdHR1DRkYaZucm5ZkIhg4cOCBbMoYHIR5lTNxzogECIxRDfj9MIROC/gDMFotk/4RsFrRcbUVjWzPycwvhmXUjLzdfwKfX6xEgS/BLw0nd55YY4xGoa3Td08swODgo31FnCguLMDMzLdsGBN8PPXS/gNavvvpa9JB6T2BOYM2YAV7PezHosKqqEna7VWJlvvjiS2mPkz09c4wZ4jjklgTjJhh/42cwcjAk2270PBSXFEs/CSzYLscf6aYJcrh9UV+/E0kOlWVhHIYEbg0QapCbl5lwAjIAQjyvJAIgFIc9CDR0VmZ3ExwI5boJQWFXDGFoaGRlH56Gie5GGjkqB4OiaIQIHBgXwL1+fqZLtbi4RCZRAgROsjRg9ETQGNI4MjiS1/f1DeDChQviPnW5SuS3np4b4hkoLy/F8rJXDClXVDSwx49/L0/JlRD7QgNMY8p4ALpqMzIzmKQuRpT95FYFAcTUNN2yeRgZHhaDmpqcAvfSEmxWG5xpzvCzcJs5IJ/ZrsVsxdDwoGypcPLnyis9IxNzs7OyXzw2NgqCCf5LedAYc0uCMjGCueJRxsQ9Jxog0JNgYaQ/U2IJDSSlwYSgKYjxmSlc6+lCwOdHTmoGqiqqML+wIPv9XJ2roMJpmaC7uroxPz8nE3VZaSkyszIxPjYm3gUC7uysLPF6ccxUVJSL7nObjMynHBvcfigqKpBxQ70uLXUJaGBKMWMauK3HdEl6GXhkZWWgf6BfMnQYkMg2CDQWFxYxPjEu9yQ493i9Mmbo3RsfnxS9ZmZSV1ePtEOvhtOZAqvF4EpIXK3d3J4ZAGFz5b05d4sBECSdj7iAnAHcbjAzxY//Qgyin/EEzO+3WmRrgQaJE7jkdEsKoB+s4sWJnZMvV0z5eXlhYhnFPKtzrlUqocoT52dmCYyNj2HHjh1qUhUOBhOYTqXTGhnfwKBFRoNfvXoN+fn5KCjIV4ZaJmNIWyoljKmOIVnhqfxuIOBnmlhAjDb7SXDBQlUqj5zXKh4HHqqf+lqmYKrnZVua90ClhSl+CBpmnXamvQYGQNgcVd7Iu0QDhEAoCDO5MjguyCsglGJAwBSSYF4PgxhDQTjA7Sg1TpQ+Kb1kewyK5Qqd+kGvWFVVdVhfqes8W3NuKA4OTuTkGGHmzejoiGxbpKYky33Zl0BwlVuE45TBhypl2CQBtxy/vBf7QBCt9VunD/O7Vb4PFVvA8bCS7si+C6eD7hu5UAwPwkbq3VZq2wAIW+ltxdtXHYPQ1Ah6EEpLy8TA8WVbzGF2OAIFIU6hgVvlb1eEQ2EDxHQIqNxpPXkysImrb/7VkyqvEfMiBDFcoTN4cTWXmsaLKx7u6UcaIk0uo/Ox1YQclJUV3Z9sX03Eyqjpe9DoESBE54XzXLpxuQ1BEENvQ6xtgGjehUhiGmVAI8mT1HOEQgrM6D7E+yqM8xJTAjpIkcGtOgZBSo5R38KVFjghU2EFIISJygkerAJQlS5oMiTFLcBJOiSrfh70KtzM86HIiiJ5C2SfL9wOdZceOM2LsEqSFC6utkLAdLN+KmCgesi29XWrRE6KVEyBYpKF3cxzoJ9Be8Q0X0livjmjV5spgUhbyM/09ra1tqFSYhCMLYbNfBfrdi/mcdOd2HjhAopKS1BWVi5bCmqNEJ5of8g0H/P+K+SFEb/qVbv+Sq+2f+wBoq9ZvfZmYxXrflH2LGZpae6zRh/CGLluh+F2XTdRJkBDkYCXEzvjZ4IkRQqPEU3FRWgQEI+X2m5QXjhd1Ek9SCzdji8+JT6q5ei2Yo+lOKiW5SHW1uP1HTcJ8LKNLty1BDSo9Xh84iGrrDAAwl0L9V41wPRDrka4788gv7Ly8h+sGsQ0resEuolPK4ZOMUL+6HHLn6Or8elWVqrxRDW7nkBjE+Vk3OqWEogFECTeIOIKTqWEBso4EmMrPTBLEE8snbiV/kSD10iYvl4vaZWGfLXFqD7SjRjPEedp8TRlnLM9JGAAhO3xHuUp6DLUAMFVHBsg8LxEBAhxrcZiVbSN9d3ai6Vt9NaNR7kdCdwKIES3IQAh7J1aKd30Q5dWeOts9epYnrAf9i+W0v7wrPg8CDKif1wE3DqLR0hbdeEQz7MZ59yRBAyAcEdiS8yLAmGAwC0GDRBk9RNpj2gp7tAQxDWJ36Fo4mo7Vln7jQYIcVnWO3xo47JNl0AsgKAn4ptUiTN9GCDInr54FX44lqLVIy6AIJ6ItUFCfACBfVpLSXXY5Y+L22RkMWy6Pib6DQ2AkOhv6Db6xz1VehAaGxtRWFCIEleJRERHHuFd1dto1TjVkMDWlUCsmAB62piyy/FCPoLI4NVbPunK7sLqZLwKam93i2FtcHB7EmefolcBN496+d+P3XYtjHF7HTLO3mIS+OE4UXEyqwDBI5wbJPTKy8tJuKczeBDieCW68Mvp06eF9pV51cZhSMCQwM0SoNGLBghrySiWh+tWAbhrtWX8bkgg0SQQCyDotFj2lTw1JKdjCm9+fm6idZ9l2uNy3iVcxzezQxognDt3Tsh/SDbE1Kmb1hKGGDfzlRj3uscSiJXax3HCtF16EMi7Ea9pMcbSPX6Zxu03TAKx08JXb0fa8CtXrginjQEQNuw1bGzDGiBwi4FZDGQwjPXi40vF2ti+Gq0bEtgMCcSa/DlOyAKqAUK84yG6rXiBxWY8p3EPQwJ3KoHY+s/tBbao9qVYi4EAgdVGycKZaIfhQYjjjWiAwDRHeg8IEAxa4DgEZ5zyk5EAJ3WOExIlkSWTnrZ4AUK0oaAnEgAAIABJREFUkAyA8JNRm23/oD8MiFWPrB3OJLEjDwJjEAyAsEXVITLNUXsQDICwRV+m0e0NkYDOYqAH4W4BwoZ00GjUkEACSIDAQGf1kljUAAgJ8FLutgsGQLhbCRrXb3cJGABhu79h4/nWQwIGQFgPKSZYGwZASLAXYnQn4SRgAISEeyVGhxJQAgZASMCXcrddiiRKirXFcCui2Lu9r3G9IYGtIoF4AcKPsQpslWc1+mlI4E4lYACEO5VcAl/nCwXh9XjRdKERpcUlKC8rg8lsFp55kq35WdbZpOrIScU6lrQNBGG1ssRzQErZsnohq7qxBC7r30rwitSHVg9OAyvVGCVJVpWEXmGik2qLOvoVUpqW+bMs50x6Z+GPC9O+moTAKQTWj5B2WRCH1wZViV1+1m1J6VqTmRV3V8pE61LQCfw6jK4lqAQYe6CrOZIrZEW9pQy6CUFTCD6xkCFYqd/+oJSCDplNMp546IqJimRptZS4qhXC8aXGjB4vmnSGFU5ZXZF/WdJZ8xPR+8fy4oqYJqgqq3IccKwFOa5YjZHjVZWYVmNRj0l1ngqa1OWl1W9q+JI2OrjSd7YfPlNVepX2wudICWlV1VXGp3xm27pSq+pPZGzTnQZ5Jqh6GN2KqGxLYVAHbo5BMIiStqSS+IIhqeZ4MQIgcFINsWyynqBBoxeSiZuDfHJyWj477EnIzMwKGwaeTyOgDISwM4fr0Wtj4PP6sOzxwpniXGGi0yWdWZI5bJ4EgJitCpDQw2Gz2lYMTFAmfpMCGzBhbm4eDrtDSt/ypjRSrKMn7I8CSMzw+wKw2WiwVEEdAR8GC9yW1Nd71elogCCTOAEogQBLj5tD8JvN8IV8CHo8mBkaRdAfBOx2ZOdkIymJ5cupmwQUUjwdPr8PdpsN1OlAwAeb1R7WW07Qqhyzqn5qVpM8B0UYFM/NzcmEnZyUDJvdhgDButUClpDi+KGOK89HEDabVf5V6WcEAxZpTwHuVUBCHCOg30ogooA+WVaXltxwOp2wSPsce6r4mcCBIMGHGT6fX+7HktV+v2+ldLUCBavMrOq+JvndOLaXBCLZRQkIbwYIBlHSlnzbgUBIFWvSPAhlparGvT/AGT48yQYQtFllku7p6UFT00V4PF7k5ubhkaOPympCjBPBgaxmQmJMvB6PgAS7zS7R36wPPj01haKiQpms7XZreEUTrnxnBrxev7S37FmG3e5AIKANj0XMG39TngzlabhwoQnFxcXyV/ogKzO1CvL7g3DYiTRUuzabRR5JDLWBELakvt6rTkcDBE7oMl36ueonfA7CbwpiORRAf98Azp44hZTkFAHfZeVlOHr0YdFHAmGLRU3YnDs5Djih2u02eTRO0HrVT9BLQM1xQhcZdZjnUXevXLmGyckJ7N+/D2lpaTK+6E1AyC9tEBQIUCd48ftgs9nkvhybzE93OGzSnh4LHFfiBRRwYYHX6xMgw8wN0uXu2rUbWVkZ8Hj8SEqyh4FFEP4wMGB7GpjwvsqDwfHKZ/ULIOHzaC+CMf7ulSZv3H0NgLBxsr1nLYf8gMfnxTkBCMUoL3fBwhWCxwvv7AJmR0aRXVQEZGdIrftLly5hfHwCe/bsxdDQMMpKy4VhbmJiEqXlpbLS6O7ugdu9KLwKVBpSOC8uLggQ8fm8svIg0Ni1axdcrhK5lgaOq6yJiQm5Zmx8UlyUNptdjNuuXXUwm61YXFxEc3OLGDbGTPT3DyAvL1cAy8zMNLKzc5Cbm4Oe7h74/H7U7qiFZ3kZvb03kJmZibr6WjidKQZAuGcatzVvHA0QuPlm4gp9bglTA6NISU1FSl4e/HYr2rs60dvbj4MHDqCvtxcjIyPYt28fBgYGZKKsqCgXzxe/J6dCSkoKbtzoAbcS6usbZCx0dXXC6UwT4Ds8PIyFhQVkZWXLeGltbUNvb6+Mq7q6OvT39wmY3rmzFl0dneJJq62tlfHU39ePvv4+pKeno76uDg6HA9PTU7jecV3uQ3DhdrulHzwyMjLk/xaLHeMTE+jr65OV4OHDh2VsLi8vo6ysTMby6MgIkhwOudfg4KC0y/tQFkNDQ+Lp4/N0d3fC412S6/g8HLsc08axvSRgAITt9T7V0/iAZZ8X55saUVhahPIyF8wBP0yLizj/9Tf47uPP8cQLL2LXs0/DluRAf38/zp9vlBVCeVk5nM50NDU1qdWJyYT0tAz4A35wO8FmtyIpKRk7amrEuEzPzIDF35aXF+HxeHDs2KNi9K5evSqGMzU1Fd3d3WKgTGYrJienkJ2dLYBhz549YlivX+8Qdq6srCwsubkScoiRGxsbA92uND4FBflYXHSLAczISIdneUlWXvQ4VFaVY9euegMgbEdd3sBn+iFA8MHk9aCrqQ0fvvMuamvq8NzbbwMZqWjt6MDZxkakpqQi4PWisqJS3PBtbVdkFU09p4eMWxQE0cGQXyZU6jFBAj0ABA3UZ57LscOtPK/HJ6CA33OippeAB8EGx0h1dRX6em+IftfW7pQVPRlSR0dHBTw/88yzcLmKcOnSZXR1d4qngGON9+B44jNysucY9/tDWFhYknPm5+dQWlomgIb3Zh/Ek8dtR8+y9Juehry8PPme7YyPj8u5paWlmJqegN1uQUNDg7DqUQbGFsMGKus9atoACPdI8Bt6W1/YgxAGCGVlLliCfpgW3Gg5eRJN357AfcceQ+3jj8Fks4qRWFryyEq+q6sbdluSrM7z8vLBXQlO2NXVNWIoeC6VprKyQgK8aEQYC8DVV0FBAXbtapCtAgIEGpXk5GQp7kHwUV2zU1ybXHXMzMzIvzQ2XV1d8n96DxovXBSXJb0WNEg0mmqFViErGfal/do1pKYmyQqOqxyL1YRDhw4YAGFDlWr7Nf6DIMWgB2afD30t7fjyg0+wY0cdHn3hRYScSbjacwNXrl9Hbk4OhvoH0FBfj97ePkxMjIuucvLnX44J6rwzLUUmWXq4WBOFE+ixY4+gq6tnxaPW0LAbLc0totPUfY4RehlmZmZFl3mNq9QFz5IbBw/ulwmfXodvvz0uY4Ieh9dffx0uVzGuXL0Kt3tBPAzsA88lwOZYIm8+AcLc3CKysnIFwBCQ874jI6Pwej3yDATu9DpMT01IGzweeeSoAPOWlhYZoyxuVVNTA59/GTMzUzIuCfT5zAZA2H5jxAAI2++dcstS9knPNTWi2FUsHgRuMZi9Pnhm5rA8OQ0n3Y/pTjCOubm5GbOz82IcCBAYWEVDlJGRKcFPjBOgMaXRYuAS4wLoRZibmxUDRIBgtZrkehojrqwuX24WA0VQwbZojKqqd4g3gRHjNDY0VAQI/K69vR0FBYXiYZA9zVAI8wvzYaM7hZLiYlnN2B0OcbkGg37k5xdgdnYahUUF2L9/rwEQtqEub+QjxdpiCHl9CLl9mB+dRLIzDfbMTAQcFlzr7MTE5DR2N9Tj6pWrmJ+fF53mZJ6Tky1Bt2bq+vy8bM8505wy8bKMNEE13e8cH/Qc8OBkStDd3n4dDgbjCs/9MhYWF2XM8HxuDaSnp2F6chJ79+6WrTZO6CdOnJAVP8fNk08+CVdpiYyfZfGq2WWVzwmfHgyCDn7mGGRgodVmR0pKKkZHRySOaCW+yGxGWnq6ZDyNj43J+PR4lmXM0UtHIE7Aw+fOyclFekYqpqcnZcw99NBDcg8DIGyktt6btg2AcG/kvqF3ZZAiAUJjYxNcJcUoKyuVvVVzOJWQky9TCH3h9ClO5BcvXpbVQXFRMXbs2Inr169jdHQMBUVFSE9LR/v1djEO+Xl5KCsvR++NXjFk3H8MIYAkh01WSzSCBBCDg0PiCqWBIiCg8SgqKcLE+ITswzKeITsnR9q73tGBM2fOIC83Dy5XmRhH/k7Dyuu5OqFx5DYDg6VmZ+ew7F4SI0dX6r79eyRmwYhR3FC12naN/zCLwQ/4gzBLcgADZwMIWc1YQhAjo6NYmnejqqICYxMTEm9DYNDe3il6V1VVJeODsQXKG+BHZ1cnsjKzxNM1OzsT/n82SstKMT+3IKvvzs6ucDvtslInYKYXgO1zC41ldRfmZqV9TsKzc3MSM8QJn4GKDzzwgEzYBAOcyDnOCDQ0UOAzMuaAY6iyqkrGJUEGJ356GehZ0Ft6BCPKgzApAY0EOu3t1yQmgm0TePBcgh6CA3oc+Rv7xjFrxCBsuyGykpnGJzOyGLbJ+41Oc6QrnwCBwQL0BkiGtqQWruZxM0CJGQlJjiQZ6DQsXm8AZqtFgq0uXGgUzwBXPXv27A6nW6koZhpDm2QbmCRugSkG3HPlCorbDZJiFQgiKdkOr8+7EgXNc2lcuRKampqWgKz0tExxn/KHgN8vgIBAhKsZGjk5yNFgMouRTElJht3Bdowshm2ivpv2GLHSHIVnIKA4CEJWC3ymELwhH6xBBtp44XAkIYAg3EvLSE/jynxR+pucnCRBtZK6aLWgvf2qeNuo0/S2MVXXvehWmQdWlT0UDJBbwLKS4UPOBIICPclzvHF8MSCX7WvOEJbcZVyD9CXA7AaVbaBIbchfoDgYeD3HIWOD2CYndwb58lqOKcksWvbIPdknn9erMiUkbRECOs6ePYejR49KOWwGI3M8chwyTVJlLdmlXfbD8CBsmupu2o0MD8KmiXrzbkRyFxqFSB4EML9bLYwYwyhpj4w5lrxnSWNU6VmyChf6AhIdMdEriPn5BdlvpeGhweOkTMMj/ARCaqRytNU1q8U9uOrgQaPD82EKSoqkVjoaFU70E5MTsq2QmZEJi8V2ExlTuMqo4kNgehevAY0Y87PDxC1ms6RzGYchgXgloJkUI4mSZHwEOTZMCJlCCMhfE7xBDxwmK8zk3rDaECCwDnMHaAIkxSAARXpkMkn0PwdDRmYGLGaLjB3hSBBAzXRIxT8ggF3SB8mmtEqIpPhG1ETPkcvxo9MhBUCvXKeJkcgDoj5rYKC4QdSYFJKx8Ngj54Hmb+D4EzK0MOkT+xAMqHFL7wK9i3V19UhLI8+JGtuqTTX2VcqlX8avJm6K9x0Y5yW+BAyAkPjv6LZ7uBbV8q0aVAxsNx9cMaweKgd7vSpDKmBy8z2jPQGx+rRizG5bMsYFhgSUBDRAWKua4yrV1+1JTk/ut3eVAghrHfGMiVjnxPou1nhj3/W5+vdYHAcG78Fab2rr/25QLW/9dxhjUg8qoqQLF2Q/tLy8/I4NTyyjEo8Ri0esd2roDIAQj3SNc35MAvEChDuV4u1M0JH3iGfSvdNxEw9A0H251T1ut693Kj/jusSQgAEQEuM9rGsv7rSaY7xGbb0Awro+tNGYIYHbkMBGA4RYXbnVBH0b3b6rU+MBFtEAIR7AcledMi5OaAkYACGhX8+ddW6rAITbMVh3JgnjKkMCsSWw0QAhHjAQzzn36v1F9s0ACffqLdz7+xoA4d6/g3XvQTRAYBZDPAFEm22wDICw7q/eaDBOCRgAIU5BGaf9pCWgAYIOYidFN0mzqqurkZdnVHPckspBgMAsBtIlM6+ZhETxpCAlwkohnr3PLflSjE4nlAQ0QGCuP7MCyNVhHIYEDAlES0BqlcqXHDPk2GhtbRXuCwMgbFFtocFjkOL58+fF8JHMKJ64gUQACHca/b1FX5XR7U2SQLRua4BAcjCOF+b5G4chAUMC0RJYzarRAIGsnWTMNQDCFtYWIr1Tp04JWxqNXyJM/vGI0/AgxCMl45zblUAsgEBdI0AgKCWzoAFOb1eqxvnbXQKk2tfeA44XctuwBkhDwy7k5WUn3OObQsYMsuZLEQ+CT1EtFxUWyhaDELkoT9Etj0QQ7VYBMmu+BOOEhJYAdZ2AIHKLIRH0P6GFZnTuJygBtcWgxwa3rlnoi1sM+fm5CScPAyDE8Ur8IcYgeNHEWgzFxSh3lcIcRoKRl4fMAFnV1PYDKWH0XhPZ0khiRKa0H5InxdGFuE8xAEHcojJOXEcJaIDA4kn8zEqk5CAXfSSpIf8RasUwxagwfJNKULET3jSOyD4o7IiKtZBHrLogioFQnWDo/Tq+TKOpDZMA9VXr6moMQpvUEWH9m0Q7DIAQxxvxC9WyF40XGhVAKC2DWciVIw7aOIsyZHzx2rCROVGxJZqE313RKd986Z2utAw2tjhennHKpkggJkCQEiAmsOxCkNTenMgDwTAdeRCwkIKZvjiSMf/w0BHfLJamCRH1WCEIX6FUDgd8xRMXtCnCMG5iSOAWEogECNRfbl3rLAYW7Uq0wwAI8byRIOBZ9uBCYyOKSorhKi+TQk1kXJdCdQobwMrqjiu1E3QRBgUOWGiGXO78vJGHsZLaSOkabd9KArEAAksfEw0THGh/GgsbEQ6wLDrMFinWYDexjsLqwToJHCva2UBwoOMZeB+mGEvdkSgaZQMgGPqZ6BIwAEKiv6E76V8Q8C57cD4MEEoqyljpSBVrkr8hMXo2ulQBKcbEUrU0cjabHZmZ6VK1jQVlzJYfAoQ7mtRj1Hngo91RW3ciE+MaQwIREogFEAKhAEIqWkd5DWCCP1zyWaqT+rxwJqXAboryxoWApSXPCihISrLLneh5U9UUl5GSkipgm2WUCR5Y0pl3MECCoZaJLAEDICTy27nDvrE4G4NJxIPALYZyxiDIXoIq+6y3VsNuz0uXLuPGjRtSaY6rnT179khqJA0ZS9eq89VKSG1HhKvBreypqm0I7ULVe61aucRty62LCECg9myVh0K5YcMmOdbm7R3KwbjMkEA8HgTqItOBCRDMHCPcahB9NCNgYUVHM4ZHRzEyNISdO2qR5kxV1RHNHA+M9/Ghvb1DwG5OTg6ysjKRnOSQ38bHJ6RsMtPCWLKZVVHdbjdqa3fIeAsPy5UxpoojqfEmvQjjcwNIG7p8LyRgAIR7IfUNvqc/BHi8zGIIxyC4SmBhVUZvAMHFJSzPzsGRmw1TeqqskM6fvyCTdWVlJS5fvozMzExkZGRIL212u6SCccVTXl6GgYFB2YeiIeTBKHD+xvMZ8EVgUlxcIvXi+Vt2drakWjI1hnXmy8pKMTc3D5bZZRvFxUUCPFTpW66oNnZLY4NFbzS/RSSgPQjUQ02UFAr6YQ4EEVhYwtKMGw6nE5aMVISsZgwODuP61WvYUV2D+eUlGV8shOb1ejA8Moq+3hsoKXFJSjEn/ox0pwABln3meCHgHh8fx8DAgEiorq4O6enp8Pt9AjR4LscPx0tGegYGhwblPI7JlJSkldLKW0S8Rje3iQQMgLBNXmTkY/hWAEITSouLUC4AAQgtuNF5+hxOffUtHnj6SVQ8+iBgteDcuXMCApgLzhrwNHJdXV1SBXJ8YgoWu02MKI0cDVxycrIYwYWFBcmL5eomNy8XPd09YOAKI8LZDldmvIbHxNg4/B6vgAIaZf5WWlqK/fv3S3sWBoCFt3kNJ8I2VMoEe6TYAMEHk8eLodZ2fPvR5yitrsEjr74EpCVhYHAEHS1XxdE1MDkmwDklJUV0n2OAk39NTY3aMguFUJSfLwCZ9+Hkz3OHh4cFQKelpclfph/Pzc1hZmZGtvh0ICPPHRwclHF46PABFBTkyW+GFyHBlOgn0B0DIGzDl+znFoPPiwuNTSgpLkKFqwRWpmItzKPp6+P48sO/4ImXX8W+55+B1WHHiRMnZYVPg8QJnH+vXbsG1nDoHxxGXUM9RkZG0NfXh9TUVDzyyMO4fr1TmBq5CqKBJJggeKA3QRs+AgGuiGgUy8vKkGxzoLOzUwwdDSNpoA8cOIDU1JTVbAmmlxlOhG2olYn1SLEAgj/ogWnJg/7GNvzlf/6Eiro6PPfr/wVTlhM3+gbRe6UDdqsNoSQbcnLzcP78OQG3Dz30ENra2uBwOMCgRnrMFmam4ff7BSxz+46AmGOE3jICBZvNJtsaHAccV/Ta7d27V8bd4uIiyHnPcXLgwD64SkvCAcNRsQ+JJVKjN9tQAgZA2I4vNaC2GAgQCl2FcJW6YDeHYA4E4JmdxXT/ILJcZbBlZsLjC8i2Ag3dzp07YbNZMDIyJmQYNGht7ddRUVkl7s/ZmRk405woLyuXfdWR0VEBAzR66WlpmF+Yx9jomMzwrpIS8RRMTk2KC7W6shI2swUD/QOSQzsxMY6xsXE8+OAD4mWwWBjQFYLVZgQubkOVTLhHigUQvPDBEvTDNLWM+YFROLKyYCvIgSfJir7hYfS2dsCZnAKz3Ya0jHQZI8Sy1dU16B/oF/DMKOCCgnw0nT+Hgrw81Nc3oKWlWcADQQHHAr0FTmeq1EehF44pyQQDtbW1AiY4Fgm0BwcHBKw/8OARWK0Ww4uQcFq0/TtkAIRt+I7Fg0AehIsqzbGstARWmrKgDxYuzwMqWhtWB5jadf36dVitNpm46cqku5QuzqqqarR3dInRyszMwo4dNbh67RoWFhaFoZHKMzY2ilSnEyWlLly71i6eAHoGmGbJdmjguFd76dIl2M0W1O6oFdcrf6N34eDBA8jISFv1GhgehG2okYn3SLEAQhB+IOCHxW9WTEkhE/w2EwJWC4ZGxzF0ox9JVhtS09LgSE4SsMt26F2TQMeiIvGo0Wt34exZ8RAQQHd39yA7O0sABcclAbHDYUdfX7943xiPQDA9M6NidhjPMzQ0LB6I3bt3oaq6LMxNYmwzJJ4mbe8eGQBhG77fZYlB8ODixSaUFBWjotQlaY1mk8okYDAg90mZ7MhNVbo0eXDvkwCBQVX863Q6JUJ7dmYWDkeSAAHP8hLc7iVkhFMh52bnYE9yIDk1FTOzMwj4/MjMyoLP68XiklvaSE5Kwuz0DEIBIDs7E0tLyxKoSGPqdKbAalU55DwkVdzYYtiGWplYjxQJEDi5cyvAFGTeL4N1wvSyMCv2RJiw7PHA5/GJnlqsNlgtZni8PskO4jYBvQP0EtCbRs8AvQRJSQ44kuxYmF9EqjMFc7MLEtSYkZmxkl7MfmRkZMo2HAN7U1KSkZySjKmpGTknKzsTOm0ysSRo9OanIAEDIGzDt+wJAwSWey4RJkWXWoFEAASmO4aCqysSTeyiWBRX9zq5wqHR40FmRWGilVQsTuqkXQrTNIfTHOkKDZKASRjnVGaCKJnw1zIVEgIImFTBtlaTFhQqiE4x34avx3ikBJBATIAgoJn4IAKhhkIrJEcEA6Qfp9dN1TYJwe9j+i+/VzpvJSlSkOyLSsFVSrAeKzqFUYNhk/AkcHwJIVMEOuZ45FjimOO/xmFI4F5IwAAI90LqG3xPnwQpetDY1CTuzLIyBRBotNR0rjwIpiB5CBQFrD50tLTmKaDhUkqizlA8COqzBguy8jexnQBMEeAiFEYBNKyBMIWzyu9WFPc651s1pnLPjUjtDVYOo/kVPaaO64waehCEQVG8Bwr2ClUSdZ87DgIeCAxudnFFgmbJwhGKco4ZNbErwjHygCigIG1G1GSINMCqKI7iB1HjTI01bv8ZhyGBeyEBAyDcC6lv8D25gF/2KoCgqJZVNUeLijxQfIo0XLCu8A5oY7S6eApvRoQCip8+GBTDR1cqDw0glHdAAwZ1nqY9UoVvVNqXZnGMBAICFvTFxCwCYCwGSNhg/TCaVxN+NEDwc+IO73CZqZph7mSTmZqpSMpF27kLEUEcpoGzAs0a5K4SirEgmgLo4YqqK7xgaisjshhO7LaM7AVDZ++NBAyAcG/kvqF3DQQAr8+D89EAgRN1wK/WQFKVjkxwq8xtWhlosOj6ZEYDtxi4EuLKhq5Q7pVyjzVyG4JbCqRpJoC4yQMg2xqKKZFuV4IF8VjI1oTyOsjOQ9i7oK4NE+EbNMwbqiM/9cZjpjlyG401SqinGiCEAbWq5BhCwB8IsyzSW6C8bxwPutaCbpeOtEAwAKvFCj8DH8NkYNR96rswlIZjHYSx1KLGmvYeaE8e27VaFXWz9vQZ9Mw/de3dvOc3AMLmyXrT7hQkQPCGAYKrGKVlLvgDAThIbSyUxyYJyApabDJ5T0yqrAKyuqWmOlFW6hJPAbcMZNETjjugO1UDAbpOaRjVqils6wD4JWbBKsBAG01fIAC7jYYyoGwi12JBxkCE6ZbFWIadCTSesicblL7pe2ya8Iwb/SQkEAsgkDtE0gll+436SL0MIWQxY2HJjfmlRWQz9dHMOBtO3ATMXvEskDhMttikrLryHojfIRiEjdwJYVCsPG9Kv5eXPZiYmJRAXnInKLpyVQNFJRv5ZXtBe/A0+Da24X4SKpoQD2kAhIR4DevbCQ0QLoQ9CAQIBAVWGjDO0ORi5gTssCMQMuHChQtC3kImReZg19fXieGz222w2W0ykXvDwYp+n1++p0fA5wtIhgJXV16/Dz6/H0kOh3gfOLGrbQk/7AQboRB8Pi8sVqtM/Ip0KQXFRcVYdLsFeDAKPOTziTB0XQiea6yY1lc/jNZu3mLQVMuBoBcWBGFiMAL/0p0QMiFktaFvbAQ9/f2or9uJZJsFFgYewoTOzg7k5OQiMzNDwITZYkGSwy6FnbRngBlBMpZsDhkPLNjE8dHb2y8ES0yF3LVrl4ABAnuH3SGBvAuLS9KW1aYAg/Yq3By3YLxNQwIbJwEDIGycbO9Zy9EAgUGKVnr1PV7MT0xjenAIeWQ2LMiDNxBCY+MFyblmQRlOzHR1MmebykEuhLnZefEw0FAxRZH53fNz81hYXBCOA7IcdfX1wJGUhJTkZAEXVUKuNI6pqSnk5OYgMz0DPT3dkrXA1RIZFZnmWFZejr7eXkmjrKqqRHfnddgsZlRXV4vhlK2IqDK590ywxo23jQRieRAQ8MDk82Bp3o2RwRGkOTORk1+EkN2BG6MjaL7WjpLiQkwND8FiNosec4JngGNRcRGGh4aQlpYugcEdHdeFVIxAgOOA1RxZoIlMiRxDHB9M9WVtE3rtDh06hO7ubqE8JwU5vQSdHZ3Iyc1Gw65aAdM6w0jH/2ybl2E8SMJKwAAICftq7rxjtwIIwflFnP7yW3z3+Zd47LlncfC5p2Dqw/jQAAAgAElEQVSyWHHmzBkxTqR73Vm3UwhgSJTEbYaMzBz4fQHhQFheWhK3aV5ePkZHRzA5OSWMb8lpTvhNIczOziA/vwBejwdJyckYGx0VD4TX6xUwEPB5xJ1KLwSNHD0WdMvSSJKPvtTlwuzkmBS6Ie0smRwNDvo71wPjyltLIBZAMPmWAL8XVy624P0/fYAdO+rw6ttvw+RIxtD0FC63t8u2wuLkJNKcqhgTgTXrKggjotcjMQoEC2QerdtZh7GxMcmUINcI9ZneCpImESTMzMzCVVKG/v4BYWHkuTab2rZLTk4RsJCbl43DR/YiN1cVR9NxDwZoNrR7MyRgAITNkPJm38OviJIuXFxNc2S9xMCCGy0nz+Ly6TM4ePQh1D92FLCYcPr0GSFGIpMijd3x48cxPz8HpzMDyc4MOBzJqKyqEkbFgvx8MYpd3d0gSRIVqKCoEAUlRRgfH4PLVYrJiUn0DwxgbnZ2ZW+V3oWc7Gzk5uaJJ4ErKpbFJRCh8WQdh717dsO7OAefZ0k8CPX19eLRMIzhZivQ9r9fbIAQAHx+9LZ34qvPv0BFZSUee/ophOxWDM9M4nL7VdkGS7Umiy63t7fL/6mjZCMlCCbwzc7OgcVsE49cc3Oz1FWgB46eBXrFdu6sRldXL0aGR/Dww0dxsalJPGoMamQlR4LrgvwCjI4OY2l5CY88ej8KCwvC5dFVRoMRh7D9dTQRnlClo6ueMM6c80RLS4vY59zc7ETo4k19MIV0In3CdS2BOhQFEErLXTAz3tDnlVr3mHcjlJIEOJOw7PPi4sWLAgw4IXO1f+rUKVV1Lj0DVnsylpe94vbkxM5qjWSOo3uUr4JAIisnGwVFRRgZHYGruES8AdNTLFbjQ25+vsQwMPaAblm6YIeGBiW/m96Dhfl55OXno6fnBooKCpCbnY7pyQkxug888IDERBjGMIF0a5t0JfYWAwDGwAQB36Jb6azdjpDNhJ7hQVzp6hB2xMzkNDhTnQIQ6GWjrpI5kR4xbs8RNAQCIeTk5KG5+TIKC4sk5oYAglsO6ekZmJ+bE2NLWmZuQfB8/kZqcuo7PQ0cH6Ojo6jZUSFxQfxdp1duk9dgPEaCS8AACAn+gu6oe1EAgTwIXHdIBgMDFIWsKISQ3QZfwC/Gi8aHIIAHJ/jTp09LOmJd/W4se33Iz88TVymNm9/vlboLNIY0egQXBA7CJZ+VLe5TRnlPTE5gfGwcxSXFSElNQWpKqhhUeh4IRKampmG2mLG4uCBGtriwCDd6uoSbgUFbrOlAY6m5F+5IFsZFhgRiSCAWQBB3KldMBNFcNfn8ig3RasbIxBgGJ8Zk8nc6UmC32WWcEEjTA6ZrmHCCp5dgfn5BvGmtra1YWJiXrQNWR+3o6JSthQceuF/AcV9vnxR3qqyskviEqelpVFZUSNAjy7CTtvy++w7JGNPZDMa2m6HSmyUBAyBslqQ38z4RAKGwRKU5EhLYGAntDyieJElNtIgh5JYBjQ9BAj/zX65ueNgcTN9SqVn+AFMYFZMcJ3gzaY3IkUAPAVO3yAIntLKKLZE2llUlWZiGhtRud8DEKEXBJ4obQTgSAvr+Ku2SwIOxDXq1pKmeN1OExr22twRiAQRfmAlUgHSQ+/3U7QBMFjP4m1/0W+iOJFOHisyUXup2kiNJ6jWQalnGyEpqsB9BegckE8GEpqaLUqyM3jEG9Ho9XjmfGQz0GlD3WROFaZEcY/yeAJm/CZfCChHT9n4/xtMlhgQMgJAY72Fde8GiSIxB0ERJssUgfLEBcifCBDUxw2RdWZWwAzqlUAemiBEFwYFJkRmtFE5QRpK/K/ZDxaAo/AUkSwpnHazQNZO5yWSSLQbhqV/hbWbtBbatSJRUH26uBWFsL6yravxkG4vemRTdDYXEK7aS5sh9VoJoettImyyEoyrNVjQ9zChKkKDHSyRtspAsroBl/wqhkj532bMslR0JLCorK5GSlHzTmIsMCNOfFSAgUZmiaBbgHVkr4if7Ro0H3wwJxAIIzNxhvFpengqcTaTDiEGI420E/CEsh2sxlLhcKC1VHgQzc7wle1uv8FXE9I8dimL2x4/1Lb4YZlNc66bG74YE7kIC2oPA1TwBwkothrCHQPxk4Zoj0bfRZF/6+5hhUWFipMhrxTvmZ0XIkJAnyVZBHM+gyJeMw5DA5kuAxF2RB7ePr169KtvRhYX5m9+hteYiI0hx7XfiZ7EmZjGwWFNREVyuYtgsVvEcqEPVTzCZ1gYIaj8gjiPO09ZsyVgdrSki44Tbl0BkQTIZAeFaDAQI/C0/Pz9cWjS8Sg/fInoCl6oiUcghFkBQ30UUGlnp8mqLUush6rjZO3BzrYbbf2rjCkMCdyeBSBWlTnPr+erVaxJPk5+fe3eNb8DVhgchDqF6AiGp5njh/AUU5ufDVVwkWwwmbqyGAYKa+OMBCLzgx9c564UNIsFLHI9pnGJIIC4JRLrn9QW6+JgGCPQgsICZbJ2tlgO5uX1R9BBC3HtY4xCa5hjjZiU+R28X/ACAq9ookUc0uFnr3sbvhgTWSwKqVs/qlhpTdpmSyzRHw4OwXlLe5Ha8IUjA1NkzZ5CdlYmC3BwVdBXhQRCoYI4DIIg/9cddnFLnbj0KznG/FyyGYxyGBNZXAtH79io4NiABg/xMfg86BvTcL0G8YbAQ3ZOQyR/1VfSkbkIwwAEROW7C23rhgmQMQlSOiB9q+2pfwzVQV4D9+srEaM2QwFoSYPptJKgmyd3Q0BB21NaisDBvrcs3/XfDgxCHyP3BkHC6NzY1oqSoGGWlpWq/M2Lhw3k/7mCnNRZMt1xxxdHXyFOM6IPbFJhxetwSiLUNQIBAxkOu0EkfHnboS5vRcQY334iQOBaM1QPldiBuPMh6bY9F3IIwTjQkcFsS0LqustOW3B60tV1BdQ2JkjJvq6XNONkACHFImZkCTJFqamwU9jbuFxmpgnEIzjjlJyUBAgQyHBIgkHND1vPrFgPDNMi1DpUybByGBBJTAirbTQ0JljY3YXnJg5aWNlRXVyE3zwAIifne1ugVDR4BQqMBELbk+zM6vTkS2FiAsHb2jwIHBkDYnLdt3OX2JWAAhNuX2Ra4wgAIW+AlGV285xIwAMI9fwVGBxJaAgZASOjXc6edu5cAIVbEeKzvop8tnnPuVB7GdYYEYklgIwHCRutzJJlZrADMO90q2eh+G5q4lSRgAISt9Lbi7mssgKANhq6MqFOnNL+7/l0zIuqgLv3vrSoqRgZ/8Rwa3UjjxO9IH0v6ZratmeciU2eir9N179lWpMHSpW61IKKNIM/XBW0iKWkj+6gZ9BiToT/Hai+SyU5fr+lu9XWRsjT48eNWz4Q5MRZAiNT3SH3V44LXCLNiBLOhZgyN1Ec9Dnie1m8dB3QT+2JYGtHjMNakz1P196REZ3taJyOFqvsaeR/9XLqvt9L56GeJHAcJ8+KMjmySBAyAsEmC3tzb/JgHITqamwYm0vBEA4FIIxM5qUcaDt0Gv9MTr75OG1N9D210tUSiDa2+Tueps4gTD21oow1pdLuRBpDXRAKeyHvpPhNQRB66fd2Ollc04Ih+Pt2/zX3Txt3uRgJreRAiJ9XoSV2DWA0WtX6sAmtVr4F1FkhVzliDyLK5/Lz6/9V4hch2tE5Fegsix40GCbpvkWNE6z7PjwSyWr/1uNHPoeuxRIKYWGP0buRtXLvVJGAAhK32xuLqbyyAoA2Cnhi10aBBYCQ3c1v5HasysmxtpAGk8eBvesWigULkpBk5cWvvhF5Va2MV6T2gV0FP/pF90isvnkuefF28hlUjI40nP2sPgwYhZPni34yMDJXWaVJ1HSLbj/aI3IqERrepV2i6iBUL82gvBWUq9SfCdSiiV31xvSzjpHsmgWiAEK0L2mPF98qKjax6ymucTqeMkdTU1BXd0hPrqr4EpCQ6z+VvbItAgXpEHWR1x0i9jJy49X014NbnaaCsQa0q5mTFwMCA6DrJnljYSYNwPQYixxR/m52dlT6xQmSkN0yPqcj7RHrc7tmLMm58jyRgAIR7JPiNvW0sgKBXF5xwaQhoWPgvDdb58+fR398vxowT7KFDh1BSUiKfeR4rK/I8GiRtgLRB1EaV7fNcVbXRLgaIn/l7cnKyXM+D/2e73d3dqKqqWmmbZXS1MaJB43ktLS0YHBxEfX09Ghoa4Ha7pQ3ddz2J85l4PzJ8Ma99z5498iw8+Bvb1p/1tfoaDSAiQRD7wf+z3+wL//LZ2U57e7sY4qysrBV5aCAS7Y3Y2LdstH63EojlQWCbGnjq6on87sqVK7h8+TIyMzNFD8vLy7F3796VyqPUD+oBdYS6NTe3gCttV1FRWYniokL5jenH/X39krjAktA+3//P3ns9x5Vnd54nDRLee29I0LPoi0VWqatbUod2Y7SajR3FPmg3Qv/ZPu087TyMWe1Io+mp7rJk0XsAJEiA8N6b9Bufc+4v8zIJFpMokgDYeasYADLv/bn7+53zPT6qQIEz5cAzfbu96DeXObDAmeJy1U5nZ2fl+vXrmhv/2LFj2r//rLG/XTVInmVOJIfiM+bi17C5ebszwjnlfvoqgN9fu9sO4vMFgHAQ39pbx0x5Wcos375NHoRWzYMQwJSQSMjq3IKsLCxKfUuLlDQ0aInm23fuaCnm48eOyPWfb6rqs6W5RUZHX0p1dZV0dXfLwvy8zM7NSmNjk5ZvriivlGhsW2IxiOGqrCwvS2lZmYICCE9jY4NMTExKKpWUjvYOWV5ekdW11YwmYmBgUM6dOyvR7ZisrCxLR2enMvWhp0NGQDs7ZWJsXPuEGLe3d8jQ0KAEQyHpP3xYJTgI8cjIiExPTysooUwulcZaW1qks6tTkvGkakZIgrO+tqbApKmpWYKhoEBYIYQ9Pb0yPzcvC4sLSgi7u7pkemZG59TR3i6xeFzm5mY1B2VjQ72W6z127KiUlJTKzMyMtLa16niKIxTfKYSsvXVz7qMbHECA+bJHUqm4SCImseVNWZ6dl9KqSqlsbpR0JCKDT4dkZnxSTp44Jc+Gh2V5eVlaWltkY2NTqqoq9W8KMJGCdn5hQUbHxmVxcVFOn/5MykpLpL6hQWZnZuX+g/ta1fTI0aMyNzOjZ+nEieNSU1Mta2sb8nToqaxvrElxcYnU19dLUTis52p9bV0rSrKfAQH9/YelprpaHjx4KD///LMcPXZMent6pLikRJYWFzWT6vLSsp4l7mU/j49PSH19nRRHSqS0rFSWl5ZUS9fS2qrnZ3pqSqtXAjaKI8UyODSoQOLE8eNS31CndKEAFPbRBv7gQykAhA++xHvRQUrLPcesWFN7i/R0dkoomZDUdlRu/+sf5Jv/8k/yV3/3b+Xk3/yNhCJFyvQgEEjqqFHv37+vde5h9Ovr62pHdYwfprq+viFHjx6VmZlp/R2pHXUlWgiIC1kcqWO/sbGu0lhdXZ1KXVWVdbKysiq1tTUqxVDydnJySjY2N7ScdHNLs2xGN6SyulIJG4QOYJFMJaW+rl4ixRFJJVPa3qnTJxUg3LhxUxYXFmVsfEwunL8gU9NTei85wyOhiGxvbmo/qGEh4oAQk75Mu1BVWa1jKi8vU2LZ1taujB9CSH/cGAxTAzitKuXFxSUl3FNTU6ZNkbR8cfmydHa0SrgAEPZiu++qT2f28mdSTKQ3JRiNysStR/Jf/v1/kN6TJ+Sv/8//XeIVZfJk8KkM3rovTXWNspmIS0VFuZoQYOycAcBpQis1isTiMSmvqpSx8XHVxJEH8eiRozIwOCAbep5CEgqHpSxSLOurq3rPmTOnZHh4RAvhsBfn5uZ1nzU01OueffZsWM8VgCQSKZKurm65ePGsDA+Pyt27d/XesrJSBdKDgwM6Js40Y6qtrZNodFuFAEAs5hL8I9j/AHn6choM+qJ6JGMAeC8uLsjZs2fkszOnFdyHw5R2x69hV8teeOhArUABIByo15XvYF8DCF2dEkolJbW1LQPXbsi1b76RK7/7azn05VVJB0OaUAnigopyePi5SuEAgStXvlAtAOYACODXX3+tYIByn0eOHFEmCZEBPCA5Xbt2TS5fvqxqeJgx6ktU8TwbjcbkzJmzMvxsRAkkalC+GxoaUi0DBK25pUn6+nulsblRGTr90D7gAlCASpdrdHRUPv/8kmoEfv75hn7P/Z9//rkS596eXnny+ImkYknp6zukIIU5ABpg6vgoUM8cCW9ifFJKS8vk/PlzKo3RJuCFexgn0lpjc71QzMKpZmlveHhYx886Ma729jaJREKFtDf5btI9vm8ngBBLb0koti1zj4flf/ynf5buI0fk8v/yN5KoqJSBoUF5du+x9HV1S01jkzLQe/fuq5mMfXry5AnVpt25c0eqqqvlzPmz8mRgIONcC0hlr8OAMUfApE+dOCHrK+syPz8nX311VR4+fKTngDZph3s5O6pZGxrSs8ff7EnaO3XqlH6GZq2szPwhyAiJaY69e/jwYe0HwMvfV65c0TOAuQS/I7Ksnjp1Ur799js9Z2jq0FyMj0/q24nFtlVguHDhvGr70HYEgphgUhIOFxDCHm/hj9B9ASB8hEX++F34AUJrOyaGDgUIoXRKkmubEltbl+LKKglUVUo8GZDbt28rY4S4wEiRlNEcIJUgVTvHKggKDk6oK/mO3yFWMF2+o52LFy+qL4Cz/aOFcE5e/f3H1KeA7yBU8Th+DVElgPQDCAgXhyRSUqzjQNLHOZFnHNBAKqK9S5cuqpkAgIBjJQQUosm4mcfs9IxUV1RpGV+IISDCjYMxcS/EdWFhSQkrn9Ee/bAWtAkTYZxNzY2yHd3SeTs/CQgv/fA9hLq6Gme0YAEgfPztvqsedwIIUdmWonRKgusxia9uSjBUJKG6KtkKBeXJwKBsL67KxfMXJFRcrO/9hx9+VE3awMCA7lOAMvsskUxIY3OTTE5PqykMIOr2IfuLvQN4rq6olFTC/G3+4i+uyrNnL1RTgFkPps55cH4A9MflAAPnraenQyYmZrR//GU4Q7SP5M8Z7u/v1zPKP9MWNOrvjNHtY7QXgGvGwO9VVdXy5MmgpFIJPePT01OqFbxw4ZxEis1XIplMKDAuXJ/6ChQAwif5hg0gROXG7dvS2kEthg71PygKBiRALoKUSAodYTAsiWRKmSsSMSpECN3Zs2fl5ehLeTk2pqYDJJGJiXFl1N1d3RIKh9Q0oL4KLS2qyoShPnv6THr7epUgQkjwD+A6fLhftja3pLW1XdbW1pVYLS9TRU/Uvg/IgMBBRG/euiHFpfhDHJPnz1+oqaGutlaJ14OHD5UwYbPFRwKief/BA1XbBoJBLUqF3wRqVTQHkbC1i8SGVgMpCiAA8cQWu7m5pcSScfKT9i5duqR2XoAGWpFQMCSVVRWSSMb0e+5zDpjYdHt7e7SvyspyCYd/uerlJ7nZDuikdgIIm2gQAiKRRECCGv0bkFSkSOLptPrgrC2uSE9nt4RLIhKNxfXMdHV1ytLSsjx5/Fj9Y8589plq1kbHxqSsvEwO9fWpVm5re0srRtbU1iojZw+OvhjR83bmzGcKkgEOAISXL0c9Z+GL8vTpkGmxGht136E947ydOHFSWltbdJ+yX9nXaCA4W3V1tdpuTXWNatTUuTct6jvR0tKsWgL8JgAGjJ1zg09CUVFEIkXFMj+/oOd3dHREAUlPT7f09HZ7zs3k5E9lQicP6OsvDDuvFSgAhLyW6aDdhI1wW30Qbklre5tKAGGSu6QSEtbga6yirlAMkQyYCWKejTGU8Xo2T/9wJskRkjZMkBrhMF2L8bakMTDubEIkksmYGYFnIHD8DAZgoBT/QApJSSpFtABJlIqE8rfb2zG5dv0nqaisUJU/3+Pljd00EAh63t0BHZ8LV0QL4eLJuQfiRVvhUFiCARsbhBVJjDEBSmiPsTMGvM1x8oI4V1ZWyeefX1TizdghxIwbmy/OnLTtz+Ng62Hrw1Wwyx6sk5LrpBgLJEXYO2mREPWeAwFJBwOS9Eo7phP2vvXzdErt+OxP9hjmBS63N+MJ9iV7Nax7ib2svgehkGrNuI/zwlEsKbEoG/Ym59DMBkOqmbIwSWz/FnXkoiWcJs1F3NCuRSgxPFP/WxSGtcvlopDolHPL+Dl/+CYwH9vDIUnELRkUGhEzKxDibA64gUxJ2EIdiYO123cz2gJA2M2q7ftnkimRrbhXrMkHEOyIe3XpJaAQYTeXY87+Z3O9m994j69yLUQTZq1x2sGgSvQPHz6Q6poa9bzWHAPJlEYd7Obyl7d2BDi3HfpGE4ATV0VFpTQ1maT26pVfud3djnM3cys88+tXIDfMMaEbJi14krzC/tI5+y+PYJX8dszrpZoAoIAEtAxoDQAGAISPdSmYyB18JqmT/8sCQPhY72Tv+ikAhL1b+w/YcxxJxAGEtqwGwU/X+H23ZCeX+e8U+pQPiHgFIKj0b6mVXaIYl5XxdYa9u8VzkpT/aRunZVzMptDNXZm05IKNnUYQ+IiEfHcrUHjKvwK5ACHDFwO5AMH3lG6EPBDCLpd6p8RdudlNd9l03o95ygS735uqaQ78AKFQqjrvBT2wNxYAwoF9db808JhYmONtV+65o1OKdnCg+3BkLv9lzWZys9Gg9uficxd69b4conYCCJYoxrIt5ubY988iH4AghTDH/F/8PrgzFyDgmwNHRGGAVUFlZJ80nQ6kNaw1KB/OGdVMZNm975Jw7f1yOXDg0kKjZdsPFGTvV+bTHUEBIHyS7zYqZhMlfLEdb+d2AwivXR/1fL+uu3RaBgcEnMgCSPDXcPhwGgSj/um0FZgy6c38E167ctXMO+2cj7qen+TW/aiTeg0g4JiofgcGELiCbttiy/8IAMHVV3ALwd/4K+zt5T+7dkayPkx7O7JC7x9yBdLqm2I+Xmh4A7K9FZUHDx7JoUN90tBY8yE731XbgfROuutdNfXpPpQgWYtmUrwtba2t0tnZrk57WeOi80PYrZHh0127X5zZ2wzLBYBwYDYGZASA4MJ4icbBqdWZy5wGgQRezq2XX36NgSEfP50PvYD5jOGXsyXaCuRjQjTw/bZDs/OM8xnnjhjdeSx7X76pf3/7ux0jXfw5ZJY0LS9p8tOyvR2VgSdPNDtvU3PDh96u79x+ASDksWRo6QEIJFshXrqjs83byE496AGEdCEsL4/lLNzyia4AAIGQXKR06mtA7HMJ/k6MKh+GspPfQO5zO7WTj7+BM8u97bXktpXvc/kwvXwBwm7Wb6f3sNNcd/LX2GnsbwMbb5rLbtfhbe/lYH0PGDSgxz+iwci7AUBobm7cd1MpAIQ8XkkqLYr0CN/DE7q1rdnzzPerCnG8KwCEPJazcMsnugIwGAACQIEcHDtJhPk45O60PPky0Nxn8wEf+TCufKX3fNva7RZ4n+uXO4Z8x76bMeTzHv48NAhe7JsHEgh9JREeSbiamgoahN2eiz19zgDCtvz440+aWa25xco3i5YcUtKhwdEBKWRD29MXVeh8z1YABgBAICU4AAEgnUvwd5K4dyvd7va5nRYon7bepC3IR0Pxvl7K+1y/ncaUz1x2O4Y3lYHPHUc+Y3hf67kX7ZiFKGs7RTNN+m3q9hQAwl68kffQZyKJk2JUizBhYujsavda9QMEdcd7D70VmiiswMFbAcc4XM0Ql1o7HwaQr3SZz6rkIwXvRgLOp++d7nmXueXa8XcaZz7z2+1Yc5/Lx99AxaMd/CJ2M853Wav3NceP304WHFgir6iaGKhl09BQ9/GH85YeCyaGPF4JzviEORLF4ACCOSnm+CAUAEIeq1m45VNdAeekCKHHxJCvT0A+jCHftvJZ2/fF0PLp611AQy5TzZW689F07HZMhec+zgoACpzfp2bo3d7WYmCkoS8AhI/zDt57LwWA8N6XtNDgJ7gCuQBhpynuRrJ8n1LqQVr2vQYyB2mtDspYCwDhoLypdxhnASC8w2IVbv2zXYECQHi/r74AEN7veu6H1goAYT+8hfc8hlcBQqt0dnV4eRByTQwuD8J+C+B3sdN7Oa79MIb3vDEKzb2yAq+ZGF4rQpAtfMSDuhvx793hvtylfZ/2+Dcz3g+1R/25C5wX++v5DAomhk//QLH33HsumBg+kfedxkkxHpVbVHNsa5eOrs7MzEgTS633cIhqizGtNheLUXkumySGhBhUWFRS6BVUcg2of49mjskmTAlotUU+SmlxJS68e11NhZRXUZG4CYhrKpn0Es6QtdA5SrqGU9q2/qfEmAJ7aQkXFXkldEjHTGVINq4BHFex7tXNrGnx9Dur+WCVHbGTkrrZUitT3TGb1ta15RJKUUiKZ21tCkmlDvLx2InJ+gECeRDcrmTjJancSUZF9jGbMJWUonRA0nxOxUet0mjVHF16cGqJWCbOkO5bVwGUyg6uFLirOMqZ4SbaiFCdlD+0SqSdOYgyv+u+TaZ0v7oMnwZQqA7JANOSSgfsPtJDp0WSZL+jVHUqu8cZi55JrXBKdjwPfHvHLnsO9MDpWPQeEuR4lUwDgVCmsqqRgLSOzc2FNbP6KZxhEWqTvC2vxEHeU38OY3dZZi2Tosj2Fj4ID+XQ4b6CD8KB3QDJpNaBJ4qBcs/tHQYQAmkvbkGJQlpiqZgCgefPn8nGxpb09x/R8seJeFza2tt0Q2hwJIQGghG0mgUhiBEgIECp6ISEKAHtOUCurqxqkqa6+nrLZR80IqFlaoMhZc4zMzMyNj4uZaWl0tXVreWVlRmnrVSzbUoIUEAmJiZ1jK0trV6fISVgFI8xgmwlarmfsbjfLbkH91n/KysrSlArKyu9ktAQWEr1WiKQjY11va+0tCRTtjmZMqIMYdx97csDu4s+qYH/EkAANJJJEYBAlYVgypLCJAIiyYBILB2XiIRkYWxCXjx/IRIJS09Pt7S2timjhsnTBvu6pqZWSkoikg4Y037x4oU0NNTr5/VVbOwAACAASURBVFq1NABYCBtjV+AalkQykT0rHrAIBUN6HkiZPjs5K9PTU9La1qIJnYpLiiSZSCiooA/aBJbnAmFeYLYiqlVfNKCbzR/9CvBQJYGBk3jcyrmHgmGZmp6WRCIlkaKIlJVXSGVFhTl06jpl06Lz2crqqn5PX4AiwIMrke7Awm79Oj6pDXkgJvOmWgwAhN4CQDgQ73CnQaoGwVItAxA6OjqUmQvSfTwp6WhUAiXFkioKCkzwm2/+JI8fP5a/+7v/VdbX12VjfUvOnj0rGxsbKgVUVpZJdDum31VUVkhpSYksLi2rlALDDYZEFpcWJRIp0iT2EJ3y8jIt34xU0djQoM+vrq1KWVm5TE5OysDAoNTV1cqFC+dla2tLw2eqq2ukpBTNhRHG5eVVefjgoRQXl8jFi5e0PQheVVW5hLRMdEpWVlaVAFVVVSlRW1tbl4qKcr2PNmm7trZO7ty5rYS5r++QajAoKQ2Ygc4BQO7duyft7a3S1t4uq6tLUlFRoe0YwSxoEA7sWfAGng9AQLMGFJRoUlLbCQlEwpIOByVdFJSJ0XF5dO+BVFVXyXYqLslUWr7++mvdQzBBNHI/37guR48ck5raGtnY3JSS0lL56acfhRBKvL45K/F4XNbW1iQSKZaS4hLZ3NzU/QUwXV5ekZKSEqmsrJDV1TUFvHV1NTIw+EyGnz7T/Pf9Rw5pOeh4IiqVleVSVBRRrR1RS1tb28qYeZ6zy/5vqK/X+/mdqQEsYNAAFi1Pnk7LwuKSMvzqqkopihQp+Ob++blFqayqkuHhF6o5aWlp0zNr/Yj2H93mjG3r2dL07rduy5WrV/T7eJwS6uU6J9POmdbiU88dcNDPSnb8BYDw6bxL30yQ/GGwdzQPQqt0drSrmjQV3ZKJwafy7PFj6Tt5UtpPneC0yvXrP8vg4JAcPtSvjBWGDMFA+impKJPu7h4ZHx+X+fl5/f78+fPy8OFDJXaHDx+SeDwhw8+fqSYAaQmiRTjM+NiYlFdUyGefnVZAsLG6plIXhGJkZESL0Jw6dUp/h6ARknnp0nnt48mTJ/L06TOZn1+Q7u5uBRZTU1NSVlYmX1y+LLU1NTI9Pa2MnWchwIxvbm5O5wzYePrsqYIY2h0dHdV26RMCxT1TUzMKIDo7OxUgtbe3q9SEtqGmplqufnlFiVskEi4QtQN+UvIBCJKMSSCRlOWXUzJw6740NLfI4TPnJF1RLAMPH8vc/IJc/OKipIJopFY1CyP7D2Dc0dGp+7C+vl732vrGurS0tmoipsXFBQWcp0+flrm5ed3HhFXW1NSoupZ9B7jl3rq6egX0L148V8bLvl5cXtaaEZyv9vY2GRkdke2tLTl67IicOnlS38yjh4/l6dBTZeC0wdkFOHd2dsjS0rLuaQAHQITzeeHCBWlra5a5uQX56adrCuq7ujrlzJnTej7vP3ggQ4NDCiQA0JFIREpKShUIcF5R2XX3dMvk5JQsLy8pzWhtbZWfr1+XK1ev6ni3tzakr6dLTp06KaWlpUpT3lfhtQO+HQ/I8AsA4YC8qHcbZkIBQlLu3Lkr7a3N0tXRJsFkSlLra/Ldf/1n+af/+B/lf/53fy9X/+3fSSAUllu3bmekeKQNmOvY2LiEwxHZjG1JcWmJlJeVSd+hPrl3774SN7QIFZXl8uzZsBKiQ3290tjUpMQR4MBnEAmYNmk5sase6etX4IAqdmJiQjUSqEwhnjDpkZEXcu78GZU6IFpkgVxcXFLCubK8lpHAzp49I0f6+5S4bmxsSnd3h4yPT8nq6qr09vbI1NS0SkAAAQjk9PSMSjdoGeibJB8AhcHBQVlcXJHm5iYlXBD6aHRb+vsPazrREydOSFdXh4TC+FPspcPku73/wt2vr0A+ACGVikpwe1sGb96X/+f/+r/lxPHT8u/+8R8lXVsp9+4/kNWNTbn4+TndKzDv+/cfqKaMC1MYjBWAwN5e21hXpgigBTSjqSIDHX8fOdIv4+MTKtnHonG5ePGiavvW19d0P3O+qqoqpae3WzY2o/JyfEw1dDD51tZm7aOqslImpybk8uXLqh28d+eeNDU2qmYCcE0bZWWlMjr6UoEBWgzAM+cNIMP3p08flzt3HujZBxDPzMzKxYvnVQvxzTffKKDBfLKwMK8mBir5cWYXFhclUlIsNXW1eq4wz3CuiyMRWV1bk+LiYgURFWUlUhwOyJUrX+j5dpUqCyaGg3JCCwDhoLypdxpnXAFCQu7cvisdba3S3dkugWSCD2V6aEiePXwkvZ99Jk3Hj6NAl7t376n9EsL3ww8/yOHDR1QNWl5eKZGyYomqPTIkx44dk+vXryujhcDAyCGSqCQhJkgvqinY2FAJCpslIAHiBMC4cOacjI9PZqQbJDDTOjTI0aNH5fHjR3Ly1HGprq7SNNEwcogWUsra6rpKWkg/MPDWlnq5e/eBrgugYGjoqaprT548Kc+fP1dzBOM7fPiwFq2CWAMKABEUGgG4MDaAFESe+QECkOQwrwwMPNH+u7s7JVxk3xWug7sC+QCERDoqEo/K6sScDNy4L83NrXLo3AVJFRfJo2dP5fnLl/L5hXNqqhsfG9f9g7RfVBSSp08NKLPHALSAaoAygADmSP9o3aqrq+X8+bN6/+YGe7RS9xl1U5DSORMAZrRe7PPp2Tl5MjgkJaXFMjk5oWeso6Ndge/NmzflL776ElcAeXDvvnR3duk+vn//vo4LkwaaMYByX1+fAhc+X1pa0j1/6tQJuXHjto65vr5Wnj17rgAhmUzI9es3BSDO9fz5CzXnOYAQjcWlubVZ5who6entlbXVVQUAG5sbavJgDRpqq6WqolSOHz+mYN/8HfAXKpylg3GSCgDhYLyndxwlGgQO8e07d6SjrU26OzskgIMUDoCxuCS3oxIqK5ZUpFh9BKjvXRQuUhvjP/3T/yu9vX0qOaysrkhxWZnmqR99OapagOWVJTl18rQSKwhiTW2tOgiura+qQxNEiTTP2FNR11M0CmIGQ46EIqqijG5vC5ENAInmpibZ2t5W4gFD/+LKJQUWaAcwayBRodEwx6mEOkChBsXE8OLFiDwZGNBx1dbWKPNHogF0YNpAosEE8vDhIyWSSriLI+oYOTM7I7Mzc9ovKlk0DoyXn8yrrKxYzp0/r9JfMFiwm77jFtx3t+cDEKLpmKSTcSlOBSW1nZRgqEgkUiTJcFBml5bl9t17Et/cUm1cdVWVMn/8adibMHX2GCCVfR0Kh9WeD9OMxeNSFA5Jc3OLAm+kbcBAVVW1SvztbW1y7do1iRQX63d1dXXKcGkXn4f5xUWN4llfW1NpHZV+qCike/7SxYu6X+/fvS9Li8uqBWMc5ucQ0THyN5qD2dlZPct8x3iPHeuX589H1UzCPQD18+fPKeBHaMAUUllZpeYDjZJImdPj9MyMBEMhae/skNWVFQXcyysrOo7pqSkpL8cHYl2didtaG+Wz06d1LLwDwEgBIOy74/GGARUAwkF5U+80TnwRkfoJc0QSQbIAHITUednFDiYlSfRBOq12SLz/ceabmZ7RvlATIlGUV5Yr03/27KksLS+rVPT7v/69TE1PqYNSd3eXEo+R0RfKmCurKjWUChXs0tKiOkxBCEdHRuXp06fy1Vd/of4REKnS0jKVXGDcOGWh6m9rp+yuyMryirwcG5dkIiVNTc2qORgZGVWi2NvTrX4BgI+RFyMSjUXV+RDCCcFubGhURzHGirYDsBKPxWRt3fqE6UPE0UxUlFfoZ0hIhH1C+ObnIaT1Ktn5w9Pe6SUUbt5XK5APQNhIbElxuEjCRO8k0pIKBiURCkgST/xkWuZn52UK01swoKC3pKRMhp89U+c/GDcOrTjATkxMSWl5mZ4H8+xf0XBIfHkAsZjAALhI1ZgZ6uvrZGBgSLVXPMPfaOY4F5wXnAg3NzYUlFRWVahPA4AcE0RTQ6P2sbCwpOaE0rJS6ezAXDeinzMu2q2orFRmXl5RrucGEE4/nJEnA4OqNejs6FBwAkBYXFqQ4eER9ZOoKK/SdwmNAOC/fDmm9KG5pUkBdVlpmWxvb2muFc5xeUWZLCwsSiy6pY6/aBtd2uWCg+K+OhZvGUwBIBykt5X3WEHy0XhUbnpRDJ1d3RLQeP+QhNBHesVKUul4xvkOx0akg0TCwpzQqHMrRG9pcUmuXb+mHttIC5c+v+SFahHGGFDP6EhxWCV8CIgSYy9+WmOl0yLXrv0kk1Mz8vvf/17tnS5Dl4Zo0VHA7gsGUyqpuOgBvMUJMdTvQrgcokmIS6QIcGOx2C7HAU+Z9pLQRULKQnZvxGLWCWukXbQGjJPxatx2ihBOi0lHXWzhkRYmaW0TslYobJX3BtyHN+YDEDRolrh+3WtBSRD/rz8TEk4HpAjgQIh/yPJ5OKc79hEAgJ+YotgziRR7x3IJAD7dHrXcAux3/ieKKK0ROdmKeWk1j+E4jDbs97//awmk8YFJS8LL3UEOECJ9XAghw9bMB16OA8t14CW40f7tXGq4IWfJS/SUGYomNbA5JZNGE/QjEY3OSCYtksdCgm0uaDr4jjOFD4SGJ2vuBXIhWOiwzTmlnxnAsNwoBQ3CPjwgOw6pABAOypt6p3FmAcItaW0nUVK3MlYIQCjNb/BjjrPlGzCGamFIlvTFkrToQVbmHVAJ3KkIkbIJe9IcB5ZOSZk30pMSq3TaEjF5Nke0BTDqZFpUQtHkSyFL2vL6lZJkCiKVzT3As8FQWIgNpy/oIwDgFaLrNWQJkIxAustJLczNEidB5AiD3NZcD/gnONBAu3p5yaAsbrwAEN5pA+7Dm/MCCApGSQlDTo60pEMicRJyoRpnD5BQLBiSBFkHAiREInmMMT8HhAEFena879hX/I3ETkgxUjb5DRToapKkiMQTcS/TqZ0l9jumCvZteWmZhIMW+mvnM25tA3KLQpJMYAoxUE6CJN3r7iyTxyMYzux5wLDmYvD50zB+BdlevhA9Xx6GgfGzDsrc9RwEvbEWSSIeU7Mk5sLikhLLl6L9hyw/iYIsy+Xg8iBo/ofCdYBWwPJcGI9grwfUDyWbKKl2382lUM0xj1eSSbV8+5a0t7VLZ3eHh9qNmAEVLFdKITtgHstZuOUTXQEYF06BME1s9Ho2DpQD3YdKtfz+XvjBWs9fnvdOIPP9rdTet7TT/EwTqylFDSBsR9XZlpwcjU0FgLD3b20XI8jWYritNkBqMZgU/WothqAUEP0ulrfwyCewAhDDnQBC7tQ+JQb3sV/bp8hQ/9z2g2lUAQiYjyj3DEB4pJlEm1vqP/aWemt/BQ3CW5dIJJEkojGqsdUkVlGAoCpCP0BAnVoACHksZ+GWT3QFXK4OvwYhd6r70anuoDDegzLOd9neuQDhUwIMO78vMzmrj0oaDUJMHj16rKHlDY0177J0H+XeAkDIY5k1iiG6LTdu3NTsZh2dbTsABC0rk0drhVsKK/BprgAEERMDoYjOxHBQZvopMt/9vva5a+4iM/b7uH/N+PwaBAMIUc2tceTIkYKJ4dcs7F4+i2WSF0myIRKzNLc0vuKD4NWsVe99/7UTGt6JEH1KqHkv31Oh771fAZIGoUEgFG9nG+yrZY5/6YygbTAH2FedZP2zdH24e/mONt3nOzEd5wjp2vk14MDf15vMKb+m/d2YaPz95a6vf10+5m7JZy+4d8dP9z73A2180/tze8s5cueu55s0COaDgPOpRZCNjo5o+uym5oKJ4WPuyffWVzxBhbmY3Lx5S5OftLW3eDnQ348PQgE0vLdXVWhoj1ZAvf6TSc0EyE/OiZ/gu2G56Bbnib/TcC1U16IB3JXL6DVSIAc4WOTD65/vlsm87Tk/0HD3ugqTLvzw14CDNzH3fF6xAy47AYJfAjX5tv1L9/2aOe+kVdjNmH7NGPLpj/bd+9lpz725DWdiMIBA3gtS1B89eqRgYshn4ffjPfggkBwFHwQSJamJIddJcYcohnykl52I6Js+249rUxhTYQXcCvh9ECzR0atRDBBSDbH14vc1vwHlzUOvmuZ2koD9BJl2HRjYCUD4tQ47MfmdGG+uViHfM7hT6WX/2HKZ8bsw53w1kG8CWbmfu9TMbv12u3PfBpx+DXN2bbNP3iWM89es1W7WgTm6MFfnV5OfoEeYo3NSNBPDo0dPpK+v4IOwm/ewL54hdQFIjyJMDiDY5vVpEDQPwutOim+TAnIJn5/g7YvJFwZRWIE8VwBmSQpwGJEDCLmPst+5D2DAP6p77uS4SN4CBxw4a04i90vG7neXaIj2SIXsJLo3DTtfZvI2Rkj7TmNAoiMuV2XRjcFpQxzg+DUAIV/G69eksCaMjYySftDjQFSer/aV295G03Zq85fU9O5+ByBJaEVmSd57Pu9gJzCX71rlM/+d2mJdLWlcRNNdvwl0vT5+T/PgRTGQIffevQdaJ6QQ5pjP29iH9wADeJHUZqc4S2cnJZZ3CHMMvC2K4VX765unuhfFVxjbbvv9Nc/uwxdeGNI7r4Bj/K/7IKQ1W6LHnSxjYiCgdQmmJ6fk2PHjChL8F0yXQmPULCA1MenAKZHsNHJ+CZ1ESmQOpaAYjAVVrTM9vMl34fUsnpZ11H+5hGe/tBBuHPwEGMHQ8FEinThjIqEZtU9Iee7G7sb0OtN5nTbsDGTe/mpYE5dtklTpFJWikiq1Wdznv2Ti+aUedlqXfLUv+QCLmZlpefFiVEvaO7C3E5PNHeNu1+rtq5nNJuu/l33OniP6gGqgLous/56dCtKRdvvVKAYAwkPp6+sthDnm8zL24z1xNAixmNy5dVs6vWJNhKkEcvIgJIlvJVOc5yRlG8R/8Emf6qUz9lIiu/Sx/nnj3fpLh8nSr6KWfV+JmaDgjorbSIjRVSuKd5EBzkuGmEnr/PoBsLx5+QCN3doaP8b+YO4uv49LYU2/vkSYpuIm4+WO2SvzWYGPMZOP2wdSFRUZ2Z9oEEg9HkjEJbARl+jypoRLSyRUXSHxkiItDDbxbFT6+w7JyvaWFjlramrQvUURpIGBAent6dViSBRYmp6a1LNDBVK+h/lS+4C6JhPjk1r8jDokPd3dMr+woMywra1dmTX3Ug6aM9PU1CjBYJFMjI9rZsLGhoZMTRTqOczNz0sxBZ/aW6Wi3OoswGA3t7b0XgQDaqiUl5XKdjSqVV4bGxuUPiBNxqIxLSWND8bszIxMTk1pFUcYCuCgrbVNVtdW1VcD8INGknO2traqtUwAR9SUYH8BNqg1QSEoAAiagIaGRmVIZF6dnpnVduiXMSDEzM3NSl1do9TWVsnM9KzWk6BOyqVLl/TdhMIhHRv9bW5ueCmf0wrSOqlSGwhqCWqeQzLu7e6S2dl5bYNx8Rkl3nFCZf1ZWypkJuJxaWqm7ktAv0cDQD9Etayvb2ipbCpn8u64CBfn2bnZeamqrtQ5zc8vaI2ZhcUF+cu//J1MTU7r+2tpbZUV6susrWnZ7o52BLS01taYnp7WMbEv0N4AEkdHR5UOlZZV6D3UjwFsWLXZmL7HisoKbd+F5K6tret74d3jYzb2ckKzXFJPg4yd1PsAAFJJdH5uTkt967s9c0brf1Diu6e7S+dqFUTLpLOrU4uKqUXBS7PvNzsDInnuwf0H0nfokO7//XYVwhzzeCMa5ghAIA9CW5t0dXYYE8yIRk4CIS+6AQDHUF5NJAdLyeZS1zSxnpf2qwABZmSFn7Ipmy1lMeloXerm9xdT/jpAoC+XY94vKWVyv2vyyKyjjiWc1hEeeIDgpEmtaeG7FPh5QCpjd9SM+a9rXnari8ljO+7bW3IBQly2JRxPyNyDYfnxn/8gHYcPybm/+b0ka8pkZGRMnj8ckOqyShmbmQFva9pwTHmobmEklBaH+bHuC4tzWosBxoT2AeYCOCgrK1dGByOAAcFQYKScq4sXL2pYMmCDUs4wIRhFdXWtMhEYaktLsxYfg4E5JsLzZz87I8ePH5WpqRn57rvvpaSkWIuQcR9jo+/NrahqNmCuPOt8MDCPwPxhKAsL89LS2iwrK8s6Dwq48Tt9d3d3q/c6n9+8eUPW19d0HjBi5k05eCqwsq4wQmqb1NU1yJUrn2u/f/rTd7K6agABQLa4uKT3AnCbGpuUUQEgaB8gAkjhe9ZwYXFeHa/pj+JtiURcvvrqS9XWUPadNWNtOts75NmzZ1ZEqqxMq2XCHAEcfX3dKv1SnIq1YU2gFXzPmrD2jN/qViSkprZay82zhv39RxTMwHihaVS8BVhQAA6QRfEuamiwptSaYZyAFJ47efKo1tu4fv26PgPwY634x9/ffvutVFfXycbmVqYkNu8eoEdlTAAFQGNiYlIzGgJkaJ8zDWCgPs7Y2JiOmz3IXkMTA0j74osvtEgeF2tCATr6VEBXVaUAZH5+ThMfnTnzmdTWVlrtDWRHZQZZmsncFCA8eCCHDh1SMLzfrgJAyOONkPyKTXvrzm1pa2+Tju4OSaEB0P+MlQbTIhGYo8ddHFM1hp5lNORV96sAzdklVxNghZPYQFltgQ3U7xyT69yVx1TecMvOAMHCd0xdmhGUVXJ29XFIUm+gSOtR6AF4m5klO49c5rv78b+fJ61YlWlOnBZB5878PK2Q6Q3skOu/N5hlCgChRRISk2B0W17ceij/6d//B+k9dkT+zT/+H5KoLFfiPPxoUMqKSiRUHJGKikplSoCDr776Sp4+e6oEm785AzhxIVHDcGCWEGs+R2o8ffq0MsLp6SktP87zt27dUkZ7/PhxGR4eViIOsedzqkbCKPkMUALDgLnA2GiXn8ePHZNLFy/I5OS0psI9f/683L17VzcaEilMmbLqvb2H5OGjh1rXBOYGw+vq7NS8KY1NTcpw0M6RF4KxPX/+QvuGucC00C5wen744TsdA4wIhsTcT548qWps5gsD434kY5hUXV2N/PTTdZ0jjOz+/ftee2fl/v2HKo339vZKU2Ojlp9GK1BSWqL0A40EBaDa2lp1PPQDQ6R/1oM+aU8rUaZFXr58qf04nxHmcunSRT0X2M/XKDPf3KLrMzc7p4yOglaNjU2ysbmh7Q8NDeg4tXR3KKSSOOvP34AcSsTzGZoH8gLQ14ULF/QdA+a0zHcsJl1dnXLq5AkFN//5P/9nnQ/twtTPnTunWgLm29XdKz/+eE2BGnuIubCmmFoAFoAn+gqFinQ9UsmU7qPpmWltc2lxUekclTzZW1QQpfot7xbt1KFDh2VoaEgJH2AMkHHn9h1tc2NjTTVVJ06clMbGOqtLU2Q03u8fUwAI74du730rCTIpGkBobW+T9u4OSXrSpLH+tNZ0CyeDEvIqs8E82CyvXGmK2yVVwtFngkEpLS3JMScgpVo5XK0TkxYtNMOhQorBhsjvqnl4DVj8mqXKGIo9Dm6bGdXv9tamOZOFQlppjlOh4EXNDlZ8yjQLVmwqnysfE0O+Hhv59JfPuLSulldiGAkPickBAQ45n5WUFvuq6Nka5etIlc84d7onn7Hvtu33+VyuBiEhcQkmY5Ja3pT5l1NSXlsrlR0tsh4UGR+flOEnQ1JdWikVVZVSWlamTIkLIv7ixQvdc6w77VIGHSD99OkzvQdgMDs7o3vu8OFDauunrDjP8PyTJ0+U4ZCABuCB9IiU9ujRIz1DqOqR7jmjlD4HSNy5c8dMA7Mz0trSKpcunpfp6Vm5ffuO9gGDQPqtrKrSg7m2vi5t7R0KQBzxxyTQ39+fKcSGtoMjA4NlbAAQGCil1GHaZ86c1bl8++0fdXx8z3nngunBnJHuGXNnp5WCNz+LgHz//U8KCsjyCjBhLsx9aOipMl6+A1S5UtUAG5wV2a9bW5uqlgcMwMBZrxMnjquae3p6Tpn38+fDmUJb3V3d2icSb3lFhXx2+rTSg3t378ncwoJqKAjXY/59fX06FmcaOXr0qEaAURYeYDU1NalzxG6PBM4YWB+YOWsxNDQoJSWl6u9F9Bhqe0wogCTW7evffKWg7rvvvtM1ZU5oRQBEgCnecXtHp9y5c88rMV+k7QCaWB8kduZfU1MrlZVVOlbaBiCx3rQJ6ACsMV/AHPPjPfPuWD/AJpoVaHF1TY1UVVTK8+EX0tPTpW2xhy5cvKD+J2Vl+NiYc66L4OH9FgDC+6Q+e9gW5ZIxMdzywhy7ujpMYtYiTfZPjQf4DgSDupHY/BAKyrcagTf10uraum4sUCiHF6TpGIwzR7gK0gCEzc2oPHkyoIQLuyj3miosJUVFVrbZb9IwQmWLlbWj+2N2s5+7MfmZnPvdqddjsbiicoiLEVMr9QwCZxwcagMHSN7ZmXojyGhPcvswPwsPi2js+uts8G0AYadx77RNVCvgqgJnurGSurZO9iHrjuYAZoPUgI3VVNy8h21dBzKhQUD4DiLlNA7+frPjetUHJXe8/r6zz9u4XgEdOSDEmZ2ymqnsWu7hMVFG7vdBACCop0zMq2jKKSkKyXYgoPbzseEXUlZcphI9zARQwJqOjY9rtVOIMISaf0+ePNTvYCicHwPXpapahwFCyGEQEF0IO+/tyy+/1PNFKts//vGPKsXDvJDQ2b88w/O0hfT5ww8/KDNQZ8cjR1RFjO/Cv/zLv+j+h6FyZnn/qOJ/+OGarG9s6phogz5h8JggYG6o2IeHn+q9TtXOvfQLI+JMX716RZkhDBqJlPVjHrx/2uKMHjt2VOcIUwX0XLhwXl/zf/tv/6pmA6RjgBBMnX6am9v0vmfPnuo8AUMwOCRzQC/fYcOHYaM5YJ3HxsZVLY7qHYDBeFjL06dO6Vjph/XDjMC7On78mAK2mzdvy42bt6W6ukbXlgsVPMLMsWPH9Tk+Hx5+ppUznR8Ac+R33oUzkaC5YbyABb5nDKwrz/M59wN6rl65rGO4du2argv7gPcHoHJOmUj49+4/0PmxPjzH/LkXMMF7R9MQDkdUG8A7dwCD352fC20CtngXgAHeH+MECNHWkSP9cu/enWSN7wAAIABJREFUfSkKh+VQ3yGdDwCIdTp8uE/5AqABQdBohZURLwCEvaRU77nvhAcQQME4yHR3dkgwiuowIOn1TYmvrklRfbXES8NaKpaNuLKyJq2tbbK2uq72QtA/m+rly1HBUxe0ykFg07lNDCF5+XJMJXMcXGBUSD6o2ED5IGU2J4e9pcUcpiAKTt3KBkeaGB5+roybg+BsdDwL8eCwII3xLI5K9M3GbW1tV2cb7IIQVSQS5/yDig6iSN9oP1pbW+T27bsKFugTZgoRh8BMTWIfXtHPIaYQOg4bRIZDyWf0iWSIDRaixxidtEifhPxAGDa3tpUA0D/ElrZYD4gDa0CbjIdDC/FgHMyZg4vk5hyQaGt6akrng7cwBIk2cZTjJwRzA0eqikpZXV3Td8LnrBkSCc/DHOgDQheLbcupU6cy9l0kJMbGc6wx84EgOcbB++EzxkNftM3YjXDVqa2VdaF99gTrwz2sDwR2bnZW+4d4oxJmHnxn0iCgBjXr+3JY3f3hyQUIWrnOKyeuwFUCkkgnJR0KyRa+BrG4FAUoO27hbIBRfAiQGFnLSKRI9xjr72zprAE+A9xfXl6qJjAczEx1btIxtnjzNahWJgfjhXHwntjbAFykd/Ysan/OAnsCcACBZy9C8MvLy/QcIHHyLO+U+1nv4uIiWVxaVSdGnuUeGD7vnD2NkxqAmv3EPFxYXHV1lYJ7pEzGiH3dlbBGwmWsvFeYNkCCNhgHv9OWSeHFKhH/9NM1BS70ybrQB3Nn3jCk1dV1XdOy0lIpLrGxwKA4H2gl3DlgP2VD9sL6DGed8VVVVugZgxbxN+8D4Yf+WHNKFS8tr6j2o6EBNX5I5udNfc/7iUahHcVqcnHvlr3AOqCRY16Mh3WlD5gz55u/eResNX0xJugncytXiVy8+S7qeXA+H7THO6f/WDyhtMfO1qLSUbP116vWiH0Ujyf1e94B78lK2Kd1LOyTmpoq/cl7Zu6Mi2d4x2iT+AzhIRaNSl0ttRRIN74iJaWRjD8C9IzzmdGyFgDC7onMfnzSRTHcvnNbOlsdQEhJeisqQz9cl5//9J1c+qvfSM9vLkkoUqSJLzgkG+ubKpGyoWDAa6urEo1tKiIFFbORrU69hWpxAFFNoWVoaG5RZo+NG69sJBIOJAeZn198cVkqq8rVnjY5OaFOQhAwJ0FxqHkGhop0weHiwHEAv7x6VTo62uXu3Xvy+MkTda6pqanTwwrhZByM0TnzcJhoFyYXDoWkorLSAwUhBT/YG/nJc9M4ApWVKQCCGdMe+SOYC2FrjJ1xqMNWXa1sbmwoMGFcEDUOIzZkGOfdBw9k+MVzlVSqqqr1HhhFd1eXampmpqeVmEc8FSFEgXHy2cL8vJSUlioBTWG/3NpWwgbQgrlCLJAgYEQQDdanHeek8XFlFFzbW1uysrqqzKKmtlbbXllalMrKCiXS7j7AyunTJ5VRMVcYfSAckr/6q7/Se/lsdGREx+mIEe8Hgg7wwQO8u6dHNU+YqPCSL45EFCzMzczK5vqGEh4c3JCkABanTp+S9jZLRqR2zdDeGyJeBwgpzzfF03V4jq1ohojnIdxR/0u5qB3ThFjYnH3mQug0PMznC2IV1k3HpA6jqv15NXmNacHSMjs7p+8KkAWTUs2R+s0AXyz7ousr61tiyi8AGnuuo6NTmYH/on16YD8DNrHpY3d3jsp8n9GqBcy8iK9CIpkwVXPAUkgjELDHYE5oLPgML38zJbo5etoob32wmRO5oWGgNbU5a2EpqrnMT4ksl6bexgfK1lZ0z6jaOxCUlKe1ypr+PO8aX3ZKJ/WiFbV2LOIkGrN9TF/uec6s+e/YvlTnXtYZCVoCthahkP7O/FVrxn9KC23sGhKaYn1Mo2Z+QCKhQEDPDgDPb6p0/lncF08ktC03V2gXtLa9rV2KIkXaB/2ZjxVZO0X3BvSHsUMrbK9gGgCAm1+Y65c+HLDj/gBGZo1+Mn8tngHE8Q+wyGVrUdAg7Ece/6vGlPDCHLWaY1ub9HR2SCCRktTaptz873+Ub/6//yq//Td/I6f/p99JpLREBgefavjOxkZUurt7ZGV5Xb2hQc19h3rk6VOTEmDI2MK++OKKbjaY1osXz9X7NhA255nPP/9c7wdBo7bCbPHTTz/JhQvnpLmlQX7++WdtC2YOGHA2M6RWpHjn4Yt90EnZv/3tb+XoEVPBLS0tS1tru9pXOSjOeQjtB8/SN20jmSwtLaozEigaZm/MKaUqOjyzkToS0W1l+tj6ACYQWJyXcPJibIwDBk1fSMr8RAKCMKLZQINCbfSOrg75l3/9V5mans5Ig4zDSdkQBxglKkBUzhBxnJpwQgNIwFzRJvDOIDRffv6FSves86VLF2RubkFu3LihjAOwRhhbZ1e3PB8dlajHvJ2KFwKAExUSF4K6Y2LEQCPtMu/f/OY36myFVEc4ViwRl7/8y7+UtrYWtYU6VTn2cAjF1atXVYuAJMl3vFdsp06jAbjjuwf37sNZVEt09uxZ1aiwL86cOSNdXe1KcDQcde/xwWsmBtAxw0oZ//bMcmwaYwApmAGMPhlQYMS64vENUzUzCozDMRgcZo2hOuLsIkmU8CpgoG0j3Eq0fQDDmDVSHH1m28o4jflSeehn3oLyu58pvAImgsZAYCpmYjMtjvri+MxnFubmpYF20qO3BhnG4YU2w5isLWPs1mY2mkm9Bo3NKNCgXccolcF64dPGjFx0lTN12STVLCn4Mr1a60IZsIKerL085IEYPwF13v7OiRSwDmhw78w5+Lq1BZwgQftBiANnxvSzkUCZyCj3PnLsjNqm7726Ptzau3EqY/fMrOYoalfmHSkwAbS4yDOLELN9YqZGF3GgYMJ7p/b+s07M1qrNgcgK/+VMhWlhf7DofB/KjKHgg/Cr2PL+eZgoBvVBuHNbWrxyzwGQZiIpWwvLsjQ1Iw1dbRKurQCWy8DAkMzOLCix6+rEZoX6e00n1NLSKOMTY+rsgpSOmh9vVzM/vFSpdzsak7XNTZVYTp08pQwwXFQkJcXFqlrHNnfx0nktGvXTjz9pu0jNk1OTkognpL2jXZ25WrGvhoLS09OrDmD0iSSL88zRo/1y9859VaE3NhLqtaxAoKWlVaUC+kblhiYE9KzAIxaV3h40H6jYthSRQzyRzJhLMpGQutpqmXg5piq+L7+8Iisrq3Lnzl01G8zNzau2g/HwHH1CIAATOCoR2uQAQnNLi3zz3Z+0n4bGBlVDcrFOiwuLOi80Jjga0SZjoR3WCoKNWhOTxtDgkEpnRw/1q3YGey/gam1tQ22lgB6IW4L6Ac3NMj45qQQXqR7wgNTO2tIeIKkkEtZ5Mn4kRjQkAJKvvroqo6NjqpUByC2trsiVK1ekta1Jfvj+mhJd1mRmekafZaxINbF4XNcOsEEMOHHqaD1wkmN8q8sr0tHaqjZi7L4ARWycgDJC5IqKPKK0HwEC4V0Q06BIEskKAo0km0oqrdRIIBW3dq6C6pixRpH4mKyTJl0WQ/07Az9MOjbfHJMMIcSOifKuIsWmCXCMiedhtpod1TEkfc4Yi98fxP0Oo1Fg4DFyk2RN+i0qslDfrHRr2g/TcqjuJKO9yEjdafLyx3RP0DbmCvbcq4zeGLtqAjyNgPbhaRX4nD1LVVlAvDOl0IarkYGJBU2fAxpujKZdMEmd/QkgBYCHg2gJTVJ33zvgBVhXZ8TKqgx4My1OViPkpHMHYp3kHovH9BnVInjaAacVMq2Cp0XwAJWCFtT/gDzvnaijtM/xzw8IPayYWWfdH+6MZHy0TKJ3e8Hvu+W0um4Pvsr4s6jF7TW+B+TaembD3HUPar4U5ytmJjOuAkDYPzz+V43EAQRMDC1tbdLZ3aESRjoZl5AiUHNUTHqmAtSN2LdAi4TJYP8MhSLKeBcXybgWlJ7eXkXCHMbBoSELw9EkLEsaZ9fU3KoHc2zcfARwmsJGSfwyccuYGMpKi+UPf/gfMvJyRJqbmqS9o0MTykAESfLR3IgHbbm0tLQJY3fx4S6G+cbPt+XunbvS0tIknV3mIV1XW6dMCC0Fh5/4ZP7GDjr68qVseYwYhsp8OODzC/NSWlIqfb29MjE2Iutr5smNZzjU+tbNmyq9I9ETzjYy8kL7IqYZ9SLAZXZmVlrbWhWw4FSFQ+bwyKjcv39Pmbd5cAdk+PlzafCcjhgPdmz8NTAFYFZobmpW1eLIixGNi+/q7hakoOFnw0LeCbQMHR1tmvzlxs83ZH1jXTUdrNnzkZeZRDL0Waaga8rzHD8q62v4JwRldWVFzSjTMzP63lnPzs5W1RLhCQ+hLykv07CpttYm+emnn2VgcEDNC6wLoAIghBnh3Pnz8uD+fdnc2lRNEBqnp0NDarYBrC2SeCiRVEDU2NAos3PmqY8PBIDKExT33MTgJG1z5ExbqmVPjZsKeqGxkONkWtIaiROUrei2AupgIKT7RMm1ggEjoNtb2wqMlXEHUpJMJPUssLdLPHPV1vaWanbYh7FoXH/6CbCTGv2aB0LO4jHU/UEJF4UUVBtDcqGrQYkUhT3CDjje1vXns2gsrvQ/zPdenhLGVVyCn4GlkA4G8UUKqGmLCZn0LAoskUTxX3BMCfOjhcGFFTCjEaTd8+fPSVNzo2qU2CcKP1QCNaSBTRzveJ53TB5JHcdE6IP6JCSTCqYxgdy9e0c1dfg2YC4zLQ3vAafjuOZdiUScA/KCPHz0SPoP9+ueg+mXllhElqnt07KxviU3b93UEL/D/b3qe0XyJtafsQF0ASoAAXwGEsm0JFKpzHw4x5yh1rY2pUtq34/g9Guqf/b/1nZUk1UxL2gQpk7VrqiGxdJcuzTHfu2SMl9PY5MZs6eRQENiYctBBYWhQEjvzWp/PHDpaQ1cdjjmre9bQ76zmiwFCGo9yZpBnPYIQ5ozswQC/G77ugAQfhU73n8Po26CgbhiTRrFoLvAV4sBFJ80AsOG535+R2LF/g6R43PneOQkYjY4NlIYML+D9IuKiqVMHdCCCjSQ5Csry1WzsLqypo5NJSURJRZ48kJcenu71W6PhI3ZAuJBjG8inlL7PZI8xIs+IKhIJ3h3Y9PuP3xIAYojGGzgpSVzPFxZXlVtxGdnPpNIsTlyuUxvSO20h5RPe5WVZbK2uixb2+tqF4WRcS4ZD0QKyYXPsNXD2BsampQ4oU5lbVgr+0mYUUSSaZyuFjPVASGWrA+MlHtJLAMKR+WOzREfD6RvlbxX11Rr0VDfoPNeXTXHNxxBWVfminmAsZOBj8PPPUherAtmgs8vXcrk2q+pqVCTUREOdlvbUlparIw+FA7qvMxLOaXjcw5f+IXACB89fqxmC0wrrLObBwAM729MExBA+qYt3iHrhm8I7XGxzkZ8Lec/mg2Tbo3g5KpYP/Yp2hEg6Pnw6e6x06bTmn2QeQBOYbjsZ94h+woEgKaKNZientHvTp44IRHA2sSEDA491TljWmI90DzxE5CHycryHfTrmXn8+IkCFc4FZxGARqKeqopqGRh4ogAYpqlOpLMzUlZqYa28AzzwcbLD0Y+8AtiS8avB2Y1+0OShQRoYGNQzDWDDAZnvaZPzTVQG+/PEiWOq4WJfAlrRHsHAAamMA0BJfhV8ctBAsa8vXjyve29w6IkCaEIQK8oqZXFhWR48eKTt4TjJWXARB5ilAPaY6lQLppq0Em2PewCygHSenZic1D7RVDx8+EABwsmTJxT0I+CgWfvt17/VvAasD32Zc3NA54+mDmdoxtXS2qjhkdAYK188qomKAH7ci4axvqlFnj4fVhCBmfLBwwfm6X/osExNT6l29PSpk1JVUapnHidoxm5myhWZGJ9QOkbYYCKxrfkFuI/5qB9SBHq4/y+/RqKgQdj/7yuvEeYLEOIazmXE3C+xODVixmHHU9c5+6FfVeqoPp+RgwCpV526UIF6UgsOMYaow3qYOWh19bW+UENsj55kkcb5KZvYJ2OHTSU1CYz5HbSbA5FnDyQZizoKpQOa/tWFKpWWm5rfMSb7aSpdUL7ZIBMKnHBmVISOE5Cia2dLpR9z6HFrZPZWsx27Cm5IRgiWfsnApDNyTYRUiuRya4v2RVWMaQtz48Jxisupf50q2uyWBuaQstDkmF3b7n32bFjbtdj7UCaRlXM6SyVQ82L7Nwcrs0lm7Zx+lTT9Q3T5DHCQGa+n0uVvV2XPr8b1SxlO/cv8nUqWdp0E5eyweW3mD3RTvgDB7MFBZVik843HLAEOjMrFmMOQ0CS5C9+LQ/2H5P59y/DHfTxjXubVaqKhf5f8BqYCcIBxu+Q7MC5ABdEG0a2o7m8+w8nPMRrLrd+r4AVmCrC4ceN2JrIARgRzZY9iEuJ3opSqawDgKwqeUeG7jIaa1reRtMYrysQAQfQFw8Q8xPzRGDB3TJgNaNJm55Q5myNsWEET++fkqePS13NIXjwf0cgBQg7V5yeRyIBY7mXsxPZzZgExbk0ARsyHi8yTmsQpldJnWT/aok00CtAVmDxrl1Dn4VJdX8I+AcI//PCT0jjugUEXRSw3w8iLUU9rsaQmMMxigHC0AW0dHbK0sipl5WWqsaFfizaaVM0A15kzp+Vof5/6Kf3ww4+qTQPgPXz4SM88/iiAqEhRQE6fPqFOvYAtgN9eA+R8j1UBIOS7UgfovnwAgqkbTZLz2+r8zIJDkfudnzk4Qg+TU1ujz/7mNpYxYdRalg9B+bg6KsGIjUmpJgAdHIw7YR61blxZadOcpixbonMSc/Y4L2Oj2jQNaNB+0nPuMvWk2STpBCnZ/uY+f25BZ6sz5u+cfiwe2By8nN0wq+JzTmYhJWAZe7PnAW6ORZ6azrPrqluV51zlAIWzZzovbpccQkGQ59WtqkZPrUxfquoWswU7j/WME5XnQU27urYOKHlOi07N6+73/+2YEUTV356z97p34gAQ92eSYXl9Zd+/rZmbp+07897fyytfgGB2Y1FJt7amTk1gjx89UfALA4fJogVA+kY6Zl6XL1+Szu5uBQjsIyR0chYgNZLRD9Mb0jkMEkdd/FJgzLTBPTAQrSvQ26tawNnpOWVODrTRJxoAIoIuX76sjOfYsSOqjSJ/AuPhd3xeYPQwbNYfDQQOrjB82uVvpPBvvvmjvhMYNAz0xo2fFUz8/d//byr9s/8xP8EcHZO7d588DxEFGgAEEnLR39df/0bu3LmtGgdMdhNjk2qug1n/8z//i44FjQdCAkCD9SUiiTA9xkbYJGsAcOCnAwxffnlV1tY3lBnzGf/ojzbQFrAWnIHWlibNXkjoNpoZtFzXr/+sOSYAN0pvJGnZEgefajQTIANw8f33P+o6YTrpO9QnlTVV+i4AYi6smUgiQABr99lnp+RwHyHLi/L999+r9sZSJE9mMjkSDVYUTkt//yFdu88++0znvtf7P9+zVwAI+a7UAbovP4AAU3Xu5E5id6l7LYzRXZaq2O5BxY2q2vKve3ZNTzWbWwhIJfGMs01Qmb+lbaYtk2SVWQuM1TIwjo5MqKTEBbFyUqyzw9k4zIeCw+xncGgquNzYSSzt99Z2XsmWL8pUwxhbiXCwtox8gPz9DA4CiXQ1MTmlsetISzyDcxPhTw4UAIJ4HpU+Ug4x4DY+s0HqOnogxTkVGeBw4WWAFi91chr7r2kKNKzLC6XSCWacl2jbc3LzHMmchgAAghmjGGnHu8dpLCxECqc103A4Bu+YtwOJWQ2NaV7cGPygQYfjfedAk78d912u1mCvJah8AQLzw1YPw4Hws8eQMpHkXR0GV3QH5sB8YTZNLU3q7EoUB5ohc3AlUVe1nh/uow0kZ/Y9e53LMXe0CTB5dcYNFut+Q6J3+T16envkyeMnGh1CJNGhw1Tpq1OVv0tG5KpOwsTpM2uusxwhXIwVtTrvg/3AeVtdXZZkKqFhx2i3AEIwYXIsvHj+XE6cPCHff/+zMlZqBUSjW1o4iPA49c+ZnVHflf7+Pnk+/Fy1L6yBZWm0jK0wXuZP5sdwqETBLuG73AuAYMwufBl60NTcJMsryxmTCMCKdizXQZGMj4+p2SAR35K6+jpdt88/v6SM+Oefbyh4A3wwF8ye9fVkoCSHSpOGAFdWVqtjdHOT+RXVN9WqeY/2WR89K6GQ+tgA3Fiv1tZmdbxeXKRo05jOm/PIeQZsuQRDkxMkmarTNoiO4r0WAMKHYaiFWgx5rGsuQEAlbwQ564NgHrCW2ZBQJVTObGBLRkLde9IkJyUUJgbXnK0gWhAfUDySi9W9D6hdm5AZ9fQN4EiFmcDas1wCKU1AEg6hmsMLGAaNeh6PY5MkIdgvx0blu29/VIRuKvMeVYGavQ4m6p5NS3R7yys4Y8AFok1lM2y56+ukeg5LUXFYVfh4+ANELB4aB6KYSg4QfZwc21pbvYQjEK+Iqk9JhkOf3MsaLCwuaYEavmfuJB0h01pRxDLnqYdHCmesmEpMEGCXm525cT+XaSZMokZK4lmnqYFpA56QxlLJuAIYvkdSs1jnuK4pc2BNNGdFDDV+UO/BjGNMPK159yHOZJaDqTE2/EB4V/rmvfjtDLh5Qwpmp1lw284PGnK3Yi6g8Esfb/o9j+38QW5xAAFJlDVTJ8U3+CAwgMXFZc0QOj42oQwFVbFV4RN1pEMNbjUA6lQqL68sl7t372vuCpgjGezYv5wdGBuhsfgssE9gOLxXngdkUHQIdTfAAQm5prJGhr2EU1TgI6EODGdk5KV0d3eq3w9+KVREJAKJPpmT5ROhMuSYAgEAK+Yo+kJaB4zMzM5K/+HDVplwdETV9v1HDumehFnDxJkrwAaHTvoCRJDeGJ9Gi2IQaWgkKVOxOh0CEk6ePKa5TnBgxUyC1EyfgBa0J+wVfG6Wl1Zkc5PY+ypNaMaaQHvY69yjPkMbmzI2YU7D0A6ACoybsXIfDBwA0HeoV6YmLRSXvlhj6BbrivTOnFhr/EWWFpekqrpatUKcJZyReb+YgTTxUUlEizXxrklxTTv4RgAGXaI4fDWqqsu12BERVjh7shfof2JiSseHtubJ44dai4HfAU6s014D5HwPVUGDkO9KHaD7jHHE5PadO+qYRJKhnQACXqpowDkYhN6ph62XUEMdfCQgtfX1srhsoXV48pIlj4tUoahEYeR9vV2yskLegSU9UDhHQTxXllfUwQcv7OHhESkvrZb+I4dlcHBAGS9qS5eOGaaG0xRElbY58GxOCJBpLjZVwoB44J1PpjOzQYbk2TOTUiDO3V2WKx0fg77DfXqoIbY8x+F1sfxIEloxr65BKiuoYEbluTpF/hB7mDhSF1IPcyirqJJHTx4q2Lj8xWVZW1uWly9H1MZ46tQJqSivkIW5JV1LnoGAoU6EIZgT2TElsjAkiDEOgIwTQg6TAJQBbvh55Mhh2dreUKKGpHX61GdaQpi1p9AOzJ68DzXVNWrfhfgyH9aKd2CSXZnmc/jyylfqtIVzJSlwO7vYCxazblqZfRBvuAdnywEE1ot37wCCLYdbE9OumFaHvP7bMj42qRLmmbNn1M5sIBcvf4BnVNc+Ulyk5qb7Dx5LPBZVVburYQIoBNDBlGBGW1tRlbwB0VtbZiriH46R2MJxACbRDtUFTeNWpN+VlIRlbW1THW1jMcxuBFhgMhTZ3NjW8cKIME8BWgG2aK8SGm7oEu6YOY5zjmMqzBZww1lhjKj9OV8WdWFhkhamh08NoZghpTNWY8XWLB4ngx+OxUXa98jzF7q/ARk46tIOUQNcgGbmQh0XPgcMR6MAXmeOzPoCESEAcDaBhgyWJpywf9HkmO8NkQnUgUh6GSdN6+VMk2ZedLkgaAPhx84A7zKbSMjMhYRWUv7YkhCRgXBLz5UJEIw3pH5HCFDMCeEoErF8K6w5a6DrFo9lQldVmMj4Tv3yxnfgfQ+OR6bLAkDYy9X/QH3nAxA0BjrJoUipfdXlejdpt8zCjlIpOXr8mIyMjmYiHSA6EEgYEj9hoi1NTRrihccuqY9xOuLQ8hNio+l35xY0xWdHe7vMzpHat85TQx7SVeAwjL4ckT/89z/oczA9mCpoHNUfUhhx+qj40WRw6LSE7eamVonT4kzBsIYfWkGUClnbWFdpCea9uLSkqj1CC4luQJKYGLcc5LMzMwo2OOhkoIPQ4+xIP0hQkeJS2YrGNGQPD348kjGL1NVVy9LSgpw6fVJ6unvlzs27srCwlIkXBpRBXMgdARg6d+6MShZIUDiVkfgIAgbTcNoBiLFVoovr3Jkf8ybL45Mng3L79i1dCyIrkNDQmkCIIVhEMjj1LPOZnJhUgra8tKQAEen0y6+u6JzNxPNqFrgPtB33ZbP5AgQzlzgzCuFyG7K2bimyTaNl4XdmqjHtEJdmLPRKAVMsycIQCXnDpGb+L2pe8+LiTVNj5iKYuGW7szBBvcdzmnWWP3M0tRh2fgIqstkHDQRwuaQ/lsDJOfbaCF0cPb9bmLOlFLa2zZ/GqcLd3+5l0jVzVp8gTfJk4XOBIH5ClhCJMa8TARRP6DlybfkdWnUkWnvETI9ouPz+MJk8D14yIMuCSsQD5jHTPprza8jyDnhRMn5zmKMv1pd69GQ0kgmciwMAK9NOWi03WzsHpty70s+8zIW2dvheJdXxF4BBOGEyYaZP9y7UDOk567r+8z0QBYCQ70pl7yuYGPJYs3wBQjoFOk5qLDyo35U21XDBlRXd/keOHZPh58OKniGKqAEpAkVct1UrW5YW4pgrquTc+bNy+9ZtDR/i3lOnT8jCwrLc07KzAZXeycgHUyUXAZIVjj4uLz+SPpkFsasCRAixQvqgyAtORajsNYWop0aH4AA+CDGCASOJUMnOqrOVyJOBIe2XxE6WldA80HEqQnULEW2ot3Kx9Ildk8/ROpApkTW5evWyrK5HZfDpsCzMz8ni0oJUVVdIU3ODXL50QW7dviGNTQ1ypP+o3Lh2S8rLK5UpoznAxolGBcCCFzkTgQD1AAAWGUlEQVSe4EjzhCViprh585YSYlS/EDmzbVcrOIGo4nyIKvS3v/ta+g/3ycDAU1V3Hjl6RL799nt1dCQjIhXjXr4cVzMDalVMJ4AsQjU3N9c0zwOAD9XpV39x1QNTXlSDl7zFRWPksb0+iVvyBQjmFJs1g/G+kkmTDgHBhLfmlkjXKB4v6ZE5lgIKjKFwWapgT4OjGQYtU6Jm3PN8a9SJNW0VSEMBS5TkZ9zGPCz81UCJaQ8s4ZIBB2W4vgyN/oyJDlw4oOD8dtxcaMNFrPgZupPA8b0xUxlOtKlMTgHNJqngA8kdrm7aCsbrMgT6pVL1sfEyUbo5wlwdmHEAQpM1eSDMvQ+3ljoH70bnxOtAhv+nMX7a4W6LTsmAMAWC2XTZCBsG2OzNuQRWzmfHgYZAkHlCKQFMYaVBNhabl5ppPU2HAx6mhXl7LZL9oN0raBA+CXL36iScDwKMH2kTHwRL5pLNmqWOeikKziQ0LAdGhqTLBUPTDIDLS1JHOdm5Wamtq9PYeJjmNDbAinI1A6yurKojXF0NtteTqtbGFg4zRj0O0EDabWklS+CAnDh5Ug8UYAQnR8wJFGch3zgMGk9jYpWx9VnFvBF1jEIKAyCY/Q6VoBVxQcqnjjrS8cL8gjJZmCPzWd/A0YtY5Ba1E25rkhrLB+CKrkSKgvo7AAFNCUVMrL69qRwBKZvbMVlcWdXiJmgQ6J/sdvX1NTIzO60gBxvvo3sDMjM9q8lZXI0Il7IY+2NfX486ZQGCsNNiinCV29AgsL7kk7BqfzFpa7UCTxcvXtDyvQ8fPlbtA2YQgBFjJC8B5hYu56UOQOBzHMyKI4DAqIIYs333KpAg+Y1L0uMnAp/gcdhxSjsDBGPa2ctMDCYNmjSPRLy2sSIN9fUKVlFrZyRDzS1idRMyyWxUYnVOvnBwj+mj6tYS6Nl6AJYTZEtBKszctEKrKpljBjNmahL2q+9M2ZOeZ9TiqhnSZD2EGhu4Uf+bJJkUXR6KgCA9k19gaXFRtqNRPa9dnZ1auId5mwremLUzS/E3Z3p07KUWAUMzgBkTzZXTpAAeXJl1TUvpZWl047dw6Oy8eS4bMpx1EN7Y3JCN9XVPi2c+N3zG3KFRDqywTq4+AnkLbY3sLTomS/ucMQViIa9/f0JtD1gtr6zqOlVX1yqts2gha58XQVgnWlKlKy3NUlJikT5oVDC3cL6ZL+viyq9bWLIHEXFIdhE83iBNC6WjfcVPzDlh7+WZLACEvVz9D9Q3mxVJmaI7MBOYV7Y8sXdyDOaqygynGzaps+3B1HgeJkRCluqqam0HBr6wuKi/R4qKNGsfyVqQejkMeD27MrEwMhgUTB3C5xgmqm9XiMRVFcRsAMPEZIFfgDoGhkJqF2YsHDY0FfzkOy1olEp51eqKlWm6eHMAERUEmQsOQUjijBdNBBIfIVloOPBHQLWP9A0Qwb8BMwv1BVDzkwlxY2NdtSv4ElC4iLTDMIW29nZNRIMPBm2fOnlS46WXlzCHPND5suaAC/6GmBEbDxiAAZhH/ITOD3U/88GkgDYHorS1taEqX8aK8xRj417GRngaa8hnACRKt2LLxaGTd1hXW6v1IJjT8+fDBpwWFhSQsd5IvhAe87LOMpz9IK18oOPwRoAA03A+CKxp7hpAHN2ZcPH7z4ZfqJno6tUvrDS6OtKZep/95ez1ZmdH9W8x8+wXl1kP5u9U9qaOtnwRnEMyVlooXIWeTfYtfgjsfc1SWBzJSOIwJ3wY1LZOGK4yYgurxTRFxlMcAdFomRo/JKUlFPsBMFg1yu+//8k7A9myyOUVVJ2EHuBkjN3fwotdeDAJh779/lt1pmRfAV5JsW7AIKgA2QEwxsb+N6CVzRvi2lTtggC06M9MBcyJc0BxM4qRoWl01RhXVzaUaUNvAAbGbElrTJ6CItnaxlHXCiuZlJ5WB2mEkVu3yM5oCdpsPmFl8PE4Jh0LF75//5GaGM+dO6vv1ZlFAI7QjW+++SZTA+HUqdPq82TAIyQbm5vyx2/+KKVlpXrWybVQVVmpESFcLlLKZaNkbdlXgAfeDYCRddKkcp4vDOPay8uFqTMG9g30C6dTV2VyL8e2U98FE0Meb+SXAYJrIO2lUvXn9jbJBKZszln2z3kTOxTuJxp+O5k5GUX1IDgmiP0cBggzdt67Lmuj64c23O8O5Tti675zXs3+QjTORsqYnaOSAzeMwalInfqcZ22jWxQAzzEW5gXB4fOsw1NIAQDOjzB3gAf3uT5pX/Pke+04acaFaLo+TQ1tkQ5ql/Xstm4s7nOH1P0SolOPuvESpoX0hqYGcMC9HFh++pNduQyUFq2RjdzQTJGe9Mm4/Tkt8lF55rH1DswtjkH9EkBgMk4t7op4kZ66uKRcTVpk54Nx43CKNoh/VsrYsmOy9oBUwCDJiHBUBJix1kjrAGj2B9/BADkffIZ5TsPxPGANqDNNnFUV5Xn2K0SaqAScajs7utWJEpANAIEJAibR0NEHgAEfoVMnj2ZAC6D0T3/6LjMH18/cvPnxsKdxmMXhjrkBNvFRGBp6qmm7CSME0KDlYrzmt7Op/jWACDU/tjSrTw3OuzBrMj5SKA1BAg0k6bnR6uFPQx/MjTVgfwOK0aaxHu3tHaqthEmzdoB5gK/L1cFa4wg5MvpczXiYGbmcIzDj+9Of/qTgC5DFs4BCIhEsAdK0ZrIEpCGsYKojxToAnnYB3Izvu+++U6GHcRYXl6pf1fPhF9oGe4E8FC4EligSBJHZuemMcAN9YOyuPDrjgDaSIpoS7/hsAYgaGi1JWR6WiA965goA4YMu7940nh9AsGyHDtk6BuX/6WdWMCkOowuzU1WdL4beMV4+c6FHSBcWeWCMyUlozr7pbHF+hyLH3F7xKPYkDwcOHKNWpdwrZUzNLMA4HbDhe/ec64/+/RKcnxH7nbIgVEhwMAAOvX/8rm+3Bv7v3Hxc8iBTIb5aotf/nOtfdTqe7TfXyYrv1C9EE8vYWBzgcM/55+QkX7OhZ3Oqu778zzugsDe7dW96fReAwLo+fPhQNV+YflZXNzW5EYwOoIW6mX3CPkeahnnCkDFXwQBJMIRGCoZJbD0+B2h6MGltbZI9sV1TKsP0ba8WKVO1FNbmUMe7py9AAozNAUOXSMhMEiEpLqEEeUI1EDxDZA9mMUxOS4sLmo67ra1ZtQ4AyD/84RudlzHrFj2v167/qAz0b//2bzXMmL2iYcTFxQp6AEYzs/NaZZTkQIRVoiE0/4eUMlWep01ABfesr69qOzB37uUn9IHEUzxXX1evYIP3wnfMnTnYeY5oBIOlhAdwU611UVN7UwsGh2SACZpO0hwDdFzJd7QeSPf8xDxAQqqNzTUFAbwPgB5+VeSscJo2A9Hm8MiYYfSnT59SAEaqeAARz3d396pJsbikWEFJpCgia2oSqVafLX6yd2Zn5vW9u/TjhJ4uLi1KS3OzAh7MjyvLS2oqRJsEyLxw8azOswAQ3o0+FDQIeaxXvgAB9yJ35TI4J307icUxISeB+sFDbhY9F9fPMxwKx6wcU3Vt5fbtQIb73M/w/ADEb4P1O1C5MalN0F+jPeuurU37wUPumPzPOQ2K0wb4matjsO4zx9j9Y3fgy/Xnfrr5Oxuj69ONJXfeuQDC9eVfh9zx5M7LD9Bc+07r4QcaeWyvT+KWfAEC97F/f/zxR9UMlJZWyJMnw8psAAQwAXwG2COUIOczTEM4yaLaR9XMvRcvXlSTj4syoU3LXRGV3/3uK7lx457MzEyr/wxSOs/wE2l3bX1JmT5AlWQ8gA0rGb6spg0YMs6S7AEkZRiwq6/C+WOfkXmRImR9vT3S09OlPkkAhO+/+958D7q7pCgMYy2SH378QbVn//AP/+CBAsvYabk4Eho2PDY2oQXYJian5d7dewpceBZJGlMjZoCxly/1p5YjTya04ieSOBoNNCujL0cV1AAg+Iy1YdxfffWVhvjCdF39j5djL9SUhkMvJd+hMcwVqZ7+CKvG+XhleU0ZPiGVgCa0D4ybNNGmiQsLjoWAGzQGPAuIsUJOpMSOew7GM8q4mRNjxVxAdVeACeuNuc9qu5TI5cufy+DgkH7Hfmlvp6BTVIE8mlTn6wXY4j0SPorWh3cN+EMj8dOP3+u7xqzBmC9cOKsFpLKm4b05dgUNwt6s+wftFYDAgcNLnk3OQdppo/nLgfuZDQfJSdLucz9T8zN2P4P0M+hcpuYHFE56dszdz7xyF8bfvt9G7JjaTkAg9z4HGPzmEDefN9ne3ZictsEx81xp3T3vGPROa7OT5sE/Tz9AcOvkB1Fu3Llr4V83tx7+9+i+9/efuza593zQjbmPGncAAaIO0XZ1MHL3g8s2id0VUwH26mg0pSpxk9QrldDjYwCDsrBDK9cMswQgwMRQbaN2h8ER3QJDI6se31lBsDV9Bi0BY8FZl1TBFNlaWp5TIIFfC1otQnQxYcC8kLStJoQVxoLhIenicAwjok2ccxkn0TknTxxX7QR+PzDZ7777Xvt3RYT4DG0JbQEq0FbwPRoLnqG9p0+HZXDomRzq69fxOM2iS7SG3wzmC4CKakHSVjqcf4ApgAnaCtaTNULaZj0wh2ASYKw8B3ChP9bjxo1rUlNbo6YD8qVwTvC7QZrXkF6vnsny0poCOZ6lH9cG62yF08okFt/SdeV73gtzRwsCIEGr4cyTzIuxAMwwDWEWwSeJNXbZMHEEBejRP5I/+4mqpbxj5kiekpZmnI3HNISa/QGwsAJp5t+BSWZw8LFsbqwrCNKU181WMh5/BL8G8k306kMdLb9sxe/sC8LOmStVdffbVdAg5PFGtFRpIq4Agc1GbnILX3r12lv3lzwmUrilsAIfaAUc8LMkUubI6te6uG4deIPw4wOCiaGmtl6dz5CiYTgulTKmBZgCJX9fjo2pdExpb5h/V2eHzM0v6HOo63H+RSrFtDAxPq7Mj6yeSNyoyp+/eC6tLc1aPpqkXKi8YXaoxZF4zSegQV6MvFBfosZGyz6KRgMmD9MFJFiCn011wKuvq9WMi5ZSuV4ZO3OamBhXhz18JFwEhQPEMCRMBQAEwA5Mi7X4+cZtKSstVyZHCC8XUjTqfZKs4VcxS0GlpiY1FeA4rEnV+g4JJa9Ji0x2SkADToVoTKjSSvgzIcZI0yQDY274UzwbfqYAhTljCkDgAeigTUArAaDgJ7lNYN6UYkeLg9ofhz8cjsnVosJCOqFanvqGOjnUd1jt/rSJbwVgivLtzBl/DrQaADK0AWRDfPToib4DKy3fq1lbrQhVXJ2A0TLgnOwilLiXKrDzc4RHV6pmgYgqtDUAS9YZjQ7gcuTFCzVr4EhJNArvu6qqIpOvxC+kfKBj8cZmzXwEQNhSx+sCQPjYb+A99kdIDgSBnAAQLA7sTk5ofg3Ce+z+wDfl1374NQIHfmKFCWRWwAEEGIPTILzpvTs/DqQ+jX8Pm3c76mgiB8i2B5CASZjTKgl1zL9HQ+U8PxDT8rhKnOZpT3vc62zltOPUuqr1U3MZzrFWqMtpfMizoM8nyY6YkHCIbI4Wy2/x9y5qwPoAYKgjq6ZNtxwHTpPn/BlgnqY5zGYcNFu8ZVHU7Ihe8TVKuadSAYlEyCRpDrjm8CtSWooDbDZqwXII2HoARPiO51z0AJ+b1sXWEcc/8yMgVToe/pZPwMyd3JP0Odhma4FYNAkp3pmrRZhYnRNrX/NT8P6CJEFizcNShBOv5pKwDI1ubVhr2mEtNcOsEBmGWQhNjWVutAyaZoKiL8asoaWayMlCKrksv4I5KKvJisgFwYnavldTX4pCdVZZtkjTqFueCfpze/Vjaw/ssFh4r8uXgQYB8wpa6YIG4YASVA4CyNblgcfM4EwG2Slx8A7oBD/wsAsA4QMv8D5pHmYCQOAnauqdLr9vhzq5Qsy9+HmXfljJqJfZ0Jhs0MuHYL4wMD5KBvOsmouM3HrPECnhgYkwDNgBBEUEmagTTQWcSmo5dWcCpPYJzEgjLTJJfoz5m0OuI+7GIDUhEaGInnMx4+Z3x3wdQLBiZUQwmY9Sth3L9phJTKRMFBU7DNEyEtI3zNCSHWXLq9OWMXhj2s4kZqkL7X6AQMZU5ss2SfIhQidd3VUzo3lVYr1wbdbc8j6Y87RFnxiBM6DgT3hlkVnGvLPVRZ3PkdLKTK2abOl57ncmJ5cvwyWmok/nYG3gwFV/deuXlqRXpVbDWoMAGBuizs9L2pRZc6/YabaAXNZf7OMeHwdybJ0wXZMEDjMLxar221UwMeTxRkC+sTgmhpv6UlENvpYpT41LrnhTHo3+Gd2Si9R3Agx/RsvxSU7VSWVIRDAGVMq5PipM3En/jnlqFI9GFmST8DiG7UJK/b4hTpPAZy4UNaMF8DLquagbFyLsGJcVQrWKne4Z99MxIzcOTX/gpT/2t2/AwCRX8IIr0uUHB05C5l4DCwZkuPzOyu4ZTQueMqmZtpk3v7tcEf71cOvsj3hy48uCE4t+cM/5z5uNg3TFAB+veqwvwVAWAFjUQSptWgD3uXPENaneKqQauHjV5Or8RkwzFNPEU86H2++P5feb4j4XZunv0+0bt58waTA/V5iOz134rMsNkUoGJBm3Inb4NBC9YnO35HZ7oz3QN54BUvxiYbmLmliOgmH77SoAhDzeCCiUDT8+Ma7JffypTP2P77WHbB5TKdxSWIEPugK5hP1tnWWYv6PdWoPAl6HUWJMxKd89pjnwfWBkNyORW7/2nGoXMgWjDIhk7nSpmD0mmAUjrm1fq746Etb+q4zGD2Te9DtjsqgXtzKmXSAKwn3k0hx7U8gsoa6BG7j3pa+ZjMnEPcc6uiRLuaXjbT09jYDXQ7Zpp3nw1v3VTj2thKWxduucHXt2rXP3gr0L7zV6j1J3QsfJe9cl9epbZO7LXWP3nq0lty/82hBty9NYWCl70x7t1zpqOOjiiIkz6H67CgAhjzfiNnpWItjZlrB3qDSPSRRuKaxAYQUO/Arkat8KNOdgv1JnknGak/02mwJAyOONuJfIreb0ZHbJwlVYgcIKfJgVyIfx5Wuqel8mrvfVjuo2csTZneaSzz07tbXTG8l3rT7M2/T0DHnMOZ/+89kb+3UNdhqX88vZyfE9n/X4kPcUAMI7rK7/kO2HA/cOQy/cWliBwgoUVqCwAvt4BQoAYR+/nF8amt+h6Zfu2y2yPaDLUhh2YQUKK/CRV+D/b88OTgAIYhiI9d91uhhiUAUO8j3Mnl8MMXgQ9/lV2gtC8AGIIECAAAECawIGwlpj7iVAgAABAoGAgRAgiyBAgAABAmsCBsJaY+4lQIAAAQKBgIEQIIsgQIAAAQJrAgbCWmPuJUCAAAECgYCBECCLIECAAAECawIGwlpj7iVAgAABAoGAgRAgiyBAgAABAmsCBsJaY+4lQIAAAQKBgIEQIIsgQIAAAQJrAgbCWmPuJUCAAAECgYCBECCLIECAAAECawIGwlpj7iVAgAABAoGAgRAgiyBAgAABAmsCBsJaY+4lQIAAAQKBgIEQIIsgQIAAAQJrAgbCWmPuJUCAAAECgcABUK5ycEmhEJYAAAAASUVORK5CYII=;" vertex="1" parent="1">
          <mxGeometry x="960" y="-96" width="520" height="406" as="geometry" />
        </mxCell>
      </root>
    </mxGraphModel>
  </diagram>
</mxfile>
